{"glyphs":{"0":{"ha":4611,"x_min":0,"x_max":0,"o":"m 429 563 l 429 722 l 644 722 l 644 856 l 429 856 l 429 919 l 692 919 l 692 1049 l 296 1049 l 296 563 l 429 563 z m 1218 1049 l 1096 1049 l 1096 811 b 993 685 1096 753 1078 685 b 897 811 919 685 897 753 l 897 1049 l 772 1049 l 772 756 b 993 556 772 657 872 556 b 1218 756 1121 556 1218 657 l 1218 1049 z m 1313 563 l 1617 563 l 1617 692 l 1442 692 l 1442 1049 l 1313 1049 l 1313 563 z m 1708 563 l 2007 563 l 2007 692 l 1831 692 l 1831 1049 l 1708 1049 l 1708 563 z m 2382 563 l 2382 722 l 2597 722 l 2597 856 l 2382 856 l 2382 919 l 2644 919 l 2644 1049 l 2256 1049 l 2256 563 l 2382 563 z m 3682 1049 l 3682 765 l 3467 1049 l 3333 1049 l 3333 563 l 3467 563 l 3467 846 l 3682 563 l 3813 563 l 3813 1049 l 3682 1049 z m 4171 919 l 4315 919 l 4315 1049 l 3907 1049 l 3907 919 l 4042 919 l 4042 563 l 4171 563 l 4171 919 z m 251 288 l 357 288 l 357 192 l 403 192 l 403 429 l 357 429 l 357 333 l 251 333 l 251 429 l 208 429 l 208 192 l 251 192 l 251 288 z m 564 389 l 640 389 l 640 429 l 446 429 l 446 389 l 525 389 l 525 192 l 564 192 l 564 389 z m 801 389 l 878 389 l 878 429 l 683 429 l 683 389 l 763 389 l 763 192 l 801 192 l 801 389 z m 967 254 l 1011 254 b 1117 343 1092 254 1117 300 b 1011 429 1117 389 1092 429 l 921 429 l 921 192 l 967 192 l 967 254 z m 1011 389 b 1072 343 1058 389 1072 364 b 1011 300 1072 319 1058 300 l 967 300 l 967 389 l 1011 389 z m 1161 192 l 1204 192 l 1204 235 l 1161 235 l 1161 192 z m 1161 319 l 1204 319 l 1204 361 l 1161 361 l 1161 319 z m 1378 472 l 1343 472 l 1242 146 l 1275 146 l 1378 472 z m 1461 472 l 1424 472 l 1325 146 l 1357 146 l 1461 472 z m 1629 318 l 1553 429 l 1510 429 l 1510 192 l 1553 192 l 1553 353 l 1629 235 l 1701 353 l 1701 192 l 1746 192 l 1746 429 l 1701 429 l 1629 318 z m 2011 192 b 1896 433 1972 269 1931 353 b 1778 192 1854 353 1815 269 l 1826 192 l 1846 235 l 1943 235 l 1963 192 l 2011 192 z m 2175 429 l 2131 429 l 2131 297 b 2096 224 2131 243 2125 224 b 2035 243 2068 224 2049 232 l 2035 200 b 2094 185 2057 192 2068 185 b 2175 292 2142 185 2175 201 z m 2222 192 l 2393 192 l 2393 235 l 2264 235 l 2264 288 l 2374 288 l 2374 333 l 2264 333 l 2264 389 l 2393 389 l 2393 429 l 2222 429 l 2222 192 z m 2604 396 b 2524 433 2582 419 2558 433 b 2436 368 2474 433 2436 404 b 2563 257 2436 289 2563 292 b 2506 226 2563 232 2524 226 b 2432 246 2478 226 2444 235 l 2432 201 b 2504 186 2454 193 2478 186 b 2606 261 2551 186 2606 208 b 2478 369 2606 326 2478 328 b 2515 392 2478 388 2501 392 b 2578 368 2554 392 2569 376 z m 2768 389 l 2839 389 l 2839 429 l 2650 429 l 2650 389 l 2724 389 l 2724 192 l 2768 192 l 2768 389 z m 2957 276 l 2957 192 l 2999 192 l 2999 276 l 3086 429 l 3040 429 l 2976 324 l 2921 429 l 2872 429 l 2957 276 z m 3160 254 l 3204 254 b 3308 343 3285 254 3308 300 b 3204 429 3308 389 3285 429 l 3117 429 l 3117 192 l 3160 192 l 3160 254 z m 3204 389 b 3260 343 3251 389 3260 364 b 3204 300 3260 319 3251 300 l 3160 300 l 3160 389 l 3204 389 z m 3351 192 l 3524 192 l 3524 235 l 3397 235 l 3397 288 l 3503 288 l 3503 333 l 3397 333 l 3397 389 l 3524 389 l 3524 429 l 3351 429 l 3351 192 z m 3568 192 l 3611 192 l 3611 235 l 3568 235 l 3568 192 z m 3772 433 b 3654 313 3706 433 3654 379 b 3853 204 3654 204 3772 167 l 3853 247 b 3694 313 3814 224 3694 219 b 3772 389 3694 353 3725 389 b 3821 368 3792 389 3814 379 l 3853 400 b 3772 433 3833 419 3803 433 z m 4010 433 b 3890 313 3943 433 3890 379 b 4010 192 3890 251 3933 192 b 4124 313 4085 192 4124 251 b 4010 433 4124 372 4085 433 z m 4010 389 b 4085 313 4054 389 4085 353 b 4010 231 4085 269 4054 231 b 3933 313 3963 231 3933 269 b 4010 389 3933 353 3963 389 z m 4288 318 l 4207 429 l 4167 429 l 4167 192 l 4207 192 l 4207 353 l 4288 235 l 4357 353 l 4357 192 l 4403 192 l 4403 429 l 4357 429 l 4288 318 z m 1867 276 l 1896 335 l 1924 276 z m 2971 561 b 3242 808 3151 561 3240 685 b 2971 1056 3240 932 3151 1056 b 2700 808 2790 1056 2701 932 b 2971 561 2701 685 2790 561 z m 2971 683 b 2835 808 2879 683 2836 746 b 2971 933 2836 872 2879 933 b 3108 808 3064 933 3107 872 b 2971 683 3107 746 3064 683 z "},"1":{"ha":4611,"x_min":0,"x_max":0,"o":"m 429 563 l 429 722 l 644 722 l 644 856 l 429 856 l 429 919 l 692 919 l 692 1049 l 296 1049 l 296 563 l 429 563 z m 1218 1049 l 1096 1049 l 1096 811 b 993 685 1096 753 1078 685 b 897 811 919 685 897 753 l 897 1049 l 772 1049 l 772 756 b 993 556 772 657 872 556 b 1218 756 1121 556 1218 657 l 1218 1049 z m 1313 563 l 1617 563 l 1617 692 l 1442 692 l 1442 1049 l 1313 1049 l 1313 563 z m 1708 563 l 2007 563 l 2007 692 l 1831 692 l 1831 1049 l 1708 1049 l 1708 563 z m 2382 563 l 2382 722 l 2597 722 l 2597 856 l 2382 856 l 2382 919 l 2644 919 l 2644 1049 l 2256 1049 l 2256 563 l 2382 563 z m 3682 1049 l 3682 765 l 3467 1049 l 3333 1049 l 3333 563 l 3467 563 l 3467 846 l 3682 563 l 3813 563 l 3813 1049 l 3682 1049 z m 4171 919 l 4315 919 l 4315 1049 l 3907 1049 l 3907 919 l 4042 919 l 4042 563 l 4171 563 l 4171 919 z m 251 288 l 357 288 l 357 192 l 403 192 l 403 429 l 357 429 l 357 333 l 251 333 l 251 429 l 208 429 l 208 192 l 251 192 l 251 288 z m 564 389 l 640 389 l 640 429 l 446 429 l 446 389 l 525 389 l 525 192 l 564 192 l 564 389 z m 801 389 l 878 389 l 878 429 l 683 429 l 683 389 l 763 389 l 763 192 l 801 192 l 801 389 z m 967 254 l 1011 254 b 1117 343 1092 254 1117 300 b 1011 429 1117 389 1092 429 l 921 429 l 921 192 l 967 192 l 967 254 z m 1011 389 b 1072 343 1058 389 1072 364 b 1011 300 1072 319 1058 300 l 967 300 l 967 389 l 1011 389 z m 1161 192 l 1204 192 l 1204 235 l 1161 235 l 1161 192 z m 1161 319 l 1204 319 l 1204 361 l 1161 361 l 1161 319 z m 1378 472 l 1343 472 l 1242 146 l 1275 146 l 1378 472 z m 1461 472 l 1424 472 l 1325 146 l 1357 146 l 1461 472 z m 1629 318 l 1553 429 l 1510 429 l 1510 192 l 1553 192 l 1553 353 l 1629 235 l 1701 353 l 1701 192 l 1746 192 l 1746 429 l 1701 429 l 1629 318 z m 2011 192 b 1896 433 1972 269 1931 353 b 1778 192 1854 353 1815 269 l 1826 192 l 1846 235 l 1943 235 l 1963 192 l 2011 192 z m 2175 429 l 2131 429 l 2131 297 b 2096 224 2131 243 2125 224 b 2035 243 2068 224 2049 232 l 2035 200 b 2094 185 2057 192 2068 185 b 2175 292 2142 185 2175 201 z m 2222 192 l 2393 192 l 2393 235 l 2264 235 l 2264 288 l 2374 288 l 2374 333 l 2264 333 l 2264 389 l 2393 389 l 2393 429 l 2222 429 l 2222 192 z m 2604 396 b 2524 433 2582 419 2558 433 b 2436 368 2474 433 2436 404 b 2563 257 2436 289 2563 292 b 2506 226 2563 232 2524 226 b 2432 246 2478 226 2444 235 l 2432 201 b 2504 186 2454 193 2478 186 b 2606 261 2551 186 2606 208 b 2478 369 2606 326 2478 328 b 2515 392 2478 388 2501 392 b 2578 368 2554 392 2569 376 z m 2768 389 l 2839 389 l 2839 429 l 2650 429 l 2650 389 l 2724 389 l 2724 192 l 2768 192 l 2768 389 z m 2957 276 l 2957 192 l 2999 192 l 2999 276 l 3086 429 l 3040 429 l 2976 324 l 2921 429 l 2872 429 l 2957 276 z m 3160 254 l 3204 254 b 3308 343 3285 254 3308 300 b 3204 429 3308 389 3285 429 l 3117 429 l 3117 192 l 3160 192 l 3160 254 z m 3204 389 b 3260 343 3251 389 3260 364 b 3204 300 3260 319 3251 300 l 3160 300 l 3160 389 l 3204 389 z m 3351 192 l 3524 192 l 3524 235 l 3397 235 l 3397 288 l 3503 288 l 3503 333 l 3397 333 l 3397 389 l 3524 389 l 3524 429 l 3351 429 l 3351 192 z m 3568 192 l 3611 192 l 3611 235 l 3568 235 l 3568 192 z m 3772 433 b 3654 313 3706 433 3654 379 b 3853 204 3654 204 3772 167 l 3853 247 b 3694 313 3814 224 3694 219 b 3772 389 3694 353 3725 389 b 3821 368 3792 389 3814 379 l 3853 400 b 3772 433 3833 419 3803 433 z m 4010 433 b 3890 313 3943 433 3890 379 b 4010 192 3890 251 3933 192 b 4124 313 4085 192 4124 251 b 4010 433 4124 372 4085 433 z m 4010 389 b 4085 313 4054 389 4085 353 b 4010 231 4085 269 4054 231 b 3933 313 3963 231 3933 269 b 4010 389 3933 353 3963 389 z m 4288 318 l 4207 429 l 4167 429 l 4167 192 l 4207 192 l 4207 353 l 4288 235 l 4357 353 l 4357 192 l 4403 192 l 4403 429 l 4357 429 l 4288 318 z m 1867 276 l 1896 335 l 1924 276 z m 2971 561 b 3242 808 3151 561 3240 685 b 2971 1056 3240 932 3151 1056 b 2700 808 2790 1056 2701 932 b 2971 561 2701 685 2790 561 z m 2971 683 b 2835 808 2879 683 2836 746 b 2971 933 2836 872 2879 933 b 3108 808 3064 933 3107 872 b 2971 683 3107 746 3064 683 z "},"2":{"ha":4611,"x_min":0,"x_max":0,"o":"m 429 563 l 429 722 l 644 722 l 644 856 l 429 856 l 429 919 l 692 919 l 692 1049 l 296 1049 l 296 563 l 429 563 z m 1218 1049 l 1096 1049 l 1096 811 b 993 685 1096 753 1078 685 b 897 811 919 685 897 753 l 897 1049 l 772 1049 l 772 756 b 993 556 772 657 872 556 b 1218 756 1121 556 1218 657 l 1218 1049 z m 1313 563 l 1617 563 l 1617 692 l 1442 692 l 1442 1049 l 1313 1049 l 1313 563 z m 1708 563 l 2007 563 l 2007 692 l 1831 692 l 1831 1049 l 1708 1049 l 1708 563 z m 2382 563 l 2382 722 l 2597 722 l 2597 856 l 2382 856 l 2382 919 l 2644 919 l 2644 1049 l 2256 1049 l 2256 563 l 2382 563 z m 3682 1049 l 3682 765 l 3467 1049 l 3333 1049 l 3333 563 l 3467 563 l 3467 846 l 3682 563 l 3813 563 l 3813 1049 l 3682 1049 z m 4171 919 l 4315 919 l 4315 1049 l 3907 1049 l 3907 919 l 4042 919 l 4042 563 l 4171 563 l 4171 919 z m 251 288 l 357 288 l 357 192 l 403 192 l 403 429 l 357 429 l 357 333 l 251 333 l 251 429 l 208 429 l 208 192 l 251 192 l 251 288 z m 564 389 l 640 389 l 640 429 l 446 429 l 446 389 l 525 389 l 525 192 l 564 192 l 564 389 z m 801 389 l 878 389 l 878 429 l 683 429 l 683 389 l 763 389 l 763 192 l 801 192 l 801 389 z m 967 254 l 1011 254 b 1117 343 1092 254 1117 300 b 1011 429 1117 389 1092 429 l 921 429 l 921 192 l 967 192 l 967 254 z m 1011 389 b 1072 343 1058 389 1072 364 b 1011 300 1072 319 1058 300 l 967 300 l 967 389 l 1011 389 z m 1161 192 l 1204 192 l 1204 235 l 1161 235 l 1161 192 z m 1161 319 l 1204 319 l 1204 361 l 1161 361 l 1161 319 z m 1378 472 l 1343 472 l 1242 146 l 1275 146 l 1378 472 z m 1461 472 l 1424 472 l 1325 146 l 1357 146 l 1461 472 z m 1629 318 l 1553 429 l 1510 429 l 1510 192 l 1553 192 l 1553 353 l 1629 235 l 1701 353 l 1701 192 l 1746 192 l 1746 429 l 1701 429 l 1629 318 z m 2011 192 b 1896 433 1972 269 1931 353 b 1778 192 1854 353 1815 269 l 1826 192 l 1846 235 l 1943 235 l 1963 192 l 2011 192 z m 2175 429 l 2131 429 l 2131 297 b 2096 224 2131 243 2125 224 b 2035 243 2068 224 2049 232 l 2035 200 b 2094 185 2057 192 2068 185 b 2175 292 2142 185 2175 201 z m 2222 192 l 2393 192 l 2393 235 l 2264 235 l 2264 288 l 2374 288 l 2374 333 l 2264 333 l 2264 389 l 2393 389 l 2393 429 l 2222 429 l 2222 192 z m 2604 396 b 2524 433 2582 419 2558 433 b 2436 368 2474 433 2436 404 b 2563 257 2436 289 2563 292 b 2506 226 2563 232 2524 226 b 2432 246 2478 226 2444 235 l 2432 201 b 2504 186 2454 193 2478 186 b 2606 261 2551 186 2606 208 b 2478 369 2606 326 2478 328 b 2515 392 2478 388 2501 392 b 2578 368 2554 392 2569 376 z m 2768 389 l 2839 389 l 2839 429 l 2650 429 l 2650 389 l 2724 389 l 2724 192 l 2768 192 l 2768 389 z m 2957 276 l 2957 192 l 2999 192 l 2999 276 l 3086 429 l 3040 429 l 2976 324 l 2921 429 l 2872 429 l 2957 276 z m 3160 254 l 3204 254 b 3308 343 3285 254 3308 300 b 3204 429 3308 389 3285 429 l 3117 429 l 3117 192 l 3160 192 l 3160 254 z m 3204 389 b 3260 343 3251 389 3260 364 b 3204 300 3260 319 3251 300 l 3160 300 l 3160 389 l 3204 389 z m 3351 192 l 3524 192 l 3524 235 l 3397 235 l 3397 288 l 3503 288 l 3503 333 l 3397 333 l 3397 389 l 3524 389 l 3524 429 l 3351 429 l 3351 192 z m 3568 192 l 3611 192 l 3611 235 l 3568 235 l 3568 192 z m 3772 433 b 3654 313 3706 433 3654 379 b 3853 204 3654 204 3772 167 l 3853 247 b 3694 313 3814 224 3694 219 b 3772 389 3694 353 3725 389 b 3821 368 3792 389 3814 379 l 3853 400 b 3772 433 3833 419 3803 433 z m 4010 433 b 3890 313 3943 433 3890 379 b 4010 192 3890 251 3933 192 b 4124 313 4085 192 4124 251 b 4010 433 4124 372 4085 433 z m 4010 389 b 4085 313 4054 389 4085 353 b 4010 231 4085 269 4054 231 b 3933 313 3963 231 3933 269 b 4010 389 3933 353 3963 389 z m 4288 318 l 4207 429 l 4167 429 l 4167 192 l 4207 192 l 4207 353 l 4288 235 l 4357 353 l 4357 192 l 4403 192 l 4403 429 l 4357 429 l 4288 318 z m 1867 276 l 1896 335 l 1924 276 z m 2971 561 b 3242 808 3151 561 3240 685 b 2971 1056 3240 932 3151 1056 b 2700 808 2790 1056 2701 932 b 2971 561 2701 685 2790 561 z m 2971 683 b 2835 808 2879 683 2836 746 b 2971 933 2836 872 2879 933 b 3108 808 3064 933 3107 872 b 2971 683 3107 746 3064 683 z "},"3":{"ha":432,"x_min":0,"x_max":0,"o":"m 78 732 b 68 704 69 724 68 713 b 111 654 68 678 92 654 l 129 654 b 142 656 133 654 138 656 b 275 360 233 656 275 514 b 175 28 275 249 242 28 b 78 69 146 28 101 54 b 57 82 67 75 56 81 b 28 83 46 83 33 83 b -3 68 6 83 -3 78 b 8 46 -3 61 1 56 l 8 47 l 22 24 b 164 -40 53 -28 92 -40 b 388 393 313 -40 388 218 b 192 717 388 515 331 629 b 363 1004 313 781 363 911 b 215 1164 363 1108 331 1164 b 76 1147 178 1164 133 1158 b 43 1092 54 1142 43 1114 b 63 1068 43 1076 47 1068 b 217 1103 135 1090 185 1103 b 269 1053 254 1103 269 1088 b 82 733 269 969 169 754 z "},"4":{"ha":4611,"x_min":0,"x_max":0,"o":"m 429 563 l 429 722 l 644 722 l 644 856 l 429 856 l 429 919 l 692 919 l 692 1049 l 296 1049 l 296 563 l 429 563 z m 1218 1049 l 1096 1049 l 1096 811 b 993 685 1096 753 1078 685 b 897 811 919 685 897 753 l 897 1049 l 772 1049 l 772 756 b 993 556 772 657 872 556 b 1218 756 1121 556 1218 657 l 1218 1049 z m 1313 563 l 1617 563 l 1617 692 l 1442 692 l 1442 1049 l 1313 1049 l 1313 563 z m 1708 563 l 2007 563 l 2007 692 l 1831 692 l 1831 1049 l 1708 1049 l 1708 563 z m 2382 563 l 2382 722 l 2597 722 l 2597 856 l 2382 856 l 2382 919 l 2644 919 l 2644 1049 l 2256 1049 l 2256 563 l 2382 563 z m 3682 1049 l 3682 765 l 3467 1049 l 3333 1049 l 3333 563 l 3467 563 l 3467 846 l 3682 563 l 3813 563 l 3813 1049 l 3682 1049 z m 4171 919 l 4315 919 l 4315 1049 l 3907 1049 l 3907 919 l 4042 919 l 4042 563 l 4171 563 l 4171 919 z m 251 288 l 357 288 l 357 192 l 403 192 l 403 429 l 357 429 l 357 333 l 251 333 l 251 429 l 208 429 l 208 192 l 251 192 l 251 288 z m 564 389 l 640 389 l 640 429 l 446 429 l 446 389 l 525 389 l 525 192 l 564 192 l 564 389 z m 801 389 l 878 389 l 878 429 l 683 429 l 683 389 l 763 389 l 763 192 l 801 192 l 801 389 z m 967 254 l 1011 254 b 1117 343 1092 254 1117 300 b 1011 429 1117 389 1092 429 l 921 429 l 921 192 l 967 192 l 967 254 z m 1011 389 b 1072 343 1058 389 1072 364 b 1011 300 1072 319 1058 300 l 967 300 l 967 389 l 1011 389 z m 1161 192 l 1204 192 l 1204 235 l 1161 235 l 1161 192 z m 1161 319 l 1204 319 l 1204 361 l 1161 361 l 1161 319 z m 1378 472 l 1343 472 l 1242 146 l 1275 146 l 1378 472 z m 1461 472 l 1424 472 l 1325 146 l 1357 146 l 1461 472 z m 1629 318 l 1553 429 l 1510 429 l 1510 192 l 1553 192 l 1553 353 l 1629 235 l 1701 353 l 1701 192 l 1746 192 l 1746 429 l 1701 429 l 1629 318 z m 2011 192 b 1896 433 1972 269 1931 353 b 1778 192 1854 353 1815 269 l 1826 192 l 1846 235 l 1943 235 l 1963 192 l 2011 192 z m 2175 429 l 2131 429 l 2131 297 b 2096 224 2131 243 2125 224 b 2035 243 2068 224 2049 232 l 2035 200 b 2094 185 2057 192 2068 185 b 2175 292 2142 185 2175 201 z m 2222 192 l 2393 192 l 2393 235 l 2264 235 l 2264 288 l 2374 288 l 2374 333 l 2264 333 l 2264 389 l 2393 389 l 2393 429 l 2222 429 l 2222 192 z m 2604 396 b 2524 433 2582 419 2558 433 b 2436 368 2474 433 2436 404 b 2563 257 2436 289 2563 292 b 2506 226 2563 232 2524 226 b 2432 246 2478 226 2444 235 l 2432 201 b 2504 186 2454 193 2478 186 b 2606 261 2551 186 2606 208 b 2478 369 2606 326 2478 328 b 2515 392 2478 388 2501 392 b 2578 368 2554 392 2569 376 z m 2768 389 l 2839 389 l 2839 429 l 2650 429 l 2650 389 l 2724 389 l 2724 192 l 2768 192 l 2768 389 z m 2957 276 l 2957 192 l 2999 192 l 2999 276 l 3086 429 l 3040 429 l 2976 324 l 2921 429 l 2872 429 l 2957 276 z m 3160 254 l 3204 254 b 3308 343 3285 254 3308 300 b 3204 429 3308 389 3285 429 l 3117 429 l 3117 192 l 3160 192 l 3160 254 z m 3204 389 b 3260 343 3251 389 3260 364 b 3204 300 3260 319 3251 300 l 3160 300 l 3160 389 l 3204 389 z m 3351 192 l 3524 192 l 3524 235 l 3397 235 l 3397 288 l 3503 288 l 3503 333 l 3397 333 l 3397 389 l 3524 389 l 3524 429 l 3351 429 l 3351 192 z m 3568 192 l 3611 192 l 3611 235 l 3568 235 l 3568 192 z m 3772 433 b 3654 313 3706 433 3654 379 b 3853 204 3654 204 3772 167 l 3853 247 b 3694 313 3814 224 3694 219 b 3772 389 3694 353 3725 389 b 3821 368 3792 389 3814 379 l 3853 400 b 3772 433 3833 419 3803 433 z m 4010 433 b 3890 313 3943 433 3890 379 b 4010 192 3890 251 3933 192 b 4124 313 4085 192 4124 251 b 4010 433 4124 372 4085 433 z m 4010 389 b 4085 313 4054 389 4085 353 b 4010 231 4085 269 4054 231 b 3933 313 3963 231 3933 269 b 4010 389 3933 353 3963 389 z m 4288 318 l 4207 429 l 4167 429 l 4167 192 l 4207 192 l 4207 353 l 4288 235 l 4357 353 l 4357 192 l 4403 192 l 4403 429 l 4357 429 l 4288 318 z m 1867 276 l 1896 335 l 1924 276 z m 2971 561 b 3242 808 3151 561 3240 685 b 2971 1056 3240 932 3151 1056 b 2700 808 2790 1056 2701 932 b 2971 561 2701 685 2790 561 z m 2971 683 b 2835 808 2879 683 2836 746 b 2971 933 2836 872 2879 933 b 3108 808 3064 933 3107 872 b 2971 683 3107 746 3064 683 z "},"5":{"ha":4611,"x_min":0,"x_max":0,"o":"m 429 563 l 429 722 l 644 722 l 644 856 l 429 856 l 429 919 l 692 919 l 692 1049 l 296 1049 l 296 563 l 429 563 z m 1218 1049 l 1096 1049 l 1096 811 b 993 685 1096 753 1078 685 b 897 811 919 685 897 753 l 897 1049 l 772 1049 l 772 756 b 993 556 772 657 872 556 b 1218 756 1121 556 1218 657 l 1218 1049 z m 1313 563 l 1617 563 l 1617 692 l 1442 692 l 1442 1049 l 1313 1049 l 1313 563 z m 1708 563 l 2007 563 l 2007 692 l 1831 692 l 1831 1049 l 1708 1049 l 1708 563 z m 2382 563 l 2382 722 l 2597 722 l 2597 856 l 2382 856 l 2382 919 l 2644 919 l 2644 1049 l 2256 1049 l 2256 563 l 2382 563 z m 3682 1049 l 3682 765 l 3467 1049 l 3333 1049 l 3333 563 l 3467 563 l 3467 846 l 3682 563 l 3813 563 l 3813 1049 l 3682 1049 z m 4171 919 l 4315 919 l 4315 1049 l 3907 1049 l 3907 919 l 4042 919 l 4042 563 l 4171 563 l 4171 919 z m 251 288 l 357 288 l 357 192 l 403 192 l 403 429 l 357 429 l 357 333 l 251 333 l 251 429 l 208 429 l 208 192 l 251 192 l 251 288 z m 564 389 l 640 389 l 640 429 l 446 429 l 446 389 l 525 389 l 525 192 l 564 192 l 564 389 z m 801 389 l 878 389 l 878 429 l 683 429 l 683 389 l 763 389 l 763 192 l 801 192 l 801 389 z m 967 254 l 1011 254 b 1117 343 1092 254 1117 300 b 1011 429 1117 389 1092 429 l 921 429 l 921 192 l 967 192 l 967 254 z m 1011 389 b 1072 343 1058 389 1072 364 b 1011 300 1072 319 1058 300 l 967 300 l 967 389 l 1011 389 z m 1161 192 l 1204 192 l 1204 235 l 1161 235 l 1161 192 z m 1161 319 l 1204 319 l 1204 361 l 1161 361 l 1161 319 z m 1378 472 l 1343 472 l 1242 146 l 1275 146 l 1378 472 z m 1461 472 l 1424 472 l 1325 146 l 1357 146 l 1461 472 z m 1629 318 l 1553 429 l 1510 429 l 1510 192 l 1553 192 l 1553 353 l 1629 235 l 1701 353 l 1701 192 l 1746 192 l 1746 429 l 1701 429 l 1629 318 z m 2011 192 b 1896 433 1972 269 1931 353 b 1778 192 1854 353 1815 269 l 1826 192 l 1846 235 l 1943 235 l 1963 192 l 2011 192 z m 2175 429 l 2131 429 l 2131 297 b 2096 224 2131 243 2125 224 b 2035 243 2068 224 2049 232 l 2035 200 b 2094 185 2057 192 2068 185 b 2175 292 2142 185 2175 201 z m 2222 192 l 2393 192 l 2393 235 l 2264 235 l 2264 288 l 2374 288 l 2374 333 l 2264 333 l 2264 389 l 2393 389 l 2393 429 l 2222 429 l 2222 192 z m 2604 396 b 2524 433 2582 419 2558 433 b 2436 368 2474 433 2436 404 b 2563 257 2436 289 2563 292 b 2506 226 2563 232 2524 226 b 2432 246 2478 226 2444 235 l 2432 201 b 2504 186 2454 193 2478 186 b 2606 261 2551 186 2606 208 b 2478 369 2606 326 2478 328 b 2515 392 2478 388 2501 392 b 2578 368 2554 392 2569 376 z m 2768 389 l 2839 389 l 2839 429 l 2650 429 l 2650 389 l 2724 389 l 2724 192 l 2768 192 l 2768 389 z m 2957 276 l 2957 192 l 2999 192 l 2999 276 l 3086 429 l 3040 429 l 2976 324 l 2921 429 l 2872 429 l 2957 276 z m 3160 254 l 3204 254 b 3308 343 3285 254 3308 300 b 3204 429 3308 389 3285 429 l 3117 429 l 3117 192 l 3160 192 l 3160 254 z m 3204 389 b 3260 343 3251 389 3260 364 b 3204 300 3260 319 3251 300 l 3160 300 l 3160 389 l 3204 389 z m 3351 192 l 3524 192 l 3524 235 l 3397 235 l 3397 288 l 3503 288 l 3503 333 l 3397 333 l 3397 389 l 3524 389 l 3524 429 l 3351 429 l 3351 192 z m 3568 192 l 3611 192 l 3611 235 l 3568 235 l 3568 192 z m 3772 433 b 3654 313 3706 433 3654 379 b 3853 204 3654 204 3772 167 l 3853 247 b 3694 313 3814 224 3694 219 b 3772 389 3694 353 3725 389 b 3821 368 3792 389 3814 379 l 3853 400 b 3772 433 3833 419 3803 433 z m 4010 433 b 3890 313 3943 433 3890 379 b 4010 192 3890 251 3933 192 b 4124 313 4085 192 4124 251 b 4010 433 4124 372 4085 433 z m 4010 389 b 4085 313 4054 389 4085 353 b 4010 231 4085 269 4054 231 b 3933 313 3963 231 3933 269 b 4010 389 3933 353 3963 389 z m 4288 318 l 4207 429 l 4167 429 l 4167 192 l 4207 192 l 4207 353 l 4288 235 l 4357 353 l 4357 192 l 4403 192 l 4403 429 l 4357 429 l 4288 318 z m 1867 276 l 1896 335 l 1924 276 z m 2971 561 b 3242 808 3151 561 3240 685 b 2971 1056 3240 932 3151 1056 b 2700 808 2790 1056 2701 932 b 2971 561 2701 685 2790 561 z m 2971 683 b 2835 808 2879 683 2836 746 b 2971 933 2836 872 2879 933 b 3108 808 3064 933 3107 872 b 2971 683 3107 746 3064 683 z "},"6":{"ha":4611,"x_min":0,"x_max":0,"o":"m 429 563 l 429 722 l 644 722 l 644 856 l 429 856 l 429 919 l 692 919 l 692 1049 l 296 1049 l 296 563 l 429 563 z m 1218 1049 l 1096 1049 l 1096 811 b 993 685 1096 753 1078 685 b 897 811 919 685 897 753 l 897 1049 l 772 1049 l 772 756 b 993 556 772 657 872 556 b 1218 756 1121 556 1218 657 l 1218 1049 z m 1313 563 l 1617 563 l 1617 692 l 1442 692 l 1442 1049 l 1313 1049 l 1313 563 z m 1708 563 l 2007 563 l 2007 692 l 1831 692 l 1831 1049 l 1708 1049 l 1708 563 z m 2382 563 l 2382 722 l 2597 722 l 2597 856 l 2382 856 l 2382 919 l 2644 919 l 2644 1049 l 2256 1049 l 2256 563 l 2382 563 z m 3682 1049 l 3682 765 l 3467 1049 l 3333 1049 l 3333 563 l 3467 563 l 3467 846 l 3682 563 l 3813 563 l 3813 1049 l 3682 1049 z m 4171 919 l 4315 919 l 4315 1049 l 3907 1049 l 3907 919 l 4042 919 l 4042 563 l 4171 563 l 4171 919 z m 251 288 l 357 288 l 357 192 l 403 192 l 403 429 l 357 429 l 357 333 l 251 333 l 251 429 l 208 429 l 208 192 l 251 192 l 251 288 z m 564 389 l 640 389 l 640 429 l 446 429 l 446 389 l 525 389 l 525 192 l 564 192 l 564 389 z m 801 389 l 878 389 l 878 429 l 683 429 l 683 389 l 763 389 l 763 192 l 801 192 l 801 389 z m 967 254 l 1011 254 b 1117 343 1092 254 1117 300 b 1011 429 1117 389 1092 429 l 921 429 l 921 192 l 967 192 l 967 254 z m 1011 389 b 1072 343 1058 389 1072 364 b 1011 300 1072 319 1058 300 l 967 300 l 967 389 l 1011 389 z m 1161 192 l 1204 192 l 1204 235 l 1161 235 l 1161 192 z m 1161 319 l 1204 319 l 1204 361 l 1161 361 l 1161 319 z m 1378 472 l 1343 472 l 1242 146 l 1275 146 l 1378 472 z m 1461 472 l 1424 472 l 1325 146 l 1357 146 l 1461 472 z m 1629 318 l 1553 429 l 1510 429 l 1510 192 l 1553 192 l 1553 353 l 1629 235 l 1701 353 l 1701 192 l 1746 192 l 1746 429 l 1701 429 l 1629 318 z m 2011 192 b 1896 433 1972 269 1931 353 b 1778 192 1854 353 1815 269 l 1826 192 l 1846 235 l 1943 235 l 1963 192 l 2011 192 z m 2175 429 l 2131 429 l 2131 297 b 2096 224 2131 243 2125 224 b 2035 243 2068 224 2049 232 l 2035 200 b 2094 185 2057 192 2068 185 b 2175 292 2142 185 2175 201 z m 2222 192 l 2393 192 l 2393 235 l 2264 235 l 2264 288 l 2374 288 l 2374 333 l 2264 333 l 2264 389 l 2393 389 l 2393 429 l 2222 429 l 2222 192 z m 2604 396 b 2524 433 2582 419 2558 433 b 2436 368 2474 433 2436 404 b 2563 257 2436 289 2563 292 b 2506 226 2563 232 2524 226 b 2432 246 2478 226 2444 235 l 2432 201 b 2504 186 2454 193 2478 186 b 2606 261 2551 186 2606 208 b 2478 369 2606 326 2478 328 b 2515 392 2478 388 2501 392 b 2578 368 2554 392 2569 376 z m 2768 389 l 2839 389 l 2839 429 l 2650 429 l 2650 389 l 2724 389 l 2724 192 l 2768 192 l 2768 389 z m 2957 276 l 2957 192 l 2999 192 l 2999 276 l 3086 429 l 3040 429 l 2976 324 l 2921 429 l 2872 429 l 2957 276 z m 3160 254 l 3204 254 b 3308 343 3285 254 3308 300 b 3204 429 3308 389 3285 429 l 3117 429 l 3117 192 l 3160 192 l 3160 254 z m 3204 389 b 3260 343 3251 389 3260 364 b 3204 300 3260 319 3251 300 l 3160 300 l 3160 389 l 3204 389 z m 3351 192 l 3524 192 l 3524 235 l 3397 235 l 3397 288 l 3503 288 l 3503 333 l 3397 333 l 3397 389 l 3524 389 l 3524 429 l 3351 429 l 3351 192 z m 3568 192 l 3611 192 l 3611 235 l 3568 235 l 3568 192 z m 3772 433 b 3654 313 3706 433 3654 379 b 3853 204 3654 204 3772 167 l 3853 247 b 3694 313 3814 224 3694 219 b 3772 389 3694 353 3725 389 b 3821 368 3792 389 3814 379 l 3853 400 b 3772 433 3833 419 3803 433 z m 4010 433 b 3890 313 3943 433 3890 379 b 4010 192 3890 251 3933 192 b 4124 313 4085 192 4124 251 b 4010 433 4124 372 4085 433 z m 4010 389 b 4085 313 4054 389 4085 353 b 4010 231 4085 269 4054 231 b 3933 313 3963 231 3933 269 b 4010 389 3933 353 3963 389 z m 4288 318 l 4207 429 l 4167 429 l 4167 192 l 4207 192 l 4207 353 l 4288 235 l 4357 353 l 4357 192 l 4403 192 l 4403 429 l 4357 429 l 4288 318 z m 1867 276 l 1896 335 l 1924 276 z m 2971 561 b 3242 808 3151 561 3240 685 b 2971 1056 3240 932 3151 1056 b 2700 808 2790 1056 2701 932 b 2971 561 2701 685 2790 561 z m 2971 683 b 2835 808 2879 683 2836 746 b 2971 933 2836 872 2879 933 b 3108 808 3064 933 3107 872 b 2971 683 3107 746 3064 683 z "},"7":{"ha":4611,"x_min":0,"x_max":0,"o":"m 429 563 l 429 722 l 644 722 l 644 856 l 429 856 l 429 919 l 692 919 l 692 1049 l 296 1049 l 296 563 l 429 563 z m 1218 1049 l 1096 1049 l 1096 811 b 993 685 1096 753 1078 685 b 897 811 919 685 897 753 l 897 1049 l 772 1049 l 772 756 b 993 556 772 657 872 556 b 1218 756 1121 556 1218 657 l 1218 1049 z m 1313 563 l 1617 563 l 1617 692 l 1442 692 l 1442 1049 l 1313 1049 l 1313 563 z m 1708 563 l 2007 563 l 2007 692 l 1831 692 l 1831 1049 l 1708 1049 l 1708 563 z m 2382 563 l 2382 722 l 2597 722 l 2597 856 l 2382 856 l 2382 919 l 2644 919 l 2644 1049 l 2256 1049 l 2256 563 l 2382 563 z m 3682 1049 l 3682 765 l 3467 1049 l 3333 1049 l 3333 563 l 3467 563 l 3467 846 l 3682 563 l 3813 563 l 3813 1049 l 3682 1049 z m 4171 919 l 4315 919 l 4315 1049 l 3907 1049 l 3907 919 l 4042 919 l 4042 563 l 4171 563 l 4171 919 z m 251 288 l 357 288 l 357 192 l 403 192 l 403 429 l 357 429 l 357 333 l 251 333 l 251 429 l 208 429 l 208 192 l 251 192 l 251 288 z m 564 389 l 640 389 l 640 429 l 446 429 l 446 389 l 525 389 l 525 192 l 564 192 l 564 389 z m 801 389 l 878 389 l 878 429 l 683 429 l 683 389 l 763 389 l 763 192 l 801 192 l 801 389 z m 967 254 l 1011 254 b 1117 343 1092 254 1117 300 b 1011 429 1117 389 1092 429 l 921 429 l 921 192 l 967 192 l 967 254 z m 1011 389 b 1072 343 1058 389 1072 364 b 1011 300 1072 319 1058 300 l 967 300 l 967 389 l 1011 389 z m 1161 192 l 1204 192 l 1204 235 l 1161 235 l 1161 192 z m 1161 319 l 1204 319 l 1204 361 l 1161 361 l 1161 319 z m 1378 472 l 1343 472 l 1242 146 l 1275 146 l 1378 472 z m 1461 472 l 1424 472 l 1325 146 l 1357 146 l 1461 472 z m 1629 318 l 1553 429 l 1510 429 l 1510 192 l 1553 192 l 1553 353 l 1629 235 l 1701 353 l 1701 192 l 1746 192 l 1746 429 l 1701 429 l 1629 318 z m 2011 192 b 1896 433 1972 269 1931 353 b 1778 192 1854 353 1815 269 l 1826 192 l 1846 235 l 1943 235 l 1963 192 l 2011 192 z m 2175 429 l 2131 429 l 2131 297 b 2096 224 2131 243 2125 224 b 2035 243 2068 224 2049 232 l 2035 200 b 2094 185 2057 192 2068 185 b 2175 292 2142 185 2175 201 z m 2222 192 l 2393 192 l 2393 235 l 2264 235 l 2264 288 l 2374 288 l 2374 333 l 2264 333 l 2264 389 l 2393 389 l 2393 429 l 2222 429 l 2222 192 z m 2604 396 b 2524 433 2582 419 2558 433 b 2436 368 2474 433 2436 404 b 2563 257 2436 289 2563 292 b 2506 226 2563 232 2524 226 b 2432 246 2478 226 2444 235 l 2432 201 b 2504 186 2454 193 2478 186 b 2606 261 2551 186 2606 208 b 2478 369 2606 326 2478 328 b 2515 392 2478 388 2501 392 b 2578 368 2554 392 2569 376 z m 2768 389 l 2839 389 l 2839 429 l 2650 429 l 2650 389 l 2724 389 l 2724 192 l 2768 192 l 2768 389 z m 2957 276 l 2957 192 l 2999 192 l 2999 276 l 3086 429 l 3040 429 l 2976 324 l 2921 429 l 2872 429 l 2957 276 z m 3160 254 l 3204 254 b 3308 343 3285 254 3308 300 b 3204 429 3308 389 3285 429 l 3117 429 l 3117 192 l 3160 192 l 3160 254 z m 3204 389 b 3260 343 3251 389 3260 364 b 3204 300 3260 319 3251 300 l 3160 300 l 3160 389 l 3204 389 z m 3351 192 l 3524 192 l 3524 235 l 3397 235 l 3397 288 l 3503 288 l 3503 333 l 3397 333 l 3397 389 l 3524 389 l 3524 429 l 3351 429 l 3351 192 z m 3568 192 l 3611 192 l 3611 235 l 3568 235 l 3568 192 z m 3772 433 b 3654 313 3706 433 3654 379 b 3853 204 3654 204 3772 167 l 3853 247 b 3694 313 3814 224 3694 219 b 3772 389 3694 353 3725 389 b 3821 368 3792 389 3814 379 l 3853 400 b 3772 433 3833 419 3803 433 z m 4010 433 b 3890 313 3943 433 3890 379 b 4010 192 3890 251 3933 192 b 4124 313 4085 192 4124 251 b 4010 433 4124 372 4085 433 z m 4010 389 b 4085 313 4054 389 4085 353 b 4010 231 4085 269 4054 231 b 3933 313 3963 231 3933 269 b 4010 389 3933 353 3963 389 z m 4288 318 l 4207 429 l 4167 429 l 4167 192 l 4207 192 l 4207 353 l 4288 235 l 4357 353 l 4357 192 l 4403 192 l 4403 429 l 4357 429 l 4288 318 z m 1867 276 l 1896 335 l 1924 276 z m 2971 561 b 3242 808 3151 561 3240 685 b 2971 1056 3240 932 3151 1056 b 2700 808 2790 1056 2701 932 b 2971 561 2701 685 2790 561 z m 2971 683 b 2835 808 2879 683 2836 746 b 2971 933 2836 872 2879 933 b 3108 808 3064 933 3107 872 b 2971 683 3107 746 3064 683 z "},"8":{"ha":4611,"x_min":0,"x_max":0,"o":"m 429 563 l 429 722 l 644 722 l 644 856 l 429 856 l 429 919 l 692 919 l 692 1049 l 296 1049 l 296 563 l 429 563 z m 1218 1049 l 1096 1049 l 1096 811 b 993 685 1096 753 1078 685 b 897 811 919 685 897 753 l 897 1049 l 772 1049 l 772 756 b 993 556 772 657 872 556 b 1218 756 1121 556 1218 657 l 1218 1049 z m 1313 563 l 1617 563 l 1617 692 l 1442 692 l 1442 1049 l 1313 1049 l 1313 563 z m 1708 563 l 2007 563 l 2007 692 l 1831 692 l 1831 1049 l 1708 1049 l 1708 563 z m 2382 563 l 2382 722 l 2597 722 l 2597 856 l 2382 856 l 2382 919 l 2644 919 l 2644 1049 l 2256 1049 l 2256 563 l 2382 563 z m 3682 1049 l 3682 765 l 3467 1049 l 3333 1049 l 3333 563 l 3467 563 l 3467 846 l 3682 563 l 3813 563 l 3813 1049 l 3682 1049 z m 4171 919 l 4315 919 l 4315 1049 l 3907 1049 l 3907 919 l 4042 919 l 4042 563 l 4171 563 l 4171 919 z m 251 288 l 357 288 l 357 192 l 403 192 l 403 429 l 357 429 l 357 333 l 251 333 l 251 429 l 208 429 l 208 192 l 251 192 l 251 288 z m 564 389 l 640 389 l 640 429 l 446 429 l 446 389 l 525 389 l 525 192 l 564 192 l 564 389 z m 801 389 l 878 389 l 878 429 l 683 429 l 683 389 l 763 389 l 763 192 l 801 192 l 801 389 z m 967 254 l 1011 254 b 1117 343 1092 254 1117 300 b 1011 429 1117 389 1092 429 l 921 429 l 921 192 l 967 192 l 967 254 z m 1011 389 b 1072 343 1058 389 1072 364 b 1011 300 1072 319 1058 300 l 967 300 l 967 389 l 1011 389 z m 1161 192 l 1204 192 l 1204 235 l 1161 235 l 1161 192 z m 1161 319 l 1204 319 l 1204 361 l 1161 361 l 1161 319 z m 1378 472 l 1343 472 l 1242 146 l 1275 146 l 1378 472 z m 1461 472 l 1424 472 l 1325 146 l 1357 146 l 1461 472 z m 1629 318 l 1553 429 l 1510 429 l 1510 192 l 1553 192 l 1553 353 l 1629 235 l 1701 353 l 1701 192 l 1746 192 l 1746 429 l 1701 429 l 1629 318 z m 2011 192 b 1896 433 1972 269 1931 353 b 1778 192 1854 353 1815 269 l 1826 192 l 1846 235 l 1943 235 l 1963 192 l 2011 192 z m 2175 429 l 2131 429 l 2131 297 b 2096 224 2131 243 2125 224 b 2035 243 2068 224 2049 232 l 2035 200 b 2094 185 2057 192 2068 185 b 2175 292 2142 185 2175 201 z m 2222 192 l 2393 192 l 2393 235 l 2264 235 l 2264 288 l 2374 288 l 2374 333 l 2264 333 l 2264 389 l 2393 389 l 2393 429 l 2222 429 l 2222 192 z m 2604 396 b 2524 433 2582 419 2558 433 b 2436 368 2474 433 2436 404 b 2563 257 2436 289 2563 292 b 2506 226 2563 232 2524 226 b 2432 246 2478 226 2444 235 l 2432 201 b 2504 186 2454 193 2478 186 b 2606 261 2551 186 2606 208 b 2478 369 2606 326 2478 328 b 2515 392 2478 388 2501 392 b 2578 368 2554 392 2569 376 z m 2768 389 l 2839 389 l 2839 429 l 2650 429 l 2650 389 l 2724 389 l 2724 192 l 2768 192 l 2768 389 z m 2957 276 l 2957 192 l 2999 192 l 2999 276 l 3086 429 l 3040 429 l 2976 324 l 2921 429 l 2872 429 l 2957 276 z m 3160 254 l 3204 254 b 3308 343 3285 254 3308 300 b 3204 429 3308 389 3285 429 l 3117 429 l 3117 192 l 3160 192 l 3160 254 z m 3204 389 b 3260 343 3251 389 3260 364 b 3204 300 3260 319 3251 300 l 3160 300 l 3160 389 l 3204 389 z m 3351 192 l 3524 192 l 3524 235 l 3397 235 l 3397 288 l 3503 288 l 3503 333 l 3397 333 l 3397 389 l 3524 389 l 3524 429 l 3351 429 l 3351 192 z m 3568 192 l 3611 192 l 3611 235 l 3568 235 l 3568 192 z m 3772 433 b 3654 313 3706 433 3654 379 b 3853 204 3654 204 3772 167 l 3853 247 b 3694 313 3814 224 3694 219 b 3772 389 3694 353 3725 389 b 3821 368 3792 389 3814 379 l 3853 400 b 3772 433 3833 419 3803 433 z m 4010 433 b 3890 313 3943 433 3890 379 b 4010 192 3890 251 3933 192 b 4124 313 4085 192 4124 251 b 4010 433 4124 372 4085 433 z m 4010 389 b 4085 313 4054 389 4085 353 b 4010 231 4085 269 4054 231 b 3933 313 3963 231 3933 269 b 4010 389 3933 353 3963 389 z m 4288 318 l 4207 429 l 4167 429 l 4167 192 l 4207 192 l 4207 353 l 4288 235 l 4357 353 l 4357 192 l 4403 192 l 4403 429 l 4357 429 l 4288 318 z m 1867 276 l 1896 335 l 1924 276 z m 2971 561 b 3242 808 3151 561 3240 685 b 2971 1056 3240 932 3151 1056 b 2700 808 2790 1056 2701 932 b 2971 561 2701 685 2790 561 z m 2971 683 b 2835 808 2879 683 2836 746 b 2971 933 2836 872 2879 933 b 3108 808 3064 933 3107 872 b 2971 683 3107 746 3064 683 z "},"9":{"ha":4611,"x_min":0,"x_max":0,"o":"m 429 563 l 429 722 l 644 722 l 644 856 l 429 856 l 429 919 l 692 919 l 692 1049 l 296 1049 l 296 563 l 429 563 z m 1218 1049 l 1096 1049 l 1096 811 b 993 685 1096 753 1078 685 b 897 811 919 685 897 753 l 897 1049 l 772 1049 l 772 756 b 993 556 772 657 872 556 b 1218 756 1121 556 1218 657 l 1218 1049 z m 1313 563 l 1617 563 l 1617 692 l 1442 692 l 1442 1049 l 1313 1049 l 1313 563 z m 1708 563 l 2007 563 l 2007 692 l 1831 692 l 1831 1049 l 1708 1049 l 1708 563 z m 2382 563 l 2382 722 l 2597 722 l 2597 856 l 2382 856 l 2382 919 l 2644 919 l 2644 1049 l 2256 1049 l 2256 563 l 2382 563 z m 3682 1049 l 3682 765 l 3467 1049 l 3333 1049 l 3333 563 l 3467 563 l 3467 846 l 3682 563 l 3813 563 l 3813 1049 l 3682 1049 z m 4171 919 l 4315 919 l 4315 1049 l 3907 1049 l 3907 919 l 4042 919 l 4042 563 l 4171 563 l 4171 919 z m 251 288 l 357 288 l 357 192 l 403 192 l 403 429 l 357 429 l 357 333 l 251 333 l 251 429 l 208 429 l 208 192 l 251 192 l 251 288 z m 564 389 l 640 389 l 640 429 l 446 429 l 446 389 l 525 389 l 525 192 l 564 192 l 564 389 z m 801 389 l 878 389 l 878 429 l 683 429 l 683 389 l 763 389 l 763 192 l 801 192 l 801 389 z m 967 254 l 1011 254 b 1117 343 1092 254 1117 300 b 1011 429 1117 389 1092 429 l 921 429 l 921 192 l 967 192 l 967 254 z m 1011 389 b 1072 343 1058 389 1072 364 b 1011 300 1072 319 1058 300 l 967 300 l 967 389 l 1011 389 z m 1161 192 l 1204 192 l 1204 235 l 1161 235 l 1161 192 z m 1161 319 l 1204 319 l 1204 361 l 1161 361 l 1161 319 z m 1378 472 l 1343 472 l 1242 146 l 1275 146 l 1378 472 z m 1461 472 l 1424 472 l 1325 146 l 1357 146 l 1461 472 z m 1629 318 l 1553 429 l 1510 429 l 1510 192 l 1553 192 l 1553 353 l 1629 235 l 1701 353 l 1701 192 l 1746 192 l 1746 429 l 1701 429 l 1629 318 z m 2011 192 b 1896 433 1972 269 1931 353 b 1778 192 1854 353 1815 269 l 1826 192 l 1846 235 l 1943 235 l 1963 192 l 2011 192 z m 2175 429 l 2131 429 l 2131 297 b 2096 224 2131 243 2125 224 b 2035 243 2068 224 2049 232 l 2035 200 b 2094 185 2057 192 2068 185 b 2175 292 2142 185 2175 201 z m 2222 192 l 2393 192 l 2393 235 l 2264 235 l 2264 288 l 2374 288 l 2374 333 l 2264 333 l 2264 389 l 2393 389 l 2393 429 l 2222 429 l 2222 192 z m 2604 396 b 2524 433 2582 419 2558 433 b 2436 368 2474 433 2436 404 b 2563 257 2436 289 2563 292 b 2506 226 2563 232 2524 226 b 2432 246 2478 226 2444 235 l 2432 201 b 2504 186 2454 193 2478 186 b 2606 261 2551 186 2606 208 b 2478 369 2606 326 2478 328 b 2515 392 2478 388 2501 392 b 2578 368 2554 392 2569 376 z m 2768 389 l 2839 389 l 2839 429 l 2650 429 l 2650 389 l 2724 389 l 2724 192 l 2768 192 l 2768 389 z m 2957 276 l 2957 192 l 2999 192 l 2999 276 l 3086 429 l 3040 429 l 2976 324 l 2921 429 l 2872 429 l 2957 276 z m 3160 254 l 3204 254 b 3308 343 3285 254 3308 300 b 3204 429 3308 389 3285 429 l 3117 429 l 3117 192 l 3160 192 l 3160 254 z m 3204 389 b 3260 343 3251 389 3260 364 b 3204 300 3260 319 3251 300 l 3160 300 l 3160 389 l 3204 389 z m 3351 192 l 3524 192 l 3524 235 l 3397 235 l 3397 288 l 3503 288 l 3503 333 l 3397 333 l 3397 389 l 3524 389 l 3524 429 l 3351 429 l 3351 192 z m 3568 192 l 3611 192 l 3611 235 l 3568 235 l 3568 192 z m 3772 433 b 3654 313 3706 433 3654 379 b 3853 204 3654 204 3772 167 l 3853 247 b 3694 313 3814 224 3694 219 b 3772 389 3694 353 3725 389 b 3821 368 3792 389 3814 379 l 3853 400 b 3772 433 3833 419 3803 433 z m 4010 433 b 3890 313 3943 433 3890 379 b 4010 192 3890 251 3933 192 b 4124 313 4085 192 4124 251 b 4010 433 4124 372 4085 433 z m 4010 389 b 4085 313 4054 389 4085 353 b 4010 231 4085 269 4054 231 b 3933 313 3963 231 3933 269 b 4010 389 3933 353 3963 389 z m 4288 318 l 4207 429 l 4167 429 l 4167 192 l 4207 192 l 4207 353 l 4288 235 l 4357 353 l 4357 192 l 4403 192 l 4403 429 l 4357 429 l 4288 318 z m 1867 276 l 1896 335 l 1924 276 z m 2971 561 b 3242 808 3151 561 3240 685 b 2971 1056 3240 932 3151 1056 b 2700 808 2790 1056 2701 932 b 2971 561 2701 685 2790 561 z m 2971 683 b 2835 808 2879 683 2836 746 b 2971 933 2836 872 2879 933 b 3108 808 3064 933 3107 872 b 2971 683 3107 746 3064 683 z "},"H":{"ha":478,"x_min":0,"x_max":0,"o":"m 56 732 b 71 588 68 689 71 640 b 61 411 71 528 65 463 b 56 308 58 378 56 333 b 50 -25 50 213 50 76 b 69 -44 50 -40 58 -44 b 139 -4 106 -44 119 -28 l 139 -6 b 156 14 144 0 149 7 b 157 21 157 15 157 19 b 142 253 147 71 142 157 b 157 674 142 301 146 674 b 246 689 186 674 217 681 b 317 704 268 694 296 703 b 325 -29 321 521 325 156 b 379 -81 325 -61 354 -81 b 417 -43 400 -81 417 -68 b 411 332 417 44 414 193 b 403 733 407 482 403 635 b 408 919 403 817 406 869 b 413 1100 411 971 413 1022 b 336 1151 404 1124 358 1151 b 318 1136 325 1151 318 1146 l 318 963 b 317 772 318 901 317 839 b 217 768 279 772 246 771 b 160 764 196 765 176 764 l 156 885 b 151 1065 153 946 151 1004 b 154 1175 151 1100 151 1136 b 125 1188 149 1183 138 1188 b 69 1158 103 1188 69 1176 b 63 956 69 1083 67 1019 b 56 735 58 889 56 819 z "},"I":{"ha":315,"x_min":0,"x_max":0,"o":"m 144 -47 b 172 -53 151 -50 161 -53 b 203 -43 188 -53 196 -49 b 215 -39 206 -42 211 -39 l 222 -39 b 293 -12 260 -37 293 -36 b 242 13 293 11 269 13 l 221 13 b 208 386 211 132 208 260 b 211 649 208 467 210 569 b 214 874 213 726 214 803 b 207 1108 214 961 214 1039 l 242 1108 b 269 1126 263 1108 269 1111 b 239 1158 269 1151 261 1158 b 196 1154 228 1158 214 1157 b 76 1142 168 1150 131 1144 b 64 1140 71 1140 67 1140 b 36 1118 46 1139 36 1138 b 75 1100 36 1103 42 1100 l 113 1100 l 108 951 l 108 942 b 107 929 108 938 107 933 l 107 906 b 108 883 107 897 108 890 l 108 860 b 111 765 108 828 110 796 b 113 682 113 736 113 707 l 115 501 b 125 14 119 372 124 156 b 58 -21 75 7 58 3 b 76 -56 58 -49 65 -56 b 93 -54 79 -56 86 -56 b 144 -47 104 -51 121 -49 z "},"J":{"ha":389,"x_min":0,"x_max":0,"o":"m 35 100 b 24 103 33 104 28 106 b -6 51 4 86 -6 68 b 139 -89 -6 11 82 -89 b 339 271 261 -89 339 178 b 329 600 339 329 335 457 b 315 1089 322 776 315 976 b 174 1119 315 1121 283 1119 l 110 1119 b 57 1101 79 1119 57 1117 b 82 1072 57 1090 64 1075 b 136 1067 101 1069 121 1068 b 214 1013 183 1063 210 1061 b 226 393 219 888 226 621 b 126 -25 226 331 225 -25 b 57 50 94 -25 72 14 z "},"K":{"ha":461,"x_min":0,"x_max":0,"o":"m 154 1118 b 89 1169 140 1151 111 1169 b 54 1144 72 1169 60 1160 b 33 597 36 1083 33 847 b 35 335 33 508 35 418 l 35 135 b 100 -40 35 28 44 -40 b 126 143 121 -40 126 39 b 122 379 126 210 125 303 b 118 558 121 447 118 513 b 119 622 118 593 118 613 b 335 32 204 453 288 183 l 335 33 b 379 -82 357 -39 374 -82 b 422 -37 404 -82 421 -65 l 406 35 b 169 728 364 213 274 594 b 503 1128 300 846 485 1063 b 500 1133 503 1129 501 1132 b 428 1167 482 1147 449 1167 b 401 1151 417 1167 407 1163 b 182 851 363 1068 251 935 b 136 797 165 831 147 811 b 136 860 138 833 136 836 b 154 1114 138 954 139 975 z "},"L":{"ha":415,"x_min":0,"x_max":0,"o":"m 46 1146 b 44 1010 46 1114 44 1044 b 43 621 44 885 43 749 b 44 383 43 535 43 454 b 47 233 47 333 47 283 b 126 -69 47 69 49 -69 b 160 -60 136 -69 147 -65 b 301 -7 201 -35 261 -18 b 374 28 340 4 374 11 b 326 49 374 39 350 44 b 157 26 288 49 204 38 b 147 243 151 64 150 168 b 143 329 146 278 144 317 l 140 388 b 139 463 139 413 139 436 b 149 694 139 536 143 617 b 158 926 153 772 158 851 b 133 1157 158 1011 154 1089 b 126 1163 132 1160 129 1163 b 119 1165 125 1163 124 1164 b 75 1181 107 1171 89 1181 b 46 1146 57 1181 46 1174 z "},"M":{"ha":719,"x_min":0,"x_max":0,"o":"m 349 185 b 453 675 383 269 419 485 b 519 1010 481 854 508 1010 l 519 982 b 518 938 519 976 518 951 b 515 703 517 888 515 799 b 528 344 515 504 522 417 b 536 117 532 285 536 228 b 533 -10 536 79 536 39 b 536 -15 533 -11 535 -14 l 551 -31 b 586 -56 563 -42 576 -56 b 633 -31 607 -56 632 -44 b 643 200 640 39 643 117 b 629 613 643 329 636 479 b 618 939 624 733 618 846 b 622 1021 618 967 621 999 b 625 1078 624 1042 625 1061 b 503 1150 625 1119 546 1150 b 475 1140 488 1150 481 1146 b 313 385 457 1122 396 854 b 290 533 304 435 300 461 b 168 1106 257 758 218 1040 b 132 1113 156 1110 146 1113 b 71 1086 110 1113 96 1103 l 72 1086 l 64 1081 b 60 1075 63 1079 60 1076 l 56 878 b 51 683 54 806 54 728 l 39 581 b -8 49 21 439 -8 194 b 82 -107 -8 -76 18 -107 b 117 -74 103 -107 117 -99 b 115 3 117 -50 115 -24 b 114 85 114 31 114 58 b 154 993 114 475 144 926 b 192 635 168 915 181 772 b 256 206 208 425 222 217 b 267 199 256 206 264 201 l 265 199 b 342 181 274 189 286 181 z "},"N":{"ha":557,"x_min":0,"x_max":0,"o":"m 33 1072 b 49 544 35 890 42 708 b 61 38 56 372 61 206 b 122 -29 61 13 96 -29 b 156 33 140 -29 156 -14 l 156 389 b 143 796 146 589 143 717 b 144 892 143 842 143 872 b 253 492 189 767 221 626 b 332 182 279 378 306 268 l 332 183 l 343 147 b 451 -49 360 96 421 -49 b 511 217 513 -49 511 115 l 511 240 l 503 497 b 499 590 503 525 500 557 b 496 657 497 614 496 638 l 492 764 b 481 1119 485 896 481 1024 b 457 1139 476 1133 469 1139 b 376 1040 429 1139 376 1078 b 383 1021 376 1032 379 1025 b 424 238 400 999 421 513 b 165 1006 356 449 229 833 l 158 1018 b 125 1094 139 1053 131 1079 l 125 1093 b 81 1118 118 1118 118 1118 b 33 1078 56 1118 36 1107 z "},"O":{"ha":486,"x_min":0,"x_max":0,"o":"m 101 993 b 38 401 49 821 38 586 l 38 297 b 193 -60 38 113 60 -60 b 271 -36 214 -60 260 -53 b 413 378 379 44 401 246 l 413 415 l 419 507 b 428 697 425 572 428 638 b 404 879 428 757 414 821 b 390 954 399 903 394 932 b 315 1149 388 1007 350 1129 l 310 1154 b 304 1158 308 1156 307 1158 b 292 1161 300 1158 294 1160 b 274 1164 286 1163 281 1164 b 247 1156 268 1164 256 1161 b 236 1150 240 1154 236 1150 l 215 1142 b 101 996 158 1111 135 1069 z m 258 1092 b 300 933 288 1092 300 1029 b 306 690 300 842 304 735 b 307 669 306 678 307 671 b 300 347 307 503 303 415 b 296 236 299 306 296 274 b 214 13 296 124 269 13 b 139 246 154 13 139 119 b 151 503 139 329 146 422 b 160 647 156 561 160 613 l 160 656 l 161 657 l 165 729 b 176 853 167 760 172 819 b 247 1083 183 914 211 1049 z "},"P":{"ha":393,"x_min":0,"x_max":0,"o":"m 133 443 l 144 465 b 360 896 296 597 360 761 b 183 1181 360 1057 278 1181 b 146 1175 171 1181 157 1179 l 147 1175 l 126 1167 b 96 1156 118 1163 104 1160 b 49 1110 65 1143 49 1138 b 54 1074 49 1100 50 1088 b 49 811 54 996 51 904 b 43 485 46 697 43 582 b 40 444 43 472 40 458 b -12 401 24 428 1 411 b -10 389 -18 397 -17 390 l 38 382 b 32 -28 32 249 32 118 b 42 -42 32 -39 36 -42 b 138 25 44 -42 132 -15 l 138 60 b 136 219 138 99 138 168 b 133 404 135 285 133 350 z m 138 649 l 138 925 l 163 1118 b 172 1125 163 1122 167 1125 b 250 919 226 1125 250 1046 b 147 583 250 814 224 685 l 146 588 b 138 649 143 607 138 626 z "},"Q":{"ha":467,"x_min":0,"x_max":0,"o":"m 58 733 b 57 725 58 731 57 729 b 56 711 56 721 56 715 l 46 625 b 42 504 42 593 42 544 b 58 229 42 425 47 294 b 182 -46 60 35 93 -46 b 267 -17 217 -46 242 -36 b 307 -108 274 -44 293 -108 b 372 -39 322 -108 372 -81 b 356 7 372 -24 368 -10 l 332 71 l 351 106 l 357 117 l 372 163 l 372 161 b 431 549 411 272 431 424 b 399 885 431 664 417 788 b 226 1158 381 965 313 1158 b 58 733 119 1158 67 835 z m 228 121 l 249 43 b 208 22 235 29 219 22 b 135 344 144 26 135 210 b 136 469 135 400 135 436 b 138 550 136 497 138 521 b 239 1042 138 671 149 906 l 246 1051 b 335 543 314 964 335 692 b 301 160 335 371 322 240 l 286 201 b 251 240 276 229 272 240 b 222 168 233 240 222 203 b 228 119 222 150 224 132 z "},"R":{"ha":426,"x_min":0,"x_max":0,"o":"m 25 1032 b 42 -28 38 388 42 178 b 64 -43 43 -39 54 -43 b 157 13 94 -43 154 -10 l 157 38 b 143 214 157 75 150 140 b 122 524 133 314 122 431 b 125 597 122 549 122 575 b 322 169 197 579 271 344 b 393 -29 351 74 374 -6 b 399 -32 394 -31 397 -32 b 453 15 426 -32 453 -12 b 208 629 453 96 326 514 b 396 901 332 696 396 815 b 232 1118 396 1001 319 1079 l 218 1124 l 156 1153 b 89 1169 143 1160 119 1169 b 83 1167 88 1169 85 1168 b 25 1032 57 1129 25 1088 z m 144 1047 b 314 899 222 1010 314 963 b 138 689 314 856 265 788 l 136 683 l 136 824 b 129 1054 133 899 129 979 z "},"S":{"ha":447,"x_min":0,"x_max":0,"o":"m 113 81 b 76 108 101 97 93 108 b 60 106 71 108 65 107 b 57 96 57 104 54 100 b 61 60 60 88 61 74 b 60 28 61 49 61 38 b 58 11 60 22 58 14 b 157 -37 72 -19 89 -37 b 415 235 324 -37 415 94 b 397 342 415 272 410 308 b 226 771 328 526 269 667 b 149 988 179 886 149 960 b 251 1106 149 1050 188 1106 b 371 1054 288 1106 326 1090 b 376 1053 372 1053 375 1053 b 401 1104 397 1057 401 1085 b 350 1143 401 1121 399 1143 b 229 1168 306 1161 265 1168 b 58 975 101 1168 58 1069 b 185 544 58 850 124 692 b 249 390 208 492 231 439 l 264 351 b 307 186 283 301 307 243 b 157 17 307 131 247 17 b 131 53 150 17 140 36 b 113 81 124 64 117 76 z "},"T":{"ha":494,"x_min":0,"x_max":0,"o":"m 178 933 l 178 863 b 176 700 176 808 176 757 l 176 643 b 175 636 176 640 175 639 l 175 538 b 171 293 175 458 172 368 b 168 44 169 211 168 131 b 250 -62 168 -14 188 -62 b 269 -46 260 -62 264 -60 l 269 10 b 272 268 269 89 271 178 b 275 535 274 360 275 451 l 275 663 b 276 665 275 664 276 664 b 278 675 278 667 278 672 l 278 819 b 279 904 278 842 278 872 b 282 1022 281 944 282 988 b 281 1072 282 1039 282 1060 b 279 1086 281 1078 279 1081 b 333 1100 297 1089 317 1094 b 428 1117 361 1108 392 1117 b 451 1144 446 1117 451 1129 b 400 1189 451 1179 428 1189 b 382 1172 394 1189 386 1179 l 382 1174 b 381 1167 381 1171 381 1167 l 368 1167 b 189 1150 306 1153 244 1150 b 132 1151 169 1150 150 1151 l 83 1151 b -14 1115 25 1151 -14 1146 b 42 1068 -14 1094 1 1068 b 181 1079 42 1068 125 1075 b 178 933 178 1024 178 961 z "},"V":{"ha":600,"x_min":0,"x_max":0,"o":"m 129 382 l 151 226 b 154 211 151 222 153 217 b 246 -43 164 139 192 -43 b 356 83 339 -43 344 6 l 360 113 l 365 154 b 615 1094 419 510 564 983 b 611 1103 617 1097 614 1101 b 576 1126 596 1111 586 1119 b 544 1142 563 1133 554 1142 b 308 257 522 1142 379 554 b 286 106 294 200 286 136 l 282 111 l 268 119 b 257 151 263 131 257 144 b 258 167 257 158 258 164 b 171 810 231 375 200 601 b 151 1008 160 896 154 960 b 83 1143 143 1118 140 1143 b 26 1103 53 1143 26 1126 l 26 1094 b 107 582 60 1031 86 788 b 129 382 115 507 122 436 z "},"W":{"ha":736,"x_min":0,"x_max":0,"o":"m 58 1111 b 94 597 71 961 83 775 b 131 103 107 407 119 222 l 142 13 b 233 -35 146 -8 201 -35 b 264 -11 253 -35 264 -26 b 369 808 264 193 332 642 b 372 701 372 761 372 739 b 488 -29 392 236 406 -29 b 539 11 510 -29 536 -14 b 669 839 561 251 619 575 l 717 1092 b 654 1150 717 1121 678 1139 b 639 1156 646 1154 639 1157 b 626 1154 636 1161 628 1161 b 486 214 601 1024 511 508 b 454 763 461 383 461 571 b 433 1015 449 904 446 1010 l 435 1015 l 417 1028 b 351 1063 397 1042 371 1063 b 218 285 326 1063 242 628 b 172 803 182 468 179 640 b 107 1142 164 1000 157 1142 b 58 1111 81 1142 58 1129 z "},"X":{"ha":528,"x_min":0,"x_max":0,"o":"m 163 1094 b 111 1129 156 1119 133 1129 b 26 1068 92 1129 26 1097 b 81 918 40 1050 58 993 b 193 586 107 835 143 717 l 118 357 b 17 -3 68 206 26 76 b 56 -49 17 -21 28 -43 b 100 -4 92 -49 97 -24 b 219 369 122 104 174 247 b 256 465 232 400 243 433 b 426 -10 333 321 407 124 b 504 -62 431 -32 481 -62 b 521 -53 513 -62 518 -60 b 332 538 492 196 407 376 b 306 601 321 560 315 579 b 536 1132 406 863 503 1071 b 474 1186 529 1158 497 1186 b 415 1076 446 1186 428 1115 b 408 1054 414 1069 410 1061 l 382 1000 b 249 700 344 922 292 807 b 163 1094 217 781 190 939 z "},"Y":{"ha":490,"x_min":0,"x_max":0,"o":"m -4 1135 b 201 378 1 1135 164 561 b 194 79 197 294 193 171 b 197 47 196 67 197 57 b 201 -6 199 26 201 3 b 289 -61 207 -39 271 -61 b 296 -56 293 -61 296 -60 l 297 7 l 297 26 b 299 117 296 54 299 96 l 299 201 b 301 258 300 218 301 242 b 299 326 301 279 300 306 b 299 346 300 333 299 339 l 299 369 b 361 671 313 471 336 571 l 413 874 b 460 1035 418 919 440 982 b 486 1113 469 1063 481 1092 b 446 1171 485 1151 468 1171 b 253 561 400 1171 296 771 b 179 813 224 664 203 729 b 99 1115 135 960 100 1068 b 51 1167 96 1154 74 1167 b -4 1149 33 1167 10 1156 z "},"Z":{"ha":518,"x_min":0,"x_max":0,"o":"m 147 413 b 35 40 113 288 76 165 b 240 -35 35 -26 99 -35 b 460 28 376 -35 460 19 b 218 58 460 44 401 58 b 168 54 221 57 183 56 b 125 51 153 53 138 51 b 496 1076 147 243 382 854 b 447 1122 496 1115 476 1122 b 104 1136 419 1122 104 1131 b 90 1136 104 1144 90 1144 b 89 1110 90 1128 90 1118 b 88 1092 89 1103 88 1096 b 107 1067 88 1075 92 1067 b 142 1072 115 1067 129 1069 b 229 1082 165 1076 196 1082 b 367 1067 267 1082 313 1078 b 147 413 265 840 204 624 z "},"a":{"ha":458,"x_min":0,"x_max":0,"o":"m 99 144 b 115 353 99 186 108 281 b 122 418 117 374 121 397 b 244 449 168 435 213 449 b 299 400 271 449 294 435 b 314 124 308 299 314 189 b 313 92 314 111 313 101 l 313 74 b 389 -19 313 53 371 -19 b 417 64 407 -19 417 22 b 414 110 417 82 415 97 b 379 493 389 251 383 372 b 367 715 376 565 374 638 l 350 881 l 342 942 b 340 950 342 946 340 947 b 339 964 340 956 340 960 l 339 963 b 254 1140 329 1008 299 1140 b 181 1101 222 1140 188 1129 l 125 829 b -28 -29 54 479 -28 85 b 38 -107 -28 -81 22 -107 b 99 144 50 -107 93 -50 z m 271 656 l 271 657 l 275 604 b 279 558 276 590 278 561 b 138 494 276 514 200 494 b 131 499 132 494 131 496 b 179 729 131 532 153 625 b 232 949 197 801 217 881 z "},"b":{"ha":476,"x_min":0,"x_max":0,"o":"m 449 246 b 217 601 449 422 343 528 b 360 846 290 657 360 750 b 135 1132 360 965 271 1132 l 119 1132 b 17 1085 38 1132 17 1132 b 22 1028 17 1069 19 1053 b 39 858 28 989 36 935 l 39 847 b 46 596 43 771 46 661 l 46 582 b 47 575 46 578 46 576 l 51 447 l 51 421 b 50 386 51 410 50 399 b 58 313 50 361 51 333 l 69 3 b 143 -71 86 -43 117 -71 b 153 -68 146 -71 150 -69 b 449 246 290 -47 449 83 z m 157 201 l 146 519 b 356 265 247 478 356 376 b 163 -1 356 169 256 36 b 160 115 163 39 161 75 b 157 201 158 150 157 179 z m 247 896 b 140 613 247 821 197 672 b 113 1061 132 767 121 907 b 156 1067 129 1064 144 1067 b 247 896 228 1067 247 1001 z "},"c":{"ha":461,"x_min":0,"x_max":0,"o":"m 410 -3 b 399 3 410 3 404 7 b 363 -10 386 -6 375 -10 b 125 625 243 -10 125 386 b 249 1089 125 793 151 1089 b 349 963 278 1089 336 999 b 383 950 356 956 369 950 b 403 985 399 950 403 965 b 244 1156 403 1125 299 1156 b 54 881 153 1156 78 1000 b 33 626 38 803 33 711 b 101 126 33 476 64 271 b 335 -74 124 57 282 -74 b 406 -44 361 -74 386 -61 b 408 -39 407 -43 408 -40 z "},"d":{"ha":475,"x_min":0,"x_max":0,"o":"m 17 125 b 14 83 14 111 14 97 b 15 21 14 63 14 36 b 17 -17 15 7 17 -6 b 57 -39 17 -39 26 -39 b 76 -35 60 -39 67 -39 b 424 700 332 135 424 399 b 168 1168 424 906 369 1121 b 35 1097 135 1168 35 1135 b 69 815 61 1025 69 926 b 35 326 69 663 50 472 b 17 125 26 247 19 176 z m 322 550 b 119 78 306 381 239 163 b 140 274 129 138 135 203 b 143 318 140 286 143 307 b 147 515 147 379 147 449 b 144 735 147 589 146 663 b 143 919 144 800 143 864 b 149 1088 143 988 144 1046 b 325 667 297 974 325 819 b 322 550 325 628 324 589 z "},"e":{"ha":453,"x_min":0,"x_max":0,"o":"m 353 1138 l 319 1138 b 79 1090 232 1138 97 1136 b 38 722 50 983 38 850 b 43 607 38 697 39 642 b 33 583 39 599 33 589 b 44 557 33 576 38 564 b 68 238 50 449 58 326 l 68 239 b 258 -62 78 129 108 -62 b 442 21 296 -62 442 -33 b 431 36 442 35 439 36 b 419 35 431 36 424 35 b 397 28 413 32 403 28 b 365 21 392 28 378 25 b 249 1 333 13 278 1 b 172 243 190 1 179 143 l 169 292 b 154 489 161 347 158 419 l 151 563 l 325 593 l 344 596 b 376 617 363 597 376 599 b 318 646 376 639 353 646 b 211 636 288 646 247 640 b 143 629 183 632 158 629 b 142 722 142 664 142 694 b 133 849 142 764 138 807 b 126 961 129 888 126 926 b 135 1039 126 988 131 1015 b 260 1058 139 1047 199 1053 b 404 1092 331 1064 404 1069 b 353 1138 404 1104 393 1136 z "},"f":{"ha":390,"x_min":0,"x_max":0,"o":"m -7 1125 b -15 1113 -15 1125 -15 1122 b -12 1090 -15 1107 -14 1099 b -3 1040 -8 1076 -3 1057 b 14 1024 -3 1031 4 1028 l 14 1025 b 22 1021 18 1024 22 1021 b 28 832 22 975 25 899 b 35 625 31 757 35 683 b -6 607 18 610 6 608 l -22 601 b -26 596 -24 600 -26 599 b 1 533 -26 596 -24 543 b 28 536 15 533 21 533 l 26 536 l 39 540 b 50 407 46 503 50 453 b 46 265 50 361 49 313 b 42 154 44 225 42 186 b 43 107 42 139 42 118 l 56 -68 b 101 -104 61 -93 82 -104 b 131 -82 111 -104 122 -93 b 143 -69 136 -75 142 -69 b 150 -62 147 -69 150 -67 l 140 231 b 128 551 133 315 129 451 b 367 590 153 576 317 590 b 376 589 372 590 376 589 b 386 594 381 588 386 590 b 338 638 386 613 369 631 b 238 635 310 636 272 635 b 125 632 197 635 158 635 b 126 763 125 679 125 715 b 129 933 128 814 129 868 b 133 1031 129 971 129 1007 b 317 1083 139 1067 251 1076 l 338 1086 b 351 1088 344 1088 347 1088 b 371 1110 368 1088 371 1088 b 374 1131 371 1119 372 1126 b 375 1138 374 1132 375 1136 b 363 1146 375 1146 375 1146 b -7 1125 276 1135 114 1128 z "},"g":{"ha":489,"x_min":0,"x_max":0,"o":"m 372 1015 b 394 1065 390 1028 394 1047 b 256 1165 394 1131 290 1165 b 22 367 85 1165 29 707 b 208 -54 22 121 97 -54 b 215 -53 208 -54 211 -53 b 336 -4 238 -50 310 -42 b 400 336 376 63 390 206 b 417 503 404 396 410 453 b 418 549 418 518 418 532 b 215 719 418 651 413 711 b 200 690 204 719 200 707 b 219 653 200 675 208 658 b 342 535 342 615 342 586 b 215 11 342 360 258 11 b 122 335 167 11 122 225 b 267 1104 122 390 164 1104 b 363 1017 294 1104 335 1057 z "},"h":{"ha":514,"x_min":0,"x_max":0,"o":"m 324 1168 b 326 1064 324 1142 325 1104 b 331 901 328 1011 331 956 b 315 735 331 833 328 769 b 192 703 308 719 238 703 b 153 714 169 703 153 706 b 154 719 153 715 154 718 b 142 886 150 760 142 822 l 139 1150 b 108 1167 136 1163 125 1167 b 39 1118 72 1167 39 1147 b 38 1063 39 1101 39 1082 b 35 1001 36 1040 35 1018 b 43 972 35 988 40 979 b 47 956 44 968 47 964 b 50 801 47 906 49 853 b 53 665 51 754 53 708 b 39 133 51 490 50 311 l 33 11 b 119 -15 36 -4 96 -15 b 138 -12 129 -15 135 -15 b 139 -7 139 -11 139 -8 b 143 243 139 67 142 163 b 147 575 146 357 147 471 b 160 626 147 594 150 621 l 199 638 b 289 658 231 647 265 658 b 328 621 311 658 328 649 b 329 296 328 539 328 397 b 331 -1 329 185 331 79 b 410 -78 331 -26 392 -78 b 426 54 426 -78 426 1 b 425 214 426 103 426 172 b 424 272 425 240 424 261 b 429 426 424 331 426 376 b 435 682 431 490 435 563 b 432 883 435 743 433 814 b 431 1072 431 950 431 1015 l 431 1149 b 331 1175 425 1167 336 1175 z "},"i":{"ha":253,"x_min":0,"x_max":0,"o":"m 167 1113 b 118 1160 144 1146 133 1160 b 60 25 68 1160 60 313 b 90 -18 60 11 69 -6 b 143 -26 103 -22 126 -26 b 182 550 172 -26 182 249 b 168 1108 182 740 181 944 z "},"j":{"ha":415,"x_min":0,"x_max":0,"o":"m 171 1092 b 242 336 186 1097 242 656 b 168 21 242 160 224 21 b 42 71 97 21 60 38 b 29 69 39 76 32 75 l 13 31 b 14 22 11 28 13 24 b 182 -35 50 -14 94 -35 b 353 393 310 -35 353 158 b 269 1057 353 619 314 883 l 254 1121 b 232 1149 247 1143 243 1149 b 208 1136 225 1149 217 1144 b 167 1106 197 1125 185 1111 z "},"k":{"ha":525,"x_min":0,"x_max":0,"o":"m 140 869 b 156 1092 147 957 156 1044 b 114 1160 156 1121 140 1160 b 47 1086 89 1160 47 1110 b 42 440 47 904 44 647 b 38 -11 39 261 38 99 b 67 -87 38 -33 49 -74 b 74 -89 68 -89 72 -90 b 132 28 106 -74 122 -10 l 139 164 b 138 174 139 167 138 169 b 132 314 136 192 132 229 b 131 367 132 319 132 343 b 124 560 128 419 125 501 b 358 138 257 336 317 217 b 460 22 401 54 421 22 b 499 35 471 22 485 26 b 500 44 504 36 504 42 b 465 140 497 47 481 82 b 174 617 433 265 240 544 b 417 978 239 731 340 874 b 518 1129 475 1057 518 1114 b 486 1146 518 1133 507 1146 b 125 665 424 1146 331 1054 b 140 869 126 719 133 794 z "},"l":{"ha":456,"x_min":0,"x_max":0,"o":"m 33 1054 b 35 900 35 1004 35 951 l 35 742 b 33 579 35 688 33 633 b 79 -3 33 376 39 174 b 190 -36 107 -28 147 -36 b 396 4 264 -36 342 -14 l 421 13 l 419 13 b 456 50 446 21 456 35 b 440 75 456 67 450 75 b 415 64 436 75 425 69 b 274 40 385 50 325 40 b 165 57 228 40 183 46 b 140 493 146 190 140 343 b 144 775 140 589 142 683 b 149 1008 146 858 149 938 b 147 1111 149 1044 149 1078 b 139 1118 147 1115 143 1119 l 119 1114 b 33 1054 81 1107 33 1099 z "},"m":{"ha":794,"x_min":0,"x_max":0,"o":"m 350 233 b 363 224 350 233 357 228 b 406 201 374 215 396 201 b 557 824 443 201 506 554 b 599 1050 574 919 586 996 b 588 475 593 878 588 699 b 646 -47 588 269 601 -47 b 682 -29 654 -47 667 -39 l 708 -11 b 711 -6 710 -10 711 -7 b 696 706 711 188 703 467 b 686 1118 690 883 686 1039 b 688 1156 686 1133 688 1146 l 688 1168 b 646 1197 688 1182 671 1197 b 585 1178 631 1197 606 1190 b 381 385 561 1153 429 694 b 218 1131 354 656 268 1117 b 203 1136 207 1133 207 1135 b 117 1153 188 1143 169 1153 b 110 1146 113 1153 110 1150 b 96 1026 110 1139 104 1092 b 43 446 78 865 43 583 l 43 356 b 68 -97 43 192 44 -97 b 156 -19 89 -97 150 -46 b 151 232 156 58 153 149 b 149 443 150 308 149 382 b 181 1021 149 526 163 871 b 254 642 203 942 228 792 b 349 233 288 446 325 240 z "},"n":{"ha":568,"x_min":0,"x_max":0,"o":"m 53 1149 b 51 1018 51 1131 51 1050 b 57 736 51 942 54 835 b 61 521 60 651 61 572 l 61 475 b 47 217 61 386 54 300 b 36 -6 40 139 36 64 b 108 -67 36 -35 83 -67 b 142 167 142 -67 142 142 b 140 378 142 233 140 306 b 139 614 139 454 139 533 b 140 942 139 657 139 942 b 385 108 158 942 385 231 b 450 49 385 88 399 49 b 478 69 461 49 472 54 b 476 182 478 107 476 146 b 474 374 475 247 474 311 b 493 707 474 479 476 588 b 501 796 494 733 497 763 b 522 1075 508 857 518 940 l 472 1176 b 460 1176 469 1182 463 1182 b 421 949 435 1126 425 1007 b 419 938 421 943 419 940 b 375 451 404 811 383 617 b 153 1140 328 682 238 954 b 115 1172 142 1158 128 1172 b 56 1154 97 1172 74 1164 z "},"o":{"ha":519,"x_min":0,"x_max":0,"o":"m 383 992 b 210 1142 343 1082 290 1142 b 14 486 78 1142 14 806 b 219 -24 14 297 24 54 b 281 -35 239 -32 261 -35 b 464 413 419 -35 464 176 b 383 992 464 650 421 908 z m 188 1033 b 224 1083 199 1061 215 1083 b 332 842 257 1083 310 932 b 365 283 353 672 365 460 b 254 35 365 225 349 35 b 208 49 236 35 221 39 l 194 57 l 196 57 b 133 281 140 97 138 201 l 132 313 l 129 349 b 125 451 126 382 125 417 b 188 1031 125 601 142 926 z "},"p":{"ha":490,"x_min":0,"x_max":0,"o":"m 133 342 l 133 365 b 453 701 364 449 449 624 b 306 1068 449 796 400 976 b 78 1135 265 1106 160 1135 b 38 1113 60 1135 38 1133 b 46 1051 38 1097 42 1076 b 58 947 51 1017 58 976 b 43 436 54 778 47 606 l 33 429 l 35 429 b 13 400 24 421 13 410 b 33 375 13 390 24 382 l 32 375 b 38 372 32 374 36 372 l 33 -10 b 110 -93 33 -35 83 -93 b 131 196 128 -93 129 60 b 133 342 131 250 132 303 z m 286 532 b 136 465 257 503 208 482 b 135 561 133 496 135 522 b 154 1071 135 721 142 936 b 176 1074 164 1072 174 1074 b 333 744 289 1074 333 899 b 286 533 333 651 315 564 z "},"q":{"ha":565,"x_min":0,"x_max":0,"o":"m 256 -139 b 265 -142 261 -142 263 -142 b 356 -74 288 -142 350 -119 b 340 3 351 -44 347 -21 b 507 451 428 44 476 138 b 508 503 508 467 508 485 b 449 906 508 625 474 800 b 211 1174 415 1036 374 1174 b 172 1144 193 1169 176 1156 l 174 1146 b 33 686 75 1011 33 861 b 71 239 33 599 44 372 l 76 218 b 254 -24 97 126 143 -14 b 254 -57 256 -37 254 -43 b 251 -133 254 -92 253 -119 z m 239 71 b 168 242 189 138 181 174 l 165 254 b 129 618 142 372 129 510 b 226 1072 129 736 138 1018 l 247 1082 b 378 508 368 1057 378 669 b 321 93 378 318 353 169 b 319 133 319 106 319 121 b 264 260 318 183 317 236 b 254 254 260 261 256 258 b 251 206 251 240 251 222 b 254 160 251 192 253 174 b 256 132 254 150 256 142 l 256 49 b 239 71 251 53 242 63 z "},"r":{"ha":510,"x_min":0,"x_max":0,"o":"m 163 467 b 503 -100 178 451 238 365 b 511 -122 506 -104 508 -114 b 535 -158 515 -140 518 -158 b 550 -135 547 -158 550 -154 b 467 126 550 -54 517 21 b 368 353 440 186 406 258 b 283 469 356 382 319 429 l 242 521 b 454 836 389 617 454 726 b 326 1090 454 925 408 1011 b 136 1164 300 1117 197 1164 b 44 1033 96 1164 44 1067 b 47 1021 44 1033 46 1026 b 72 681 54 997 72 931 b 71 544 72 640 72 594 l 61 538 l 63 538 b 40 510 51 529 40 519 b 63 485 40 497 53 490 l 61 485 b 67 481 61 483 65 482 b 69 71 67 343 69 207 l 54 -8 b 132 -93 54 -35 100 -93 b 157 290 149 -93 151 104 z m 285 638 b 165 575 254 607 236 590 b 164 750 164 631 164 685 b 176 1093 164 865 165 986 b 196 1096 185 1096 193 1096 b 340 811 300 1025 340 910 b 285 636 340 736 318 669 z "},"s":{"ha":457,"x_min":0,"x_max":0,"o":"m 29 -68 b 64 -89 29 -76 58 -89 b 357 104 174 -72 321 17 b 378 206 369 138 378 174 b 256 488 378 311 317 396 b 125 796 190 581 125 678 b 258 1047 125 888 175 1047 b 383 903 324 1047 385 903 b 383 889 375 903 375 889 l 393 889 b 418 915 404 889 410 890 b 244 1150 404 1007 317 1150 b 210 1139 231 1150 219 1146 b 36 785 61 1029 36 907 b 131 483 36 682 67 579 l 183 408 b 288 215 239 332 288 263 b 57 -33 288 126 150 -8 b 29 -68 51 -35 29 -56 z "},"t":{"ha":508,"x_min":0,"x_max":0,"o":"m 33 994 l 54 994 b 126 1000 76 994 106 994 l 207 1014 b 208 978 208 1007 208 993 b 201 765 208 932 206 856 b 190 324 196 633 190 468 b 249 -43 190 122 203 -43 b 286 43 267 -43 286 11 b 293 318 286 140 290 236 b 299 569 296 400 299 482 b 297 696 299 604 299 657 b 294 860 296 747 294 801 b 300 1039 294 917 294 978 b 551 1100 375 1042 551 1060 b 529 1117 551 1114 543 1115 b 508 1121 525 1118 518 1118 l 50 1089 b 15 1019 15 1086 15 1051 b 33 994 15 1008 21 1000 z "},"u":{"ha":539,"x_min":0,"x_max":0,"o":"m 39 879 b 49 863 39 868 43 867 b 56 856 51 858 56 856 l 56 799 b 79 194 56 593 56 379 b 271 -24 93 97 178 -24 b 442 128 357 -24 415 -18 b 468 636 464 254 468 461 l 468 844 b 472 958 468 869 471 918 b 476 1107 475 1010 476 1065 b 451 1174 476 1146 475 1174 b 374 1110 426 1174 374 1144 b 365 893 374 1050 371 974 b 353 638 360 806 353 715 b 356 490 353 600 354 539 b 358 307 357 429 358 365 b 269 35 358 63 310 35 b 160 521 193 35 160 217 b 164 844 160 629 161 742 b 167 1064 164 928 167 1004 b 88 1131 167 1107 164 1131 b 72 1115 79 1131 72 1128 z "},"v":{"ha":608,"x_min":0,"x_max":0,"o":"m 24 1064 b 271 -17 24 988 160 43 b 307 -29 288 -26 297 -29 b 336 0 325 -29 328 -18 b 339 7 336 1 338 6 l 339 6 b 556 953 494 376 532 728 b 582 1144 564 1035 572 1100 b 575 1151 583 1147 579 1151 b 446 1100 531 1151 446 1125 b 449 1058 446 1089 447 1076 b 453 949 450 1029 453 993 b 422 618 453 863 446 746 b 275 133 388 415 332 233 b 118 1088 196 338 118 936 b 90 1163 118 1117 107 1163 b 79 1158 83 1163 81 1160 b 24 1064 47 1126 24 1090 z "},"w":{"ha":765,"x_min":0,"x_max":0,"o":"m 338 890 b 168 38 338 694 221 38 b 125 246 126 38 125 111 b 129 510 125 331 128 431 b 132 629 131 561 132 606 b 136 700 132 639 133 664 b 149 1003 142 779 149 906 b 118 1144 149 1088 143 1144 b 46 1031 56 1138 46 1085 b 47 1003 46 1021 47 1011 l 47 975 l 43 854 b 32 382 38 707 32 572 b 47 176 32 310 36 236 b 181 -46 57 128 99 -46 b 188 -43 181 -46 182 -46 l 188 -44 b 267 17 201 -39 247 -22 b 356 476 300 94 331 301 b 375 603 361 518 368 561 b 507 26 397 390 439 26 b 539 19 507 26 526 22 b 574 14 550 17 563 14 b 671 229 633 14 656 129 b 690 583 678 276 690 394 b 686 738 690 631 689 689 b 682 878 685 788 682 835 l 672 1100 b 646 1142 669 1133 663 1142 b 601 1060 628 1142 601 1088 l 590 875 l 593 778 b 599 589 596 714 599 651 l 599 503 b 547 97 599 429 579 214 l 546 96 b 479 525 518 111 497 319 b 403 938 460 735 440 938 b 339 894 389 938 369 926 z "},"x":{"ha":592,"x_min":0,"x_max":0,"o":"m 554 -6 b 578 -15 565 -12 572 -15 b 596 8 590 -15 596 -6 b 499 254 596 56 565 122 b 326 618 456 342 400 457 b 501 1101 400 817 465 1001 b 503 1114 501 1107 503 1111 b 486 1146 503 1125 499 1136 b 433 1156 471 1151 449 1156 b 265 781 417 1156 339 993 l 261 765 b 125 1119 204 897 153 1028 b 79 1147 119 1133 104 1144 b 46 1156 71 1146 58 1150 b 13 1165 35 1160 26 1165 b 3 1149 7 1165 3 1163 b 218 651 3 1065 106 847 b 189 568 208 624 200 596 b -24 -76 111 349 22 88 b 10 -128 -12 -111 -1 -128 b 283 503 46 -128 160 171 b 551 -4 356 329 439 139 z "},"y":{"ha":517,"x_min":0,"x_max":0,"o":"m 221 6 b 276 -32 239 -3 276 -21 b 283 -37 276 -35 279 -37 b 318 -14 292 -37 315 -17 b 319 -8 319 -12 319 -10 b 317 446 319 118 317 318 b 417 886 339 596 379 764 l 417 885 l 481 1024 l 488 1053 l 494 1078 l 499 1092 b 501 1106 499 1097 500 1101 b 506 1126 503 1110 506 1113 b 431 1147 501 1142 451 1147 b 399 1135 418 1147 406 1142 b 256 592 382 1089 299 772 l 188 906 b 53 1194 164 988 68 1194 b 10 1139 19 1194 10 1164 b 139 729 29 1053 88 878 b 226 464 176 615 213 515 l 199 21 b 221 6 199 14 210 10 z "},"z":{"ha":497,"x_min":0,"x_max":0,"o":"m 124 1032 b 157 1036 129 1032 142 1033 b 314 1051 193 1042 257 1051 b 344 1029 344 1051 346 1043 l 344 1019 b 154 403 344 878 238 613 b 35 46 92 247 35 106 b 179 -22 35 -10 111 -22 b 379 -14 233 -22 319 -18 b 421 -11 396 -12 410 -11 b 476 75 453 -10 476 28 b 458 89 476 83 467 89 b 168 43 410 67 240 43 l 151 43 b 219 271 151 49 183 153 b 440 1061 304 557 440 1008 b 106 1128 440 1122 217 1128 b 63 1111 82 1128 63 1125 b 117 1032 63 1088 94 1035 z "},"!":{"ha":200,"x_min":0,"x_max":0,"o":"m 129 249 b 169 967 156 471 169 742 b 143 1188 169 1097 154 1188 b 99 1179 129 1188 108 1183 b 68 1143 78 1169 69 1154 b 53 507 63 1006 53 724 b 83 204 53 336 60 204 b 128 246 94 204 107 218 z m 38 40 b 100 -42 38 -3 74 -42 b 154 58 143 -42 154 18 b 75 126 154 103 138 126 b 38 42 54 126 43 69 z "},"\"":{"ha":401,"x_min":0,"x_max":0,"o":"m 279 1222 b 256 1179 278 1221 256 1186 b 257 1126 257 1160 257 1144 b 225 864 257 1088 251 1026 b 272 813 225 835 254 813 b 286 825 279 813 286 815 b 304 897 286 842 296 869 b 361 1164 321 951 347 1036 b 286 1224 361 1193 296 1224 z m 75 1217 l 74 1215 l 74 1214 b 71 1194 71 1208 71 1199 b 76 1156 72 1182 74 1169 b 88 1040 82 1129 88 1094 b 69 844 88 996 83 932 b 86 822 69 829 76 822 b 133 858 104 822 133 850 b 146 932 133 876 140 903 b 186 1181 157 982 172 1056 b 111 1225 186 1222 151 1225 b 75 1217 94 1225 82 1221 z "},"'":{"ha":231,"x_min":0,"x_max":0,"o":"m 74 1214 b 71 1194 71 1208 71 1199 b 76 1156 72 1182 74 1169 b 88 1040 82 1129 88 1094 b 69 844 88 996 83 932 b 86 822 69 829 76 822 b 132 858 104 822 132 850 b 144 932 132 876 139 903 b 186 1181 156 982 172 1056 b 111 1225 186 1222 150 1225 b 75 1217 94 1225 82 1221 l 74 1215 z "},"(":{"ha":361,"x_min":0,"x_max":0,"o":"m 300 1236 b 94 851 211 1200 108 901 b 65 556 75 771 65 656 b 128 44 65 368 89 179 b 279 -114 171 -101 228 -114 b 310 -92 293 -114 310 -112 b 296 -71 310 -83 306 -74 b 239 14 271 -65 247 -12 b 142 571 186 185 142 382 b 344 1150 142 776 194 979 b 347 1171 344 1154 347 1165 b 353 1208 350 1186 353 1197 b 322 1238 353 1231 344 1238 b 303 1236 315 1238 310 1238 z "},")":{"ha":283,"x_min":0,"x_max":0,"o":"m 43 1208 b 186 613 99 1092 186 788 b 38 -90 186 381 113 -18 b 29 -111 32 -96 29 -103 b 74 -151 29 -129 49 -151 b 246 639 213 -151 246 436 b 153 1217 246 843 222 1033 b 107 1247 146 1233 125 1247 b 43 1211 86 1247 44 1242 z "},"*":{"ha":689,"x_min":0,"x_max":0,"o":"m 538 956 b 472 892 503 942 481 907 l 467 888 b 467 879 465 886 465 882 l 467 878 b 390 811 467 874 457 864 l 404 1011 b 333 1029 401 1022 360 1029 b 308 1019 319 1029 308 1029 l 308 990 b 314 901 308 963 311 935 l 321 826 l 225 907 b 211 908 221 908 217 908 b 183 847 193 908 185 860 b 286 756 183 828 242 785 l 301 744 l 258 711 b 122 610 221 682 175 649 b 119 603 121 608 119 606 b 124 563 122 586 124 572 b 140 531 124 542 124 531 b 324 664 181 531 288 631 b 306 393 321 593 314 506 b 308 388 306 392 307 389 b 336 369 319 381 329 375 b 361 356 347 363 356 356 b 388 419 378 356 381 372 b 385 681 386 501 385 608 l 422 654 b 536 583 471 615 510 583 b 567 603 553 583 567 590 b 457 710 567 615 517 657 b 424 740 446 718 435 731 l 604 874 b 607 879 606 875 607 878 b 608 883 607 881 608 882 b 543 956 608 903 556 956 z "},"+":{"ha":750,"x_min":0,"x_max":0,"o":"m 150 469 b 310 475 192 469 250 472 l 314 475 b 292 97 311 385 306 269 b 294 92 292 96 293 93 l 332 65 b 360 50 342 60 350 50 b 390 136 376 50 381 71 b 389 272 390 178 390 233 b 386 465 388 340 386 406 l 386 478 b 467 479 417 479 439 479 b 668 529 585 481 668 481 b 644 549 668 540 660 549 b 549 551 619 549 590 550 b 390 557 506 553 453 556 l 411 856 b 325 879 407 869 357 879 b 293 851 299 879 293 868 b 301 739 293 804 297 772 b 314 558 307 696 314 646 b 111 561 253 560 190 561 b 93 539 103 560 93 549 b 101 519 93 535 96 528 b 132 482 119 501 128 490 b 149 469 135 475 136 471 z "},",":{"ha":269,"x_min":0,"x_max":0,"o":"m 101 88 b 33 -121 99 -17 60 -82 b 25 -144 28 -132 25 -140 b 50 -167 25 -158 36 -167 b 71 -160 58 -167 65 -165 l 69 -160 b 200 56 161 -87 179 -19 b 196 65 200 68 199 63 b 150 117 183 75 167 92 b 140 118 149 117 146 118 b 101 88 124 118 101 94 z "},"-":{"ha":731,"x_min":0,"x_max":0,"o":"m 165 469 b 364 478 222 471 293 475 b 581 485 449 482 531 485 b 635 529 614 485 635 511 b 611 549 635 540 626 549 b 513 551 588 549 550 550 b 126 561 435 556 321 561 b 108 539 117 558 108 549 b 117 519 108 535 111 528 b 142 488 133 501 139 493 b 164 469 147 476 151 471 z "},".":{"ha":244,"x_min":0,"x_max":0,"o":"m 51 35 b 50 11 50 26 50 18 b 81 -37 50 -19 58 -37 b 183 71 164 -37 183 -10 b 122 118 183 118 158 118 b 51 35 108 118 57 63 z "},"/":{"ha":503,"x_min":0,"x_max":0,"o":"m 399 1165 b 128 349 356 969 228 622 b -6 -37 63 172 7 25 b 51 -115 -4 -61 33 -115 b 99 -83 71 -115 88 -104 b 500 1117 189 278 364 760 b 501 1133 500 1119 501 1129 b 503 1161 503 1142 503 1154 b 481 1193 503 1179 499 1193 b 399 1165 467 1193 403 1183 z "},"<":{"ha":631,"x_min":0,"x_max":0,"o":"m 607 1181 b 585 1188 601 1186 594 1188 b 504 1153 556 1188 511 1167 b 71 551 415 964 153 643 l 71 553 l 69 553 b 54 521 63 543 54 532 b 60 503 54 514 54 508 b 72 508 64 499 72 501 b 374 65 72 510 297 186 l 374 67 b 403 -15 382 53 394 14 b 422 -58 408 -37 414 -58 b 546 -11 451 -58 546 -37 b 476 106 546 13 494 81 l 475 108 l 475 107 l 351 276 b 175 524 269 388 186 500 b 617 1128 190 600 558 1061 b 618 1132 618 1129 618 1131 z "},"=":{"ha":685,"x_min":0,"x_max":0,"o":"m 119 635 b 349 642 175 635 267 639 b 571 647 438 644 524 647 b 601 675 593 647 601 660 b 454 724 601 715 569 724 b 349 722 425 724 390 722 b 132 721 292 721 218 721 b 110 681 111 713 110 697 b 111 651 110 671 111 658 b 113 642 111 647 113 646 z m 132 289 b 347 297 193 290 271 293 b 538 303 421 300 493 303 b 588 346 568 303 588 328 b 568 367 588 358 582 367 b 485 371 544 367 515 369 b 97 381 410 375 297 381 b 78 358 88 378 78 368 b 85 340 78 351 79 346 l 85 342 b 111 304 103 322 108 311 b 131 289 117 294 119 290 z "},"?":{"ha":535,"x_min":0,"x_max":0,"o":"m 169 858 b 163 906 164 868 163 886 b 272 1136 163 996 211 1136 b 374 957 349 1136 374 1050 b 333 728 374 871 351 772 b 263 568 311 671 286 618 b 160 258 207 450 160 349 b 199 149 160 232 171 149 b 231 179 213 149 231 163 b 225 204 231 179 226 194 b 222 228 224 210 222 218 b 331 494 222 299 276 397 b 426 676 360 546 410 636 b 476 940 444 726 476 835 b 272 1181 476 1063 433 1181 b 76 978 164 1181 76 1088 b 144 808 76 913 139 808 b 171 854 154 808 161 821 z m 204 -65 b 265 3 229 -65 265 -22 b 224 74 265 32 226 74 b 144 29 196 74 144 58 b 204 -65 144 13 169 -65 z "},"@":{"ha":1044,"x_min":0,"x_max":0,"o":"m 863 396 b 954 746 924 521 954 640 b 644 1167 954 943 851 1101 b 607 1168 633 1168 622 1168 b 83 351 313 1168 83 707 b 433 -25 83 203 132 38 b 514 -32 457 -31 488 -32 b 811 92 625 -32 744 10 b 792 140 811 106 796 140 b 472 40 706 68 561 40 b 408 49 440 40 418 44 b 389 57 403 50 394 56 l 390 57 b 201 361 250 114 201 203 b 206 453 201 390 203 418 b 207 465 206 456 207 463 b 568 1074 226 640 297 1074 b 861 682 819 1074 861 886 b 708 369 861 549 761 369 b 692 406 697 369 692 383 b 706 508 692 429 699 467 b 724 668 714 558 724 617 b 571 821 724 765 690 821 b 351 500 421 821 351 594 b 614 228 351 358 458 228 b 863 394 665 228 843 361 z m 549 297 b 454 483 482 297 454 404 b 540 721 454 575 486 675 b 604 764 569 744 593 764 b 615 665 615 764 615 733 b 629 321 615 560 621 419 l 626 321 b 549 297 601 311 568 297 z "},">":{"ha":740,"x_min":0,"x_max":0,"o":"m 60 -21 b 68 -26 61 -25 64 -28 b 471 393 199 6 353 225 b 607 571 524 467 576 540 l 614 575 b 626 604 618 579 626 592 b 624 619 626 611 625 615 b 549 706 613 629 593 643 b 383 950 499 772 436 871 b 297 1081 351 1000 322 1044 b 182 1165 272 1114 185 1165 b 92 1136 147 1165 92 1165 b 122 1088 92 1125 104 1107 l 122 1089 b 521 611 235 974 499 660 b 53 32 503 533 118 96 b 50 25 51 31 50 26 z "},"_":{"ha":668,"x_min":0,"x_max":0,"o":"m 42 -81 b 301 -75 94 -81 204 -78 b 588 -68 421 -72 540 -68 b 619 -46 611 -68 619 -58 b 561 -8 619 -15 589 -8 l 493 -8 b 399 -10 464 -8 435 -10 b 54 6 311 -10 199 -7 b 29 -35 35 -3 29 -18 b 32 -60 29 -44 31 -53 b 35 -74 33 -65 35 -71 z "},"A":{"ha":419,"x_min":0,"x_max":0,"o":"m 282 -3 b 325 -32 285 -26 306 -32 b 379 83 372 -32 379 22 b 364 489 379 200 368 432 l 367 500 b 371 528 368 507 371 515 b 364 544 371 533 368 540 b 335 764 357 640 347 694 b 314 890 328 799 321 839 b 296 1042 306 947 300 999 b 251 1193 288 1133 281 1193 b 160 1126 228 1193 164 1156 b 89 656 142 976 115 814 b 0 -62 43 378 0 111 b 78 -111 0 -87 49 -111 b 92 -110 83 -111 88 -111 b 96 -103 94 -108 96 -106 l 140 461 l 261 475 b 282 -1 261 372 276 85 z m 258 543 b 146 535 219 539 183 538 b 215 1040 165 799 200 971 b 249 679 235 907 240 807 z "},"B":{"ha":458,"x_min":0,"x_max":0,"o":"m 35 1118 b 46 556 35 942 40 750 b 54 4 51 365 54 175 b 111 -42 54 -22 81 -42 b 153 -28 122 -42 140 -35 l 182 -17 b 413 243 321 10 413 133 b 219 735 413 399 333 658 b 329 892 299 754 329 819 b 135 1164 329 1014 236 1164 l 128 1164 b 117 1163 125 1164 121 1163 l 104 1163 b 69 1154 90 1158 78 1156 b 35 1118 40 1149 35 1146 z m 315 257 b 151 39 315 169 254 110 b 154 224 151 88 153 146 b 157 528 156 321 157 432 b 156 669 157 579 157 632 b 315 257 246 604 315 358 z m 138 942 b 126 1113 132 992 129 1026 b 239 914 192 1096 239 997 b 150 799 239 853 211 801 b 138 942 146 864 142 906 z "},"C":{"ha":449,"x_min":0,"x_max":0,"o":"m 406 1024 b 243 1139 372 1106 311 1139 b 94 1011 169 1139 113 1075 l 79 961 b 31 432 31 793 31 617 b 249 -7 31 219 53 -7 b 393 175 340 -7 390 124 b 386 201 389 182 388 193 b 371 225 383 217 381 225 b 353 207 363 225 361 219 b 351 204 353 206 353 206 b 239 85 318 144 257 85 b 124 607 179 85 124 401 b 263 1081 124 774 161 1081 b 344 996 301 1081 326 1032 b 381 949 358 969 368 949 b 407 992 403 949 407 969 b 406 1010 407 997 406 1004 z "},"D":{"ha":467,"x_min":0,"x_max":0,"o":"m 38 1097 l 43 1043 b 54 708 53 932 54 819 b 47 336 54 583 51 458 b 39 -14 43 217 39 100 b 92 -60 39 -29 64 -60 b 171 -11 110 -58 143 -39 l 186 6 l 201 18 l 210 26 l 208 26 b 296 117 239 51 278 83 b 414 635 369 247 414 449 b 133 1165 414 797 301 1165 b 35 1121 108 1165 35 1140 b 38 1101 35 1113 36 1106 z m 165 513 b 167 618 165 549 165 583 b 168 708 167 650 168 679 b 147 986 168 806 164 900 l 142 1010 b 140 1058 140 1018 140 1040 l 140 1081 b 331 681 238 1024 331 851 b 289 379 331 629 311 474 l 267 299 b 131 40 249 238 183 99 b 139 128 131 60 133 89 b 165 513 149 207 165 328 z "},"E":{"ha":435,"x_min":0,"x_max":0,"o":"m 103 -54 b 286 -33 179 -50 236 -40 b 371 -24 321 -28 350 -25 b 418 22 401 -22 418 3 b 397 40 418 36 411 40 b 358 35 388 40 374 38 b 264 24 333 29 300 24 b 164 40 233 24 199 28 l 158 186 b 143 628 151 339 143 540 b 146 660 143 638 143 650 l 325 667 b 374 713 357 668 374 690 b 333 733 374 733 360 733 l 328 733 b 238 742 301 733 269 738 b 157 750 207 746 181 750 l 157 785 b 165 892 157 826 161 857 b 179 1042 171 926 176 972 b 396 1057 206 1044 346 1057 b 407 1061 401 1057 406 1057 b 419 1063 408 1054 419 1054 b 311 1140 419 1124 421 1140 b 179 1136 281 1140 232 1139 l 86 1132 b 79 1128 83 1132 79 1129 b 63 814 67 1071 63 954 b 68 438 63 697 65 564 b 74 124 71 322 74 211 b 71 26 74 92 72 53 b 68 -26 69 6 68 -11 b 93 -54 68 -39 71 -50 z "},"F":{"ha":443,"x_min":0,"x_max":0,"o":"m 53 704 b 58 483 57 624 58 550 b 43 124 58 329 50 213 b 35 -15 39 67 35 22 b 61 -32 35 -32 46 -32 b 149 13 93 -32 139 -29 l 147 328 b 146 406 147 344 147 379 b 142 560 144 450 142 506 b 161 675 142 608 143 675 b 254 682 194 675 224 678 b 347 690 285 686 314 690 b 393 735 376 690 393 715 b 204 754 393 739 290 754 b 169 751 190 754 179 753 l 147 749 b 146 794 147 764 146 772 b 142 1047 144 871 142 974 b 339 1049 253 1047 306 1049 l 365 1049 b 368 1050 365 1049 367 1049 b 376 1047 368 1047 372 1046 b 408 1100 407 1054 408 1081 b 303 1143 408 1126 343 1143 b 132 1124 231 1132 174 1128 b 35 1094 64 1117 35 1113 b 46 1060 35 1083 39 1068 b 58 972 47 1026 51 993 l 58 967 b 65 888 63 939 65 911 b 58 788 65 854 61 818 b 53 704 56 761 53 731 z "},"{":{"ha":347,"x_min":0,"x_max":0,"o":"m 303 1188 l 308 1203 l 308 1201 b 314 1226 311 1210 314 1218 b 296 1242 314 1236 310 1242 b 138 951 140 1242 139 1107 b 33 585 136 819 135 672 b 14 547 21 571 14 558 b 33 528 14 536 22 529 b 108 347 104 514 108 471 b 101 219 108 306 104 263 b 96 94 99 178 96 135 b 228 -154 96 -26 119 -119 b 289 -110 257 -154 289 -137 b 272 -99 289 -101 282 -100 b 188 36 249 -94 188 -82 b 196 138 188 61 192 97 b 208 299 201 186 208 242 b 97 567 208 407 190 511 b 239 1022 228 694 233 886 b 283 1185 242 1118 244 1185 l 289 1185 b 296 1183 290 1185 293 1183 z "},"}":{"ha":347,"x_min":0,"x_max":0,"o":"m 36 -99 l 31 -114 b 26 -137 29 -121 26 -129 b 43 -153 26 -147 29 -153 b 203 136 200 -153 201 -19 b 304 504 204 268 206 417 b 326 540 318 518 326 532 b 306 561 326 551 317 560 b 232 742 236 575 232 618 b 239 869 232 782 236 826 b 244 994 242 911 244 954 b 113 1243 244 1115 221 1208 b 50 1199 83 1243 50 1226 b 65 1188 50 1194 54 1189 b 150 1053 90 1183 150 1171 b 142 951 150 1029 146 992 b 129 789 136 901 129 847 b 243 522 129 681 147 578 b 101 65 111 394 106 203 b 56 -96 99 -28 94 -96 b 46 -94 53 -96 50 -96 z "},"|":{"ha":272,"x_min":0,"x_max":0,"o":"m 99 1222 b 94 1158 96 1214 94 1176 b 99 1015 94 1113 97 1068 b 104 731 101 943 104 857 b 75 -60 104 560 99 317 b 76 -64 75 -60 75 -62 b 110 -100 93 -81 104 -93 b 139 -126 122 -115 128 -126 b 172 439 172 -126 172 215 l 172 492 b 171 522 172 503 171 513 l 171 546 b 172 558 171 550 172 554 l 172 569 l 203 1199 b 125 1235 197 1218 151 1235 b 99 1222 111 1235 100 1229 z "},":":{"ha":310,"x_min":0,"x_max":0,"o":"m 83 113 b 82 89 82 104 82 96 b 111 42 82 60 89 42 b 215 150 196 42 215 68 b 154 196 215 196 189 196 b 83 113 139 196 88 142 z m 231 758 b 232 783 232 768 232 776 b 206 817 232 808 226 817 b 108 725 133 817 108 783 b 179 667 108 679 144 667 b 231 758 194 667 225 729 z "},"":{"ha":751,"x_min":0,"x_max":0,"o":"m 92 757 b 240 768 142 760 192 765 b 264 611 246 718 254 667 b 301 235 282 500 301 363 b 161 -126 301 82 299 -126 b 93 -93 139 -126 115 -117 b 82 -87 90 -90 88 -87 b 54 -139 68 -87 54 -119 b 185 -182 54 -172 163 -182 b 413 142 340 -182 413 -83 b 382 583 413 290 396 443 b 364 775 375 650 368 714 l 472 781 b 658 813 581 785 658 789 b 411 842 658 843 531 842 l 360 842 b 358 868 360 854 358 858 b 356 928 357 889 356 908 b 461 1083 356 1006 358 1083 b 593 1018 517 1083 592 1064 b 610 996 593 1004 597 996 b 650 1051 626 996 650 1026 b 635 1079 650 1064 644 1074 b 454 1146 554 1129 497 1146 b 411 1140 438 1146 424 1144 b 233 872 275 1096 233 1001 b 233 839 233 863 232 850 l 224 839 b 60 806 168 838 60 835 b 86 760 60 792 74 776 z "},"":{"ha":653,"x_min":0,"x_max":0,"o":"m 3 67 b 0 57 0 61 0 60 b 61 -42 0 26 40 -42 b 67 -39 63 -42 65 -40 b 172 75 67 -39 147 75 b 310 21 219 75 265 50 b 457 -39 356 -10 404 -39 b 649 94 521 -39 582 -6 l 649 104 b 650 126 649 111 650 119 l 650 142 b 629 167 650 157 647 167 b 603 160 617 167 607 164 b 576 107 592 142 582 119 b 518 57 558 71 549 57 b 226 132 436 57 281 113 l 225 132 b 272 356 261 188 272 268 b 256 571 272 426 264 504 l 256 578 b 482 608 344 596 428 603 b 558 625 528 613 558 615 b 500 674 558 638 529 674 b 389 665 464 668 428 667 b 340 664 374 665 353 665 l 250 660 b 249 757 249 690 249 718 b 408 1113 249 913 265 1113 b 515 950 410 1113 469 1022 b 546 936 522 943 535 936 b 567 968 556 936 567 944 b 389 1171 567 1006 560 1171 b 157 897 188 1171 157 1015 b 160 822 157 867 158 844 b 163 757 161 801 163 781 b 158 654 163 729 161 697 b 60 632 125 639 85 635 b 18 608 36 631 18 625 b 61 563 18 590 36 569 b 160 569 86 565 133 569 b 163 472 161 542 163 514 b 122 143 163 361 151 218 b 3 68 79 138 39 115 z "},"":{"ha":974,"x_min":0,"x_max":0,"o":"m 258 418 l 258 382 b 257 349 257 376 257 357 b 140 211 215 289 172 244 l 140 213 b 96 154 113 185 96 169 b 140 110 96 139 96 117 b 147 111 142 110 146 110 b 171 139 150 114 158 122 b 269 235 196 171 236 218 b 469 107 306 133 447 107 b 661 218 561 107 622 156 b 768 125 679 192 736 125 b 797 150 788 125 790 132 l 800 158 l 781 190 b 704 303 754 232 731 269 b 743 582 732 382 743 486 b 731 739 743 636 742 703 b 815 838 761 779 789 808 b 882 915 839 865 861 889 b 821 997 882 940 865 997 b 814 993 818 997 815 994 b 733 876 796 953 765 913 b 688 819 717 856 701 839 b 454 942 649 890 567 942 b 346 888 411 942 375 922 l 339 900 l 339 899 b 258 1001 301 969 285 1001 b 179 964 224 1001 179 986 b 185 950 179 958 181 954 l 185 951 b 265 840 206 915 240 872 b 299 797 279 822 292 808 b 258 418 258 672 258 493 z m 494 868 b 622 547 592 868 622 681 b 572 224 622 408 596 269 l 572 225 b 449 174 531 175 472 174 b 349 375 350 174 349 335 b 439 842 349 464 400 736 b 494 868 467 863 483 868 z m 701 308 l 701 307 b 699 311 700 308 699 310 z "},"":{"ha":676,"x_min":0,"x_max":0,"o":"m 188 767 b 347 631 210 722 282 672 b 449 547 401 594 449 563 b 160 322 449 524 336 417 b 149 290 151 317 149 304 b 178 229 149 264 160 229 b 568 515 189 229 568 497 b 560 556 568 526 568 544 b 289 803 413 658 333 751 b 239 849 265 831 250 849 b 185 779 232 849 185 810 b 189 767 185 775 186 771 z "},"":{"ha":1186,"x_min":0,"x_max":0,"o":"m 950 1013 b 618 1171 874 1096 744 1171 b 104 397 357 1171 104 749 b 482 -35 104 175 199 17 b 610 -49 529 -43 569 -49 b 972 176 799 -49 897 56 b 1094 600 1051 306 1094 464 b 950 1013 1094 758 1046 906 z m 644 1111 b 979 610 869 1111 979 865 b 567 25 979 324 842 25 b 433 47 526 25 481 32 b 222 328 278 78 222 188 b 440 968 222 525 343 799 b 644 1111 479 1025 613 1111 z m 792 338 b 785 338 789 339 786 339 b 707 303 767 321 736 303 b 485 536 610 303 485 378 b 657 850 485 596 536 850 b 736 794 682 850 713 819 b 778 767 753 778 767 767 b 801 801 797 767 801 772 b 779 872 801 828 792 864 b 685 893 746 888 718 893 b 397 567 504 893 418 679 b 389 478 392 538 389 506 b 663 235 389 318 479 235 b 715 238 679 235 697 236 b 810 297 749 240 789 278 b 821 310 818 306 824 311 b 821 321 826 313 826 318 z "},"[":{"ha":357,"x_min":0,"x_max":0,"o":"m 90 1176 b 88 1138 88 1168 88 1151 b 83 818 88 1022 86 924 b 78 392 81 696 78 565 b 85 -100 78 261 78 92 b 147 -140 88 -133 111 -140 b 314 -112 161 -140 257 -135 b 318 -107 315 -111 318 -108 b 296 -79 319 -93 308 -79 b 267 -82 288 -81 278 -82 b 183 -69 231 -82 190 -76 b 167 321 169 11 167 175 b 169 565 167 417 169 510 b 171 596 169 578 171 588 l 189 1078 b 188 1104 188 1089 188 1096 b 303 1160 188 1158 256 1160 b 360 1178 335 1160 360 1163 b 329 1204 360 1193 346 1204 b 296 1203 319 1204 307 1204 b 258 1200 285 1201 271 1200 b 143 1204 225 1200 188 1201 b 90 1176 113 1204 92 1204 z "},"]":{"ha":414,"x_min":0,"x_max":0,"o":"m 299 -104 b 301 -65 301 -96 301 -79 b 306 253 301 42 304 154 b 310 679 308 375 310 506 b 306 1054 310 779 308 917 b 304 1171 306 1092 304 1129 b 200 1215 301 1217 265 1215 b 69 1182 174 1215 69 1190 b 144 1157 69 1160 107 1160 b 206 1144 174 1154 204 1151 b 224 753 218 1064 224 899 b 219 510 224 654 221 565 b 218 478 219 497 218 486 l 200 -1 b 201 -28 201 -12 201 -21 b 111 -79 201 -74 154 -79 b 88 -78 103 -79 94 -78 l 67 -78 b 29 -94 44 -78 29 -82 b 67 -122 29 -112 47 -122 b 106 -119 78 -121 92 -119 b 165 -124 122 -119 143 -121 b 264 -131 194 -126 226 -131 b 299 -103 283 -131 294 -125 z "},"^":{"ha":943,"x_min":0,"x_max":0,"o":"m 629 821 b 729 672 668 738 699 672 b 767 757 765 672 767 753 b 621 1021 763 794 690 908 l 540 1150 l 540 1149 b 504 1172 532 1165 518 1172 b 463 1156 488 1172 467 1171 l 463 1157 b 290 907 440 1100 358 993 b 171 738 231 832 176 764 b 176 729 171 733 174 729 b 193 704 176 726 183 715 b 222 675 204 689 215 675 b 385 904 254 675 321 796 b 488 1067 429 985 474 1058 b 629 821 543 1000 590 901 z "},"U":{"ha":531,"x_min":0,"x_max":0,"o":"m 481 911 b 482 915 481 913 482 914 b 483 928 483 919 483 924 b 450 1100 483 983 472 1064 l 450 1099 b 411 1107 446 1104 428 1107 b 358 1088 383 1107 358 1103 l 358 961 b 356 857 358 907 357 881 b 354 806 354 840 354 826 l 354 729 b 353 715 354 726 353 719 b 351 696 351 711 351 703 l 351 676 b 204 68 307 371 244 68 b 121 338 146 68 121 185 b 156 778 121 476 140 644 b 174 985 165 868 174 942 b 157 1111 174 1025 172 1078 b 99 1126 153 1118 124 1126 b 60 1106 76 1126 60 1119 b 56 1022 60 1079 58 1050 b 51 943 54 996 51 968 b 43 596 51 817 47 700 b 38 361 40 510 38 431 b 246 -31 38 114 72 -31 b 349 260 304 -31 324 96 l 367 378 b 368 350 368 368 368 358 l 372 304 b 386 176 372 286 379 238 b 411 -32 396 86 411 -21 l 481 -54 b 489 -47 485 -56 489 -53 b 475 181 488 -24 482 85 b 463 367 469 268 463 349 l 454 521 b 451 667 451 569 451 619 l 451 697 b 453 729 451 707 453 718 b 454 824 453 753 454 799 b 481 908 461 851 469 882 z "},"":{"ha":647,"x_min":0,"x_max":0,"o":"m 494 1104 b 290 1213 411 1203 325 1213 b 108 946 213 1213 108 1125 b 297 719 108 849 190 719 b 531 1001 400 719 531 874 b 494 1104 531 1038 521 1074 z m 247 1133 b 306 1146 258 1142 289 1146 b 431 1013 410 1146 431 1067 b 317 786 431 938 379 786 b 213 968 232 786 213 938 b 247 1133 213 1024 214 1106 z "},"":{"ha":850,"x_min":0,"x_max":0,"o":"m 132 765 b 375 569 211 722 326 654 b 150 333 250 414 163 333 b 143 326 147 333 143 329 b 189 292 142 310 161 292 b 343 411 225 292 289 356 l 343 410 l 368 435 l 397 467 b 457 513 404 474 444 513 b 694 308 476 513 625 385 l 694 310 b 708 303 697 303 701 303 b 742 346 722 303 742 326 b 551 558 742 379 643 474 b 539 582 543 565 539 574 b 560 632 539 597 550 618 b 722 797 608 679 674 749 b 733 822 728 804 733 815 b 672 889 733 843 692 889 b 578 792 653 889 619 846 b 460 651 546 751 504 697 l 460 653 b 456 650 458 651 457 650 b 396 700 439 650 408 685 b 203 849 272 811 218 849 b 126 772 167 849 126 790 z "},"`":{"ha":625,"x_min":0,"x_max":0,"o":"m 215 1368 b 428 1261 311 1333 389 1288 b 469 1240 450 1249 463 1240 b 494 1261 486 1244 494 1246 b 339 1407 494 1286 414 1349 b 285 1449 319 1421 301 1435 b 278 1450 283 1450 279 1450 b 192 1407 274 1449 192 1458 b 211 1369 192 1390 203 1374 z "},"":{"ha":625,"x_min":0,"x_max":0,"o":"m 489 1403 b 444 1465 486 1425 453 1465 l 388 1451 b 229 1314 319 1383 265 1342 b 182 1264 200 1289 182 1278 b 201 1221 182 1247 186 1221 b 210 1222 204 1221 207 1221 b 218 1228 214 1222 214 1224 l 217 1228 b 483 1394 250 1251 414 1372 z "},"":{"ha":735,"x_min":0,"x_max":0,"o":"m 544 1214 b 604 1264 561 1214 604 1235 b 460 1494 604 1282 572 1336 b 417 1504 454 1497 431 1504 b 401 1497 408 1504 404 1500 b 375 1481 397 1493 393 1486 b 281 1367 336 1432 304 1393 b 213 1269 226 1299 213 1281 b 258 1215 213 1249 238 1215 b 303 1275 263 1215 282 1243 b 403 1422 335 1325 376 1390 b 425 1394 396 1433 417 1406 b 469 1335 439 1378 456 1357 b 507 1267 489 1306 499 1285 b 544 1214 521 1240 533 1214 z "},"~":{"ha":901,"x_min":0,"x_max":0,"o":"m 228 528 b 131 414 144 474 131 460 b 146 388 131 399 138 388 b 175 411 153 388 168 403 b 257 461 194 431 225 461 b 411 417 292 461 356 438 b 596 368 475 393 543 368 b 778 535 654 368 778 482 b 767 560 778 550 771 560 b 743 554 753 560 749 558 b 565 483 699 483 613 483 b 432 517 525 483 479 500 b 299 547 388 533 343 547 b 228 528 274 547 249 542 z "},"":{"ha":583,"x_min":0,"x_max":0,"o":"m 156 1292 b 146 1278 150 1288 146 1282 b 200 1249 146 1261 179 1249 b 206 1251 203 1249 204 1250 b 279 1347 206 1251 238 1315 l 278 1347 b 290 1350 282 1349 285 1350 b 385 1299 313 1350 349 1324 b 490 1244 424 1271 464 1244 b 601 1396 531 1244 601 1386 b 572 1414 601 1407 585 1414 b 526 1375 557 1414 542 1394 b 485 1339 511 1358 496 1340 b 456 1357 483 1339 469 1349 b 314 1421 417 1381 357 1421 b 193 1331 269 1421 228 1369 b 156 1292 178 1313 164 1299 z "},"":{"ha":553,"x_min":0,"x_max":0,"o":"m 168 1249 l 199 1249 b 232 1247 208 1247 226 1247 l 238 1247 b 244 1251 240 1247 243 1249 l 249 1265 b 256 1283 253 1268 256 1275 b 253 1310 256 1292 254 1301 b 250 1331 251 1318 250 1326 b 192 1383 250 1333 215 1383 b 135 1315 171 1383 135 1339 b 168 1249 135 1290 156 1249 z m 367 1249 b 379 1246 372 1246 375 1246 b 436 1319 406 1246 436 1283 b 378 1383 436 1349 422 1383 b 321 1328 331 1383 321 1338 b 367 1247 321 1292 333 1260 z "},"":{"ha":475,"x_min":0,"x_max":0,"o":"m 263 1497 b 103 1335 203 1497 103 1463 b 200 1206 103 1271 131 1206 b 385 1350 310 1206 385 1286 b 263 1497 385 1415 374 1488 z m 283 1446 b 310 1407 301 1446 310 1429 b 190 1256 310 1350 260 1256 b 182 1290 185 1256 182 1269 b 283 1446 182 1349 211 1446 z "},"":{"ha":503,"x_min":0,"x_max":0,"o":"m 33 1079 b 124 719 44 958 85 835 l 144 657 l 144 658 l 163 601 b 228 383 183 535 208 450 l 228 365 b 232 256 228 339 231 292 b 233 229 232 246 233 236 l 240 22 b 289 -15 244 -4 268 -15 b 335 42 315 -15 335 7 l 335 60 b 332 100 335 72 333 86 b 331 139 331 114 331 128 l 331 174 b 329 179 331 176 329 178 l 329 201 b 325 275 329 226 326 251 b 322 342 324 297 322 319 l 322 371 b 374 665 331 475 351 564 l 379 692 l 418 869 b 451 1086 425 943 436 1022 b 411 1143 451 1125 432 1143 b 264 615 363 1143 297 813 l 238 696 b 126 1088 186 822 132 1015 b 81 1121 125 1108 106 1121 b 33 1082 56 1121 33 1106 z m 278 1228 b 296 1188 278 1210 285 1193 b 328 1174 303 1178 318 1174 b 372 1181 350 1174 367 1175 l 379 1186 b 397 1249 388 1194 397 1226 b 333 1303 397 1303 371 1303 b 278 1228 292 1303 281 1269 z m 88 1228 b 110 1188 88 1211 96 1194 b 142 1174 117 1178 132 1174 b 190 1185 163 1174 179 1176 l 190 1186 b 207 1249 196 1192 207 1231 b 149 1303 207 1303 185 1303 b 88 1228 103 1303 90 1269 z "},"":{"ha":735,"x_min":0,"x_max":0,"o":"m 471 1232 l 511 1265 b 565 1314 524 1279 544 1296 b 679 1442 619 1360 679 1411 b 643 1486 679 1463 667 1486 l 594 1475 b 418 1274 492 1351 435 1285 b 351 1381 400 1294 376 1338 b 283 1481 321 1432 296 1481 b 215 1433 281 1481 215 1461 b 240 1396 215 1422 222 1417 b 374 1235 263 1371 304 1326 l 374 1236 l 382 1224 b 408 1204 389 1214 397 1204 b 471 1232 436 1204 456 1219 z "},"":{"ha":525,"x_min":0,"x_max":0,"o":"m 113 81 b 78 108 101 97 94 108 b 61 106 72 108 67 107 b 57 96 57 104 54 100 b 63 60 61 88 63 74 b 61 28 63 49 63 38 b 60 11 61 22 60 14 b 157 -37 74 -19 90 -37 b 415 235 325 -37 415 94 b 397 342 415 272 410 308 b 226 771 329 526 269 667 b 149 988 181 886 149 960 b 251 1106 149 1050 189 1106 b 371 1054 288 1106 328 1090 b 376 1053 372 1053 375 1053 b 401 1104 397 1057 401 1085 b 350 1143 401 1121 399 1143 b 229 1168 307 1161 265 1168 b 58 975 101 1168 58 1069 b 186 544 58 850 124 692 b 249 390 210 492 231 439 l 264 351 b 308 186 283 301 308 243 b 157 17 308 131 247 17 b 131 53 150 17 140 36 b 113 81 124 64 117 76 z m 493 1469 b 318 1268 390 1349 336 1282 b 250 1375 299 1289 275 1332 b 182 1475 219 1426 196 1475 b 113 1428 178 1475 113 1456 b 136 1393 113 1419 125 1406 b 275 1224 160 1367 207 1314 l 276 1222 b 308 1199 285 1211 294 1199 b 369 1226 336 1199 354 1214 l 410 1260 b 464 1308 424 1274 444 1290 b 578 1436 518 1354 578 1406 b 543 1481 578 1457 567 1481 z "},"":{"ha":497,"x_min":0,"x_max":0,"o":"m 69 -68 b 104 -89 69 -76 99 -89 b 397 104 213 -72 361 18 b 418 206 410 138 418 174 b 296 488 418 311 357 396 b 165 796 231 581 165 678 b 299 1047 165 888 214 1047 b 422 903 364 1047 425 903 b 422 889 414 903 414 889 l 433 889 b 458 915 444 889 450 890 b 283 1150 444 1007 357 1150 b 250 1139 271 1150 260 1146 b 76 785 101 1029 76 907 b 171 483 76 682 106 579 l 224 408 b 329 215 279 332 329 263 b 97 -33 329 126 190 -8 b 69 -68 92 -35 69 -56 z m 465 1463 b 290 1264 363 1343 308 1278 b 221 1371 271 1285 244 1328 b 156 1468 192 1422 165 1468 b 88 1422 151 1468 88 1449 b 111 1388 88 1414 100 1400 b 249 1218 133 1361 181 1308 l 250 1217 b 281 1194 258 1207 265 1194 b 342 1221 306 1194 326 1210 l 382 1256 b 436 1303 396 1269 415 1285 b 549 1429 489 1349 549 1400 b 514 1474 549 1450 538 1474 z "},"":{"ha":574,"x_min":0,"x_max":0,"o":"m 147 413 b 35 40 113 288 78 165 b 240 -35 35 -26 100 -35 b 461 28 376 -35 461 19 b 219 58 461 44 401 58 b 168 54 222 57 183 56 b 125 51 153 53 138 51 b 496 1076 147 243 382 854 b 449 1122 496 1115 476 1122 b 106 1136 419 1122 106 1131 b 92 1136 106 1144 92 1144 b 90 1110 92 1128 92 1118 b 89 1092 90 1103 89 1096 b 108 1067 89 1075 93 1067 b 142 1072 115 1067 129 1069 b 229 1082 165 1076 197 1082 b 367 1067 267 1082 314 1078 b 147 413 265 840 206 624 z m 550 1469 b 374 1268 447 1349 392 1282 b 304 1376 354 1289 328 1333 b 238 1475 275 1428 247 1475 b 169 1428 233 1475 169 1456 b 193 1393 169 1419 182 1406 b 332 1224 217 1367 263 1314 l 333 1222 b 364 1199 342 1211 349 1199 b 426 1226 389 1199 410 1214 l 465 1260 b 521 1308 479 1274 500 1290 b 635 1436 575 1354 635 1406 b 599 1481 635 1457 622 1481 z "},"":{"ha":497,"x_min":0,"x_max":0,"o":"m 124 1032 b 157 1036 129 1032 142 1033 b 315 1051 193 1042 257 1051 b 344 1029 344 1051 346 1043 l 344 1019 b 154 403 344 878 239 613 b 36 46 92 247 36 106 b 181 -22 36 -10 113 -22 b 381 -14 233 -22 321 -18 b 421 -11 396 -12 410 -11 b 476 75 454 -10 476 28 b 460 89 476 83 467 89 b 169 43 410 67 242 43 l 151 43 b 219 271 151 49 183 153 b 440 1061 306 557 440 1008 b 107 1128 440 1122 217 1128 b 63 1111 82 1128 63 1125 b 117 1032 63 1088 94 1035 z m 469 1463 b 294 1263 368 1343 313 1276 b 231 1364 278 1283 253 1324 b 160 1468 200 1418 171 1468 b 93 1422 157 1468 93 1449 b 117 1385 93 1411 100 1406 b 253 1218 139 1360 181 1317 l 254 1217 b 286 1194 263 1207 271 1194 b 347 1221 311 1194 331 1210 l 386 1256 b 442 1304 399 1269 419 1286 b 554 1429 494 1350 554 1400 b 518 1474 554 1450 540 1474 z "},"":{"ha":524,"x_min":0,"x_max":0,"o":"m 74 1160 b 68 635 71 1006 68 811 b 69 454 68 571 68 511 l -81 332 b -89 315 -85 328 -89 321 b -18 278 -89 297 -39 283 b -10 275 -12 276 -10 275 b 56 322 4 275 33 300 b 74 339 60 325 69 335 b 75 225 75 297 75 268 b 151 -57 75 78 75 -57 b 185 -46 161 -57 174 -53 b 329 7 229 -21 286 -4 b 400 42 368 18 400 25 b 354 61 400 53 375 60 b 182 40 314 61 231 51 b 171 297 175 86 174 221 b 169 342 171 318 169 335 l 165 404 b 164 421 164 411 164 415 l 224 472 b 332 594 282 524 332 564 b 307 629 332 614 321 629 b 218 567 296 629 260 601 l 164 528 b 174 719 164 593 169 653 b 183 942 179 794 183 871 b 158 1171 183 1024 179 1103 b 151 1176 157 1174 154 1176 l 150 1176 b 101 1194 138 1183 115 1194 b 74 1160 85 1194 74 1188 z "},"":{"ha":510,"x_min":0,"x_max":0,"o":"m 69 1068 b 71 917 71 1018 71 968 l 71 721 b 69 524 71 656 69 590 b -69 410 29 493 -15 456 b -78 393 -75 406 -78 400 b -8 356 -78 376 -29 361 b 0 353 -3 354 0 353 b 17 358 4 353 13 354 l 15 358 b 71 410 35 375 53 393 b 117 11 76 268 89 133 b 228 -24 144 -14 185 -24 b 435 19 303 -24 381 1 b 456 26 444 22 456 26 b 492 64 483 35 492 49 b 478 89 492 81 489 89 b 451 78 474 89 464 85 b 311 54 422 63 364 54 b 204 71 265 54 221 60 b 178 500 183 201 178 353 l 233 550 b 339 669 290 600 339 642 b 314 704 339 689 328 704 b 224 643 303 704 267 676 l 178 606 b 182 804 178 678 181 736 b 186 1021 183 881 186 954 b 183 1125 186 1058 186 1092 b 175 1132 183 1129 179 1133 l 154 1128 b 69 1068 117 1121 69 1113 z "}," ":{"ha":400,"x_min":0,"x_max":0,"o":""},";":{"ha":310,"x_min":0,"x_max":0,"o":"m 231 758 b 232 783 232 768 232 776 b 206 817 232 808 226 817 b 108 725 132 817 108 783 b 179 667 108 679 144 667 b 231 758 194 667 225 729 z m 101 88 b 33 -121 99 -17 60 -82 b 25 -144 28 -132 25 -140 b 50 -167 25 -158 36 -167 b 71 -160 58 -167 65 -165 l 69 -160 b 200 56 161 -87 179 -19 b 196 65 200 68 199 63 b 150 117 183 75 167 92 b 140 118 149 117 146 118 b 101 88 124 118 101 94 z "},"#":{"ha":957,"x_min":0,"x_max":0,"o":"m 133 651 b 307 653 181 651 242 651 l 260 457 l 99 457 b 71 436 86 456 71 446 b 78 425 71 429 74 426 b 125 394 106 413 117 403 b 153 383 133 386 136 383 b 240 385 181 383 208 383 b 161 49 201 236 174 114 b 183 10 161 35 163 21 b 188 11 183 10 186 11 b 226 7 196 8 214 7 l 233 7 b 242 8 236 7 239 8 b 354 360 260 10 314 164 b 357 386 356 369 356 381 l 532 392 b 471 26 506 253 482 124 b 515 -19 486 -4 503 -19 b 582 194 536 -19 556 65 b 626 393 594 253 608 318 b 676 394 646 393 658 394 b 831 428 767 396 831 396 b 668 450 831 447 749 449 l 639 450 l 650 501 b 686 658 661 550 674 608 b 746 658 710 660 725 658 b 851 683 807 658 851 658 b 715 721 851 722 776 721 l 701 721 b 801 1110 742 885 778 1025 b 778 1147 801 1124 800 1136 b 772 1146 776 1147 774 1146 b 742 1149 767 1147 753 1149 b 719 1147 735 1149 725 1149 b 624 814 693 1143 664 1001 l 604 721 l 422 721 b 485 1114 449 865 472 1006 b 439 1154 468 1142 451 1154 b 410 1111 419 1154 413 1139 b 332 751 401 1038 369 903 l 325 721 l 157 721 b 119 686 128 714 119 701 b 124 667 119 686 122 672 b 126 657 125 663 126 658 z m 410 654 l 474 654 b 590 657 514 656 553 657 l 546 451 l 372 456 l 392 550 z "},"$":{"ha":693,"x_min":0,"x_max":0,"o":"m 308 1221 b 306 1158 307 1213 306 1175 b 307 1046 306 1122 306 1086 b 118 850 169 1010 118 911 b 314 544 118 751 222 640 b 311 458 314 517 311 488 b 297 149 308 369 304 268 b 258 144 283 146 271 144 b 190 163 236 144 211 154 b 158 172 178 168 167 172 b 119 104 129 172 119 133 b 175 64 119 78 138 64 b 282 85 199 64 232 72 b 294 88 285 85 292 86 l 285 -60 b 286 -64 285 -60 285 -62 b 321 -101 303 -81 315 -94 b 350 -126 333 -117 340 -126 b 379 -3 363 -126 369 -94 l 379 118 b 578 360 519 181 578 276 b 542 465 578 399 567 435 b 392 650 483 533 432 599 b 386 657 389 651 386 656 l 403 985 b 533 978 442 985 485 985 b 540 981 536 978 539 979 b 558 1008 546 988 553 1000 b 576 1046 569 1021 576 1035 b 511 1071 576 1061 561 1071 b 426 1065 481 1071 451 1068 b 406 1063 421 1065 410 1063 l 413 1199 b 335 1235 410 1218 364 1235 b 308 1221 319 1235 310 1229 z m 394 454 l 410 438 b 479 315 440 406 479 363 b 379 178 479 269 435 211 b 381 340 379 236 381 285 l 381 469 z m 236 842 b 207 899 217 864 207 883 b 310 975 207 933 249 961 b 311 914 310 956 310 933 b 315 749 313 867 315 814 b 236 842 275 797 257 818 z "},"":{"ha":503,"x_min":0,"x_max":0,"o":"m 399 1165 b 128 349 356 969 228 622 b -6 -37 63 172 7 25 b 51 -115 -4 -61 33 -115 b 99 -83 71 -115 88 -104 b 500 1117 189 278 364 760 b 501 1133 500 1119 501 1129 b 503 1161 503 1142 503 1154 b 481 1193 503 1179 499 1193 b 399 1165 467 1193 403 1183 z "},"%":{"ha":660,"x_min":0,"x_max":0,"o":"m 496 1165 b 226 349 454 969 326 622 b 93 -37 160 172 106 25 b 149 -115 94 -61 131 -115 b 197 -83 169 -115 186 -104 b 596 1117 286 276 461 760 b 597 1133 596 1121 596 1128 b 600 1161 599 1142 600 1151 b 579 1193 600 1179 594 1193 b 496 1165 564 1193 500 1183 z m 183 715 b 344 961 311 715 344 869 b 200 1174 344 1072 297 1174 b 58 917 118 1174 58 1040 b 183 715 58 826 97 715 z m 156 872 b 199 1122 156 931 156 1122 b 272 1003 253 1122 272 1040 b 181 772 272 904 215 772 b 156 872 165 772 156 801 z m 442 -46 b 610 153 574 -46 610 53 b 449 392 610 390 504 392 b 326 139 376 392 326 257 b 442 -46 326 42 358 -46 z m 536 214 b 524 96 536 172 532 132 b 458 1 513 54 501 1 b 424 82 429 1 424 47 b 451 347 424 147 422 299 b 536 214 510 333 536 293 z "},"&":{"ha":906,"x_min":0,"x_max":0,"o":"m 804 657 b 426 679 715 657 563 663 l 435 843 b 744 875 585 868 690 872 b 814 906 799 879 814 881 b 692 949 814 949 764 949 b 438 928 596 949 511 940 l 451 1199 b 374 1235 446 1218 400 1235 b 342 1189 346 1235 342 1215 b 346 1046 342 1143 343 1093 b 351 911 347 1007 350 963 b 67 738 169 871 67 796 b 68 722 67 732 67 726 b 353 590 110 615 181 590 l 353 569 b 351 544 353 561 351 554 b 13 333 144 469 13 375 b 339 210 38 240 110 214 b 338 183 339 199 338 194 l 324 -60 b 325 -64 324 -60 324 -62 b 358 -100 342 -81 353 -93 b 389 -126 371 -115 376 -126 b 415 -26 400 -126 406 -100 l 418 -1 l 418 210 b 465 208 436 210 449 208 l 511 208 b 760 317 672 208 760 233 b 744 339 760 329 754 339 b 418 269 700 311 556 282 b 419 381 418 310 419 342 l 419 476 b 649 554 482 501 571 529 b 836 629 749 585 836 614 b 808 656 836 638 825 646 z m 293 265 b 133 310 199 265 135 276 b 350 447 139 347 229 399 b 346 357 350 417 347 393 b 342 265 344 326 342 297 z m 353 689 b 149 749 213 708 149 722 b 353 829 149 781 238 807 z m 421 567 l 421 590 l 506 590 b 421 567 476 583 449 575 z "},"":{"ha":783,"x_min":0,"x_max":0,"o":"m 142 383 b 228 386 167 383 196 385 l 233 386 b 497 -7 236 186 275 -7 b 671 174 608 -7 668 122 b 663 199 667 179 664 189 b 646 222 658 211 656 222 b 624 204 642 222 633 218 b 457 60 583 142 481 60 b 356 390 408 60 374 222 b 432 393 383 392 404 393 b 600 440 526 394 600 396 b 578 461 600 453 592 461 b 493 464 554 461 522 463 b 349 471 456 467 408 469 b 344 601 346 521 344 560 l 344 640 l 435 643 b 581 647 494 644 547 647 b 613 675 604 647 613 660 b 574 719 613 696 597 719 l 494 719 b 347 721 451 719 401 721 b 501 1104 360 879 400 1104 b 632 996 557 1104 601 1042 b 685 942 653 967 668 942 b 704 960 700 942 704 949 b 596 1154 704 1006 643 1131 b 519 1165 581 1161 539 1165 b 311 1003 431 1165 333 1064 l 293 953 b 240 721 269 886 250 796 l 142 721 b 119 681 122 713 119 697 b 125 640 119 665 122 653 b 132 635 125 638 129 635 b 235 638 158 635 196 636 l 235 535 b 233 474 235 515 233 496 b 107 475 193 475 156 475 b 88 453 97 472 88 463 b 94 435 88 446 89 440 l 94 436 b 122 400 113 417 118 407 b 140 383 128 389 131 385 z "},"":{"ha":735,"x_min":0,"x_max":0,"o":"m 53 35 b 51 11 51 26 51 18 b 82 -37 51 -19 60 -37 b 185 71 165 -37 185 -10 b 124 118 185 118 160 118 b 53 35 110 118 58 63 z m 294 35 b 293 11 293 26 293 18 b 324 -37 293 -19 301 -37 b 428 71 408 -37 428 -10 b 365 118 428 118 401 118 b 294 35 353 118 300 63 z m 538 35 b 536 11 536 26 536 18 b 565 -37 536 -19 543 -37 b 669 71 650 -37 669 -10 b 608 118 669 118 643 118 b 538 35 594 118 542 63 z "},"":{"ha":597,"x_min":0,"x_max":0,"o":"m 131 153 b 128 129 128 150 128 136 b 133 85 128 114 131 100 b 144 -26 138 60 144 25 b 126 -222 144 -71 140 -135 b 143 -244 126 -237 131 -244 b 190 -208 161 -244 190 -217 b 201 -135 190 -190 196 -164 b 242 114 213 -85 228 -12 b 168 158 242 156 206 158 b 129 147 149 158 131 151 z m 335 156 b 311 111 333 154 311 119 b 314 60 314 92 314 76 b 282 -203 314 21 308 -40 b 328 -254 282 -232 311 -254 b 343 -242 335 -254 343 -251 b 361 -169 343 -225 353 -197 b 418 97 378 -115 404 -31 b 342 157 418 126 351 157 z "},"":{"ha":376,"x_min":0,"x_max":0,"o":"m 131 153 b 128 129 128 150 128 136 b 133 85 128 114 131 100 b 144 -26 138 60 144 25 b 126 -222 144 -71 140 -135 b 143 -244 126 -237 131 -244 b 189 -208 160 -244 189 -217 b 201 -135 189 -190 196 -164 b 242 114 213 -85 228 -12 b 167 158 242 156 206 158 b 129 147 149 158 132 151 z "},"":{"ha":1186,"x_min":0,"x_max":0,"o":"m 950 1013 b 618 1171 874 1096 744 1171 b 104 397 357 1171 104 749 b 482 -35 104 175 199 17 b 610 -49 529 -43 569 -49 b 972 176 799 -49 897 56 b 1094 600 1051 306 1094 464 b 950 1013 1094 758 1046 906 z m 644 1111 b 979 610 869 1111 979 867 b 885 225 979 474 947 333 l 850 286 l 833 311 l 833 310 l 810 349 b 710 475 785 390 757 433 l 657 519 b 824 703 758 569 824 639 b 550 894 824 768 739 890 b 467 810 513 894 467 833 b 471 790 467 803 468 797 l 471 792 b 490 608 478 771 490 728 b 489 544 490 593 490 565 b 464 518 476 538 464 525 b 481 493 464 503 474 496 l 483 446 b 485 361 483 419 483 386 b 488 275 486 338 488 297 l 475 231 b 546 171 475 210 514 171 b 571 214 571 171 571 193 l 571 228 b 578 426 571 278 572 351 b 581 471 578 440 579 457 b 839 174 613 438 708 329 b 843 165 839 165 842 165 b 567 25 776 78 685 25 b 433 47 526 25 481 32 b 222 328 278 78 222 188 b 440 968 222 525 343 799 b 644 1111 479 1025 613 1111 z m 668 601 b 583 565 643 585 626 572 b 582 678 581 604 582 629 b 593 832 582 722 583 822 b 707 688 675 794 707 738 b 668 601 707 653 690 615 z m 844 165 l 843 171 b 846 168 843 169 844 169 b 844 165 844 167 844 167 z "},"":{"ha":708,"x_min":0,"x_max":0,"o":"m 118 713 b 301 717 165 713 232 714 b 272 -60 301 546 294 315 b 274 -64 272 -60 272 -62 b 304 -99 289 -79 297 -90 b 338 -126 315 -112 331 -126 b 369 439 369 -126 369 215 l 369 492 b 368 522 369 503 368 513 l 368 546 b 369 558 368 550 369 554 l 369 569 b 376 719 371 619 375 669 l 383 719 b 568 725 458 722 529 725 b 599 754 592 725 599 739 b 489 801 599 793 553 801 b 436 800 472 801 456 800 b 379 799 418 799 399 799 l 399 1199 b 322 1235 396 1218 351 1235 b 290 1189 294 1235 290 1215 b 294 1035 290 1139 292 1086 b 301 799 297 972 300 897 l 129 799 b 106 760 111 790 106 775 b 108 733 106 750 107 742 b 111 719 110 728 111 722 z "},"":{"ha":736,"x_min":0,"x_max":0,"o":"m 135 713 b 336 718 188 713 261 715 b 332 456 336 643 335 564 b 111 458 272 457 204 458 b 93 436 103 457 93 446 b 101 417 93 431 96 424 b 126 383 119 399 124 389 b 147 367 132 372 136 367 b 331 374 199 367 263 369 b 311 21 326 269 319 158 l 307 -60 b 308 -64 307 -60 307 -62 b 342 -100 325 -81 336 -93 b 371 -126 354 -115 358 -126 b 401 222 400 -126 400 51 b 403 376 401 278 401 328 b 458 378 425 378 439 378 b 603 424 540 379 603 379 b 429 451 603 447 522 449 b 403 453 419 451 413 453 l 403 510 b 404 569 403 531 403 550 b 411 721 406 619 410 671 l 467 721 b 617 754 549 721 617 719 b 511 800 617 793 572 800 l 464 800 b 414 799 449 800 431 799 l 435 1199 b 357 1235 429 1218 383 1235 b 325 1189 329 1235 325 1215 b 329 1035 325 1139 326 1086 b 336 799 332 972 335 897 l 147 799 b 124 760 126 790 124 775 b 126 729 124 750 125 738 b 128 719 126 725 128 724 z "},"\\":{"ha":550,"x_min":0,"x_max":0,"o":"m 18 1193 b -11 1150 -4 1193 -11 1171 b -8 1131 -11 1143 -10 1136 b -7 1119 -7 1126 -7 1122 l -7 1108 b 371 -3 117 783 285 332 b 435 -143 388 -67 414 -111 l 435 -142 l 444 -157 b 469 -167 450 -164 460 -167 b 506 -135 489 -167 506 -151 b 488 -75 499 -118 493 -99 b 461 18 481 -50 472 -17 l 328 426 l 328 425 l 290 544 b 107 1160 214 782 135 1025 b 18 1193 101 1181 32 1193 z "},"":{"ha":1025,"x_min":0,"x_max":0,"o":"m 497 1165 b 226 349 454 969 326 622 b 93 -37 161 172 106 25 b 150 -115 94 -61 132 -115 b 197 -83 171 -115 188 -104 b 597 1117 288 276 461 760 b 599 1133 597 1121 597 1128 b 601 1161 600 1142 601 1151 b 579 1193 601 1179 596 1193 b 497 1165 564 1193 501 1183 z m 185 715 b 344 961 311 715 344 869 b 200 1174 344 1072 299 1174 b 60 917 119 1174 60 1040 b 185 715 60 826 97 715 z m 157 872 b 199 1122 157 931 157 1122 b 274 1003 254 1122 274 1040 b 182 772 274 904 215 772 b 157 872 167 772 157 801 z m 442 -46 b 611 153 574 -46 611 53 b 449 392 611 390 506 392 b 326 139 378 392 326 257 b 442 -46 326 42 360 -46 z m 538 214 b 525 96 538 172 533 132 b 458 1 514 54 503 1 b 425 82 429 1 425 47 b 451 347 425 147 424 299 b 538 214 511 333 538 293 z m 767 392 b 636 186 676 392 636 292 b 775 -46 636 72 683 -46 b 938 171 874 -46 938 61 b 768 392 938 268 889 367 z m 850 151 b 774 -1 850 71 836 14 b 725 138 739 28 725 81 b 783 344 725 236 761 344 b 851 208 843 344 851 268 b 850 171 851 193 850 181 z "},"":{"ha":1140,"x_min":0,"x_max":0,"o":"m 189 767 b 347 631 211 722 283 672 b 450 547 403 594 450 563 b 161 322 450 524 336 417 b 150 290 153 317 150 304 b 179 229 150 264 161 229 b 568 515 190 229 568 497 b 561 556 568 526 568 544 b 290 803 414 658 333 751 b 240 849 267 831 251 849 b 186 779 232 849 186 810 b 190 767 186 775 188 771 z m 551 767 b 710 631 572 722 646 672 b 811 547 765 594 811 563 b 524 322 811 524 699 417 b 513 290 515 317 513 304 b 542 229 513 264 524 229 b 931 515 553 229 931 497 b 924 556 931 526 931 544 b 653 803 776 658 696 751 b 603 849 629 831 614 849 b 549 779 594 849 549 810 b 553 767 549 775 550 771 z "},"":{"ha":676,"x_min":0,"x_max":0,"o":"m 526 311 b 369 444 504 356 433 404 b 265 531 314 481 265 514 b 563 760 265 549 379 661 b 568 788 565 761 568 774 b 538 849 568 814 557 849 b 149 563 528 849 149 579 l 149 561 b 146 549 147 557 146 550 b 154 522 146 538 150 529 b 428 275 307 417 385 325 b 476 229 451 247 467 229 b 531 297 483 229 531 268 b 528 308 531 300 531 303 z "},"":{"ha":1140,"x_min":0,"x_max":0,"o":"m 890 311 b 733 444 868 356 797 404 b 629 531 678 481 629 514 b 925 760 629 549 743 661 b 931 788 928 761 931 774 b 901 849 931 814 921 849 b 513 563 892 849 513 579 l 513 561 b 510 549 511 557 510 550 b 518 522 510 538 514 529 b 792 275 671 417 749 325 b 840 229 814 247 829 229 b 894 297 847 229 894 268 b 892 308 894 300 894 303 z m 528 311 b 371 444 506 356 435 404 b 267 531 315 481 267 514 b 564 760 267 549 381 661 b 568 788 567 761 568 774 b 539 849 568 814 558 849 b 150 563 529 849 150 579 l 150 561 b 147 549 149 557 147 550 b 156 522 147 538 151 529 b 429 275 308 417 386 325 b 478 229 451 247 467 229 b 532 297 485 229 532 268 b 529 308 532 300 532 303 z "},"":{"ha":675,"x_min":0,"x_max":0,"o":"m 342 -54 b 524 -33 417 -50 474 -40 b 608 -24 560 -28 589 -25 b 657 22 639 -22 657 3 b 635 40 657 36 649 40 b 596 35 625 40 611 38 b 501 24 572 29 539 24 b 401 40 472 24 438 28 l 396 186 b 381 628 389 339 381 540 b 383 660 381 638 381 650 l 564 667 b 611 713 593 668 611 689 b 572 733 611 733 600 733 l 565 733 b 476 742 540 733 508 738 b 394 750 447 746 419 750 l 394 785 b 403 889 394 825 399 854 b 415 1042 408 925 413 971 b 633 1057 444 1044 582 1057 l 646 1057 b 658 1063 650 1053 658 1056 b 547 1139 658 1124 660 1139 b 333 1132 499 1139 432 1136 b 317 1147 336 1129 322 1142 l 311 1154 b 306 1158 310 1156 307 1158 b 292 1161 301 1158 296 1160 b 274 1164 286 1163 281 1164 b 247 1156 268 1164 256 1161 b 236 1150 240 1154 236 1150 l 217 1142 b 103 996 158 1111 135 1069 b 38 401 47 821 38 589 l 38 297 b 194 -60 38 113 61 -60 b 271 -37 217 -60 261 -54 b 307 -7 286 -26 296 -19 b 307 -26 304 -21 307 -15 b 332 -54 307 -39 310 -50 z m 297 236 b 215 13 297 124 269 13 b 139 246 154 13 139 119 b 151 503 139 329 146 422 b 160 647 156 561 160 613 l 160 656 l 161 657 l 165 729 b 176 853 167 760 172 819 b 247 1083 185 914 213 1049 b 260 1092 250 1086 257 1089 b 301 933 288 1089 301 1028 l 301 851 b 300 789 301 831 300 810 b 306 472 300 693 301 575 l 301 367 b 297 236 299 315 297 281 z m 254 1090 l 258 1092 l 260 1092 z "},"":{"ha":760,"x_min":0,"x_max":0,"o":"m 654 1138 l 622 1138 b 381 1090 535 1138 400 1136 b 365 1028 375 1071 368 1049 b 211 1142 324 1099 276 1142 b 15 486 79 1142 15 806 b 221 -24 15 297 25 54 b 282 -35 240 -32 263 -35 b 408 56 336 -35 379 3 b 561 -62 435 -11 482 -62 b 744 21 599 -62 744 -33 b 732 36 744 35 742 36 l 726 36 b 700 28 718 33 710 28 b 668 21 694 28 681 25 b 551 1 636 13 579 1 b 475 243 493 1 482 143 l 471 290 b 457 481 464 342 460 413 l 453 563 l 628 593 l 646 596 b 679 617 664 597 679 599 b 619 646 679 639 654 646 b 513 636 588 646 549 640 b 444 629 486 632 461 629 b 443 722 443 664 443 694 b 435 849 443 764 439 807 b 429 961 432 888 429 926 b 436 1039 429 988 433 1015 b 563 1058 440 1047 501 1053 b 707 1092 633 1064 707 1069 b 654 1138 707 1104 696 1136 z m 303 53 b 256 35 293 39 275 35 b 210 49 238 35 222 39 l 196 57 l 197 57 b 135 281 142 97 139 201 l 133 313 l 131 349 b 126 451 128 382 126 417 b 189 1031 126 601 143 926 b 226 1083 200 1063 217 1083 b 333 842 258 1083 311 932 b 340 779 335 821 339 799 l 340 722 b 346 607 340 697 342 642 b 335 583 339 599 335 590 b 347 557 335 576 340 564 b 365 258 351 458 360 344 b 303 53 364 200 346 104 z "},"":{"ha":419,"x_min":0,"x_max":0,"o":"m 282 -3 b 325 -32 285 -26 306 -32 b 379 83 372 -32 379 22 b 364 489 379 200 368 432 l 367 500 b 371 528 368 507 371 515 b 364 544 371 533 368 540 b 335 764 357 640 347 694 b 314 890 328 799 321 839 b 296 1042 306 947 300 999 b 251 1193 288 1133 281 1193 b 160 1126 228 1193 164 1156 b 89 656 142 976 115 814 b 0 -62 43 378 0 111 b 78 -111 0 -87 49 -111 b 92 -110 83 -111 88 -111 b 96 -103 94 -108 96 -106 l 140 461 l 261 475 b 282 -1 261 372 276 85 z m 258 543 b 146 535 219 539 183 538 b 215 1040 165 799 200 971 b 249 679 235 907 240 807 z m 86 1344 b 297 1238 181 1308 260 1263 b 340 1215 319 1222 333 1215 b 365 1238 358 1219 365 1221 b 208 1382 365 1261 283 1324 b 154 1424 189 1396 171 1410 b 149 1424 154 1425 150 1425 b 61 1381 146 1422 65 1369 b 81 1346 61 1365 72 1350 z "},"":{"ha":419,"x_min":0,"x_max":0,"o":"m 282 -3 b 325 -32 285 -26 306 -32 b 379 83 372 -32 379 22 b 364 489 379 200 368 432 l 367 500 b 371 528 368 507 371 515 b 364 544 371 533 368 540 b 335 764 357 640 347 694 b 314 890 328 799 321 839 b 296 1042 306 947 300 999 b 251 1193 288 1133 281 1193 b 160 1126 228 1193 164 1156 b 89 656 142 976 115 814 b 0 -62 43 378 0 111 b 78 -111 0 -87 49 -111 b 92 -110 83 -111 88 -111 b 96 -103 94 -108 96 -106 l 140 461 l 261 475 b 282 -1 261 372 276 85 z m 258 543 b 146 535 219 539 183 538 b 215 1040 165 799 200 971 b 249 679 235 907 240 807 z m 364 1378 b 318 1440 361 1400 325 1440 l 260 1425 b 103 1288 189 1356 136 1314 b 54 1240 74 1265 54 1250 b 75 1196 54 1222 60 1196 b 81 1197 76 1196 76 1196 b 92 1203 85 1197 88 1199 l 90 1203 b 358 1369 125 1228 288 1349 z "},"":{"ha":419,"x_min":0,"x_max":0,"o":"m 282 -3 b 325 -32 285 -26 306 -32 b 379 83 372 -32 379 22 b 364 489 379 200 368 432 l 367 500 b 371 528 368 507 371 515 b 364 544 371 533 368 540 b 335 764 357 640 347 694 b 314 890 328 799 321 839 b 296 1042 306 947 300 999 b 251 1193 288 1133 281 1193 b 161 1126 228 1193 164 1156 b 89 656 142 976 115 814 b 0 -62 43 378 0 111 b 78 -111 0 -87 49 -111 b 92 -110 83 -111 88 -111 b 96 -103 94 -108 96 -106 l 140 461 l 261 475 b 282 -1 261 372 278 85 z m 350 1189 b 410 1240 367 1189 410 1210 b 263 1474 410 1256 378 1311 b 224 1481 260 1476 236 1481 b 208 1474 215 1481 211 1476 b 181 1456 204 1469 199 1463 l 100 1358 b 19 1246 35 1276 19 1258 b 64 1190 19 1224 42 1190 b 106 1247 67 1190 85 1214 b 208 1397 136 1294 179 1364 l 229 1372 b 276 1310 244 1356 263 1333 b 310 1244 288 1290 299 1268 b 350 1189 326 1211 339 1189 z m 258 543 b 146 535 219 539 183 538 b 215 1040 165 799 200 971 b 249 679 235 907 240 807 z "},"":{"ha":419,"x_min":0,"x_max":0,"o":"m 283 -3 b 325 -32 286 -26 306 -32 b 379 83 372 -32 379 22 b 364 489 379 200 368 432 l 367 500 b 371 528 368 507 371 515 b 364 544 371 533 368 540 b 335 764 357 640 347 694 b 314 890 328 799 321 839 b 297 1042 306 947 300 999 b 251 1193 289 1133 282 1193 b 161 1126 228 1193 165 1156 b 89 656 142 976 115 814 b 0 -62 44 378 0 111 b 78 -111 0 -87 50 -111 b 92 -110 83 -111 88 -111 b 96 -103 94 -108 96 -106 l 140 461 l 261 475 b 283 -1 261 372 278 85 z m 42 1267 b 33 1253 36 1263 33 1258 b 85 1224 33 1238 64 1224 b 90 1228 88 1224 89 1226 b 165 1322 90 1228 122 1290 l 164 1322 b 176 1325 168 1324 172 1325 b 271 1274 197 1325 233 1299 b 378 1219 310 1247 349 1219 b 486 1371 417 1219 486 1363 b 457 1389 486 1382 471 1389 b 413 1351 443 1389 425 1368 b 371 1314 397 1333 383 1315 b 340 1332 368 1314 354 1324 b 199 1396 301 1357 242 1396 b 78 1306 156 1396 113 1346 b 42 1267 63 1288 50 1274 z m 258 543 b 146 535 219 539 183 538 b 215 1040 167 799 200 971 b 249 679 235 907 240 807 z "},"":{"ha":419,"x_min":0,"x_max":0,"o":"m 282 -3 b 325 -32 285 -26 306 -32 b 379 83 372 -32 379 22 b 364 489 379 200 368 432 l 367 500 b 371 528 368 507 371 515 b 364 544 371 533 368 540 b 335 764 357 640 347 694 b 314 890 328 799 321 839 b 296 1042 306 947 300 999 b 251 1193 288 1133 281 1193 b 160 1126 228 1193 164 1156 b 89 656 142 976 115 814 b 0 -62 43 378 0 111 b 78 -111 0 -87 49 -111 b 92 -110 83 -111 88 -111 b 96 -103 94 -108 96 -106 l 140 461 l 261 475 b 282 -1 261 372 276 85 z m 258 543 b 146 535 219 539 183 538 b 215 1040 165 799 200 971 b 249 679 235 907 240 807 z m 92 1225 b 122 1224 97 1225 113 1224 b 156 1222 133 1222 151 1222 b 161 1226 158 1222 160 1225 b 171 1240 164 1232 168 1235 b 179 1258 176 1243 179 1249 b 176 1285 179 1267 178 1276 b 174 1306 175 1293 174 1301 b 115 1360 174 1308 139 1360 b 58 1290 94 1360 58 1314 b 92 1225 58 1265 79 1225 z m 289 1222 b 303 1221 293 1221 297 1221 b 360 1294 328 1221 360 1258 b 300 1360 360 1324 346 1360 b 244 1303 254 1360 244 1313 b 289 1222 244 1267 258 1236 z "},"":{"ha":419,"x_min":0,"x_max":0,"o":"m 282 -3 b 325 -32 285 -26 306 -32 b 379 83 372 -32 379 22 b 364 489 379 200 368 432 l 367 500 b 371 528 368 507 371 515 b 364 544 371 533 368 540 b 335 764 357 640 347 694 b 314 890 328 799 321 839 b 296 1042 306 947 300 999 b 251 1193 288 1133 281 1193 b 160 1126 228 1193 164 1156 b 89 656 142 976 115 814 b 0 -62 43 378 0 111 b 78 -111 0 -87 49 -111 b 92 -110 83 -111 88 -111 b 96 -103 94 -108 96 -106 l 140 461 l 261 475 b 282 -1 261 372 276 85 z m 226 1474 b 68 1310 168 1474 68 1438 b 165 1181 68 1247 96 1181 b 349 1325 275 1181 349 1261 b 226 1474 349 1390 339 1464 z m 258 543 b 146 535 219 539 183 538 b 215 1040 165 799 200 971 b 249 679 235 907 240 807 z m 249 1421 b 275 1382 268 1421 275 1404 b 156 1232 275 1325 225 1232 b 147 1265 151 1232 147 1246 b 249 1421 147 1324 176 1421 z "},"":{"ha":535,"x_min":0,"x_max":0,"o":"m 382 258 b 390 210 388 244 390 229 b 281 -21 390 121 338 -21 b 179 160 201 -21 179 64 b 217 389 179 246 199 343 b 285 540 239 442 261 493 b 393 858 343 664 393 771 b 350 968 393 885 378 968 b 321 936 338 968 321 951 b 325 910 321 908 324 917 b 329 889 328 901 329 894 b 222 628 329 814 278 724 l 222 629 b 126 439 188 567 149 497 b 76 176 107 386 76 275 b 281 -64 76 53 119 -64 b 475 139 388 -64 475 29 b 407 307 475 203 415 307 b 382 263 399 307 392 294 z m 347 1182 b 286 1114 321 1182 286 1138 b 328 1042 286 1085 322 1042 b 407 1086 357 1042 407 1058 b 347 1182 407 1104 382 1182 z "},"":{"ha":200,"x_min":0,"x_max":0,"o":"m 78 897 b 38 179 51 675 38 406 b 64 -42 38 50 49 -42 b 110 -33 78 -42 100 -37 b 139 3 129 -24 138 -8 b 154 640 144 142 154 422 b 122 940 154 810 147 940 b 79 900 114 940 101 929 z m 169 1107 b 108 1188 169 1149 133 1188 b 53 1089 63 1188 53 1129 b 132 1019 53 1043 69 1019 b 169 1106 153 1019 164 1076 z "},"":{"ha":435,"x_min":0,"x_max":0,"o":"m 103 -54 b 286 -33 178 -50 236 -40 b 371 -24 321 -28 350 -25 b 418 22 401 -22 418 3 b 397 40 418 36 411 40 b 358 35 388 40 374 38 b 264 24 333 29 300 24 b 164 40 233 24 199 28 l 158 186 b 143 628 151 339 143 540 b 146 660 143 638 143 650 l 325 667 b 374 713 357 668 374 690 b 333 733 374 733 360 733 l 328 733 b 238 742 301 733 269 738 b 157 750 207 746 181 750 l 157 785 b 165 892 157 826 161 857 b 178 1042 171 926 175 972 b 396 1057 206 1044 346 1057 b 407 1061 401 1057 406 1057 b 419 1063 408 1054 419 1054 b 311 1140 419 1124 421 1140 b 178 1136 281 1140 232 1139 l 86 1132 b 79 1128 83 1132 79 1129 b 63 814 67 1071 63 954 b 68 438 63 697 65 564 b 74 124 71 322 74 211 b 71 26 74 92 72 53 b 68 -26 69 6 68 -11 b 93 -54 68 -39 71 -50 z m 58 1288 b 272 1181 156 1251 233 1207 b 314 1158 293 1167 306 1158 b 339 1181 331 1163 339 1164 b 182 1326 339 1206 258 1267 l 129 1367 b 122 1367 128 1368 124 1368 b 36 1325 119 1367 40 1314 b 56 1289 36 1308 47 1293 z "},"":{"ha":435,"x_min":0,"x_max":0,"o":"m 103 -54 b 286 -33 179 -50 236 -40 b 371 -24 321 -28 350 -25 b 419 22 401 -22 419 3 b 397 40 419 36 411 40 b 358 35 388 40 374 38 b 264 24 333 29 301 24 b 164 40 233 24 199 28 l 158 186 b 143 628 151 339 143 540 b 146 660 143 638 143 650 l 325 667 b 374 713 357 668 374 690 b 333 733 374 733 360 733 l 328 733 b 238 742 303 733 269 738 b 157 750 207 746 182 750 l 157 785 b 165 892 157 826 161 857 b 179 1042 171 926 176 972 b 396 1057 206 1044 346 1057 b 407 1061 401 1057 406 1057 b 421 1063 408 1054 421 1054 b 313 1140 421 1124 422 1140 b 179 1136 281 1140 232 1139 l 86 1132 b 79 1128 83 1132 79 1129 b 64 814 68 1071 64 954 b 69 438 64 697 67 564 b 75 124 72 322 75 211 b 72 26 75 92 74 53 b 69 -26 71 6 69 -11 b 93 -54 69 -39 72 -50 z m 475 1425 b 429 1486 471 1447 436 1486 l 372 1474 b 214 1336 304 1406 250 1364 b 167 1286 185 1311 167 1300 b 186 1243 167 1268 171 1243 b 194 1244 190 1243 192 1243 b 201 1249 197 1244 197 1246 l 200 1249 b 469 1417 233 1274 399 1394 z "},"":{"ha":435,"x_min":0,"x_max":0,"o":"m 103 -54 b 286 -33 178 -50 236 -40 b 371 -24 321 -28 350 -25 b 418 22 401 -22 418 3 b 397 40 418 36 410 40 b 358 35 388 40 374 38 b 264 24 333 29 300 24 b 164 40 233 24 199 28 l 158 186 b 143 628 151 339 143 540 b 146 660 143 638 143 650 l 325 667 b 374 713 357 668 374 690 b 333 733 374 733 360 733 l 328 733 b 238 742 301 733 269 738 b 157 750 207 746 181 750 l 157 785 b 165 892 157 826 161 857 b 178 1042 171 926 175 972 b 396 1057 206 1044 343 1057 l 408 1057 b 419 1063 411 1053 419 1056 b 311 1140 419 1124 421 1140 b 174 1136 279 1140 233 1139 l 86 1132 b 79 1128 83 1132 79 1129 b 63 814 67 1071 63 954 b 68 438 63 697 65 564 b 74 124 71 322 74 211 b 71 26 74 92 72 53 b 68 -26 69 6 68 -11 b 93 -54 68 -39 71 -50 z m 357 1189 b 417 1240 374 1189 417 1210 b 269 1474 417 1256 385 1311 b 231 1481 267 1476 243 1481 b 214 1472 222 1481 218 1478 l 214 1474 b 188 1456 210 1469 203 1461 l 107 1358 b 26 1246 42 1276 26 1258 b 69 1190 26 1224 50 1190 b 115 1250 74 1190 94 1218 b 215 1397 146 1296 188 1365 b 238 1369 221 1389 229 1378 b 283 1310 253 1353 269 1333 b 317 1244 294 1290 306 1268 b 357 1189 333 1211 346 1189 z "},"":{"ha":435,"x_min":0,"x_max":0,"o":"m 103 -54 b 286 -33 179 -50 236 -40 b 371 -24 321 -28 350 -25 b 418 22 401 -22 418 3 b 397 40 418 36 411 40 b 358 35 388 40 374 38 b 264 24 333 29 300 24 b 164 40 233 24 199 28 l 158 186 b 143 628 151 339 143 540 b 146 660 143 638 143 650 l 325 667 b 374 713 357 668 374 690 b 333 733 374 733 360 733 l 328 733 b 238 742 301 733 269 738 b 157 750 207 746 181 750 l 157 785 b 165 892 157 826 161 857 b 179 1042 171 926 176 972 b 396 1057 206 1044 343 1057 l 408 1057 b 419 1063 413 1053 419 1056 b 311 1140 419 1124 421 1140 b 175 1136 279 1140 233 1139 l 86 1132 b 79 1128 83 1132 79 1129 b 63 814 67 1071 63 954 b 68 438 63 697 65 564 b 74 124 71 322 74 211 b 71 26 74 92 72 53 b 68 -26 69 6 68 -11 b 93 -54 68 -39 71 -50 z m 100 1225 b 131 1224 106 1225 121 1224 b 165 1222 142 1222 160 1222 b 171 1226 168 1222 169 1225 b 181 1240 174 1232 178 1235 b 188 1258 185 1243 188 1249 b 185 1285 188 1267 186 1276 b 182 1306 183 1293 182 1301 b 124 1360 182 1308 147 1360 b 67 1290 103 1360 67 1314 b 100 1225 67 1265 88 1225 z m 299 1222 b 311 1221 301 1221 306 1221 b 368 1294 336 1221 368 1258 b 308 1360 368 1324 354 1360 b 253 1303 263 1360 253 1313 b 299 1222 253 1267 267 1236 z "},"":{"ha":315,"x_min":0,"x_max":0,"o":"m 144 -47 b 172 -53 151 -50 161 -53 b 203 -43 188 -53 196 -49 b 215 -39 206 -42 211 -39 l 222 -39 b 293 -12 258 -37 293 -36 b 242 13 293 11 269 13 l 221 13 b 208 386 211 132 208 260 b 211 649 208 467 210 569 b 214 874 213 726 214 803 b 207 1108 214 961 214 1039 l 242 1108 b 269 1126 263 1108 269 1111 b 239 1158 269 1151 261 1158 b 196 1154 228 1158 214 1157 b 76 1142 168 1150 131 1144 b 64 1140 71 1140 67 1140 b 36 1118 46 1139 36 1138 b 75 1100 36 1103 42 1100 l 113 1100 l 108 951 l 108 942 b 107 929 108 938 107 933 l 107 906 b 108 883 107 897 108 890 l 108 860 b 111 765 108 828 110 796 b 113 682 113 736 113 707 l 115 501 b 125 14 119 372 124 156 b 58 -21 75 7 58 3 b 76 -56 58 -49 65 -56 b 93 -54 79 -56 86 -56 b 144 -47 104 -51 121 -49 z m 31 1344 b 246 1236 132 1310 206 1261 b 285 1215 265 1222 276 1215 b 311 1238 303 1219 311 1221 b 154 1382 311 1261 231 1324 l 101 1424 b 94 1425 100 1425 96 1425 b 8 1382 90 1424 8 1433 b 26 1346 8 1367 19 1350 z "},"":{"ha":315,"x_min":0,"x_max":0,"o":"m 144 -47 b 172 -53 151 -50 161 -53 b 203 -43 188 -53 196 -49 b 215 -39 206 -42 211 -39 l 222 -39 b 293 -12 258 -37 293 -36 b 242 13 293 11 269 13 l 221 13 b 208 386 211 132 208 260 b 211 649 208 467 210 569 b 214 874 213 726 214 803 b 207 1108 214 961 214 1039 l 242 1108 b 269 1126 263 1108 269 1111 b 239 1158 269 1151 261 1158 b 196 1154 228 1158 214 1157 b 76 1142 168 1150 131 1144 b 64 1140 71 1140 67 1140 b 36 1118 46 1139 36 1138 b 75 1100 36 1103 42 1100 l 113 1100 l 108 951 l 108 942 b 107 929 108 938 107 933 l 107 906 b 108 883 107 897 108 890 l 108 860 b 111 765 108 828 110 796 b 113 682 113 736 113 707 l 115 501 b 125 14 119 372 124 156 b 58 -21 75 7 58 3 b 76 -56 58 -49 65 -56 b 93 -54 79 -56 86 -56 b 144 -47 104 -51 121 -49 z m 311 1378 b 264 1440 307 1400 272 1440 l 207 1425 b 50 1288 138 1356 83 1314 b 3 1240 21 1265 3 1250 b 22 1196 3 1222 7 1196 b 29 1197 24 1196 28 1197 b 38 1203 33 1197 33 1199 l 36 1203 b 306 1369 69 1228 235 1349 z "},"":{"ha":315,"x_min":0,"x_max":0,"o":"m 144 -47 b 172 -53 151 -50 161 -53 b 203 -43 188 -53 196 -49 b 215 -39 206 -42 211 -39 l 222 -39 b 293 -12 260 -37 293 -36 b 242 13 293 11 269 13 l 221 13 b 208 386 211 132 208 260 b 211 649 208 467 210 569 b 214 874 213 726 214 803 b 207 1108 214 961 214 1039 l 242 1108 b 269 1126 263 1108 269 1111 b 239 1158 269 1151 261 1158 b 196 1154 228 1158 214 1157 b 76 1142 168 1150 131 1144 b 64 1140 71 1140 67 1140 b 36 1118 46 1139 36 1138 b 75 1100 36 1103 42 1100 l 113 1100 l 108 951 l 108 942 b 107 929 108 938 107 933 l 107 906 b 108 883 107 897 108 890 l 108 860 b 111 765 108 828 110 796 b 113 682 113 736 113 707 l 115 501 b 125 14 119 372 124 156 b 58 -21 75 7 58 3 b 76 -56 58 -49 65 -56 b 93 -54 79 -56 86 -56 b 144 -47 104 -51 121 -49 z m 297 1189 b 357 1240 314 1189 357 1210 b 210 1474 357 1256 325 1311 b 171 1481 207 1476 183 1481 b 154 1472 163 1481 158 1478 l 154 1474 b 129 1456 150 1469 143 1461 l 47 1358 b -33 1246 -18 1276 -33 1258 b 11 1190 -33 1224 -10 1190 b 56 1250 15 1190 35 1218 b 156 1397 86 1296 129 1365 b 178 1369 161 1389 169 1378 b 224 1310 193 1353 210 1333 b 258 1244 236 1290 247 1268 b 297 1189 274 1211 286 1189 z "},"":{"ha":315,"x_min":0,"x_max":0,"o":"m 144 -47 b 172 -53 151 -50 161 -53 b 203 -43 188 -53 196 -49 b 215 -39 206 -42 211 -39 l 222 -39 b 293 -12 258 -37 293 -36 b 242 13 293 11 269 13 l 221 13 b 208 386 211 132 208 260 b 211 649 208 467 210 569 b 214 874 213 726 214 803 b 207 1108 214 961 214 1039 l 242 1108 b 269 1126 263 1108 269 1111 b 239 1158 269 1151 261 1158 b 196 1154 228 1158 214 1157 b 76 1142 168 1150 131 1144 b 64 1140 71 1140 67 1140 b 36 1118 46 1139 36 1138 b 75 1100 36 1103 42 1100 l 113 1100 l 108 951 l 108 942 b 107 929 108 938 107 933 l 107 906 b 108 883 107 897 108 890 l 108 860 b 111 765 108 828 110 796 b 113 682 113 736 113 707 l 115 501 b 125 14 119 372 124 156 b 58 -21 75 7 58 3 b 76 -56 58 -49 65 -56 b 93 -54 79 -56 86 -56 b 144 -47 104 -51 121 -49 z m 40 1225 b 71 1224 44 1225 61 1224 b 106 1222 83 1222 100 1222 b 111 1226 108 1222 110 1225 l 121 1243 b 129 1258 125 1246 129 1251 b 126 1285 129 1267 128 1276 b 124 1306 125 1293 124 1301 b 64 1360 124 1308 88 1360 b 8 1290 42 1360 8 1314 b 40 1225 8 1265 28 1225 z m 239 1222 b 251 1221 243 1221 247 1221 b 307 1294 276 1221 307 1258 b 250 1360 307 1324 294 1360 b 193 1303 203 1360 193 1313 b 239 1222 193 1267 207 1236 z "},"":{"ha":315,"x_min":0,"x_max":0,"o":"m 144 -46 b 172 -51 151 -49 161 -51 b 201 -42 186 -51 194 -47 b 214 -37 204 -40 210 -37 l 221 -37 b 292 -12 257 -36 292 -35 b 240 13 292 11 268 13 l 219 13 b 207 382 210 131 207 257 b 210 643 207 463 208 565 b 213 867 211 721 213 797 b 206 1099 213 953 213 1031 l 240 1099 b 268 1117 261 1099 268 1101 b 238 1149 268 1143 260 1149 b 194 1146 226 1149 213 1147 b 76 1133 168 1142 129 1136 b 64 1132 71 1132 67 1132 b 38 1108 47 1131 38 1129 b 75 1090 38 1093 43 1090 l 113 1090 l 108 943 l 108 935 b 107 922 108 931 107 926 l 107 899 b 108 875 107 890 108 882 l 108 853 b 111 758 108 821 110 790 b 113 676 113 729 113 701 l 115 497 b 124 14 118 369 122 154 b 58 -21 75 7 58 3 b 76 -54 58 -47 65 -54 b 93 -53 79 -54 86 -54 b 144 -46 104 -50 119 -47 z "},"":{"ha":544,"x_min":0,"x_max":0,"o":"m 29 469 b 107 472 56 469 85 471 b 128 474 114 472 122 474 l 124 331 b 117 -14 119 214 117 97 b 169 -60 117 -29 144 -60 b 247 -11 186 -58 219 -39 l 264 6 l 279 18 l 285 24 l 283 24 b 375 115 314 50 357 83 b 493 635 446 246 493 449 b 210 1165 493 797 379 1165 b 111 1121 186 1165 111 1140 b 115 1103 111 1114 113 1108 l 119 1043 b 133 690 129 925 133 807 b 132 621 133 667 132 644 l 132 560 l 81 560 b -10 561 56 560 24 561 b -29 539 -19 558 -29 549 b -22 522 -29 533 -28 528 b 7 488 -1 501 4 493 b 28 469 13 476 17 471 z m 224 986 l 218 1011 b 217 1064 217 1015 217 1042 l 217 1081 b 408 681 314 1024 408 850 b 365 379 408 629 389 474 l 343 299 b 207 40 325 238 261 99 b 215 128 207 60 210 89 b 242 482 225 201 240 314 b 261 483 250 482 251 483 b 365 529 310 485 365 485 b 274 553 365 547 315 550 b 244 556 264 553 254 556 l 244 707 b 224 986 244 807 242 897 z "},"":{"ha":557,"x_min":0,"x_max":0,"o":"m 33 1072 b 49 544 35 890 42 708 b 61 38 56 372 61 206 b 122 -29 61 13 96 -29 b 156 33 140 -29 156 -14 l 156 389 b 143 796 146 589 143 717 b 144 892 143 842 143 872 b 253 492 189 767 221 626 b 332 182 279 378 306 268 l 332 183 l 343 147 b 451 -49 360 96 421 -49 b 511 217 513 -49 511 115 l 511 240 l 503 497 b 499 590 503 525 500 557 b 496 657 497 614 496 638 l 492 764 b 481 1119 485 896 481 1024 b 457 1139 476 1133 469 1139 b 376 1040 429 1139 376 1078 b 383 1021 376 1032 379 1025 b 424 238 400 999 421 513 b 165 1006 356 449 229 833 l 158 1018 b 125 1094 139 1053 131 1079 l 125 1093 b 81 1118 118 1118 118 1118 b 33 1078 56 1118 36 1107 z m 63 1267 b 51 1253 54 1263 51 1258 b 103 1224 51 1238 82 1224 b 108 1228 106 1224 107 1226 b 185 1322 108 1228 142 1289 b 194 1325 188 1324 192 1325 b 290 1274 217 1325 253 1299 b 396 1219 328 1247 367 1219 b 504 1371 433 1219 504 1363 b 476 1389 504 1382 489 1389 b 431 1351 461 1389 443 1368 b 389 1314 415 1333 401 1315 b 361 1331 388 1314 375 1321 b 217 1396 322 1356 257 1396 b 97 1306 174 1396 132 1346 b 61 1267 82 1288 69 1274 z "},"":{"ha":486,"x_min":0,"x_max":0,"o":"m 101 993 b 38 401 49 821 38 586 l 38 297 b 193 -60 38 113 60 -60 b 271 -36 214 -60 260 -53 b 413 378 379 44 401 246 l 413 415 l 419 507 b 428 697 425 572 428 638 b 404 879 428 757 414 821 b 390 954 399 903 394 932 b 315 1149 388 1007 350 1129 l 310 1154 b 304 1158 308 1156 307 1158 b 292 1161 300 1158 294 1160 b 274 1164 286 1163 281 1164 b 247 1156 268 1164 256 1161 b 236 1150 240 1154 236 1150 l 215 1142 b 101 996 158 1111 135 1069 z m 258 1092 b 300 933 288 1092 300 1029 b 306 690 300 842 304 735 b 307 669 306 678 307 671 b 300 347 307 503 303 415 b 296 236 299 306 296 274 b 214 13 296 124 269 13 b 139 246 154 13 139 119 b 151 503 139 329 146 422 b 160 647 156 561 160 613 l 160 656 l 161 657 l 165 729 b 176 853 167 760 172 819 b 247 1083 183 914 211 1049 z m 115 1344 b 328 1238 211 1308 290 1263 b 371 1215 350 1224 363 1215 b 396 1238 388 1219 396 1221 b 239 1382 396 1261 314 1324 b 185 1424 219 1396 201 1410 b 178 1425 183 1425 179 1425 b 92 1382 175 1424 92 1433 b 111 1346 92 1367 103 1350 z "},"":{"ha":486,"x_min":0,"x_max":0,"o":"m 101 993 b 38 401 49 821 38 586 l 38 297 b 193 -60 38 113 60 -60 b 271 -36 214 -60 260 -53 b 413 378 379 44 401 246 l 413 415 l 419 507 b 428 697 425 572 428 638 b 404 879 428 757 414 821 b 390 954 399 903 394 932 b 315 1149 388 1007 350 1129 l 310 1154 b 304 1158 308 1156 307 1158 b 292 1161 300 1158 294 1160 b 274 1164 286 1163 281 1164 b 247 1156 268 1164 256 1161 b 236 1150 240 1154 236 1150 l 215 1142 b 101 996 158 1111 135 1069 z m 258 1092 b 300 933 288 1092 300 1029 b 306 690 300 842 304 735 b 307 669 306 678 307 671 b 300 347 307 503 303 415 b 296 236 299 306 296 274 b 214 13 296 124 269 13 b 139 246 154 13 139 119 b 151 503 139 329 146 422 b 160 647 156 561 160 613 l 160 656 l 161 657 l 165 729 b 176 853 167 760 172 819 b 247 1083 183 914 211 1049 z m 397 1378 b 351 1440 394 1400 358 1440 l 293 1425 b 136 1288 222 1356 169 1314 b 88 1240 107 1265 88 1250 b 108 1196 88 1222 93 1196 b 114 1197 110 1196 110 1196 b 125 1203 118 1197 121 1199 l 124 1203 b 392 1369 158 1228 321 1349 z "},"":{"ha":486,"x_min":0,"x_max":0,"o":"m 101 993 b 38 401 49 821 38 586 l 38 297 b 193 -60 38 113 61 -60 b 271 -36 214 -60 260 -53 b 413 378 379 44 401 246 l 413 415 l 419 507 b 428 697 425 572 428 638 b 404 879 428 757 415 821 b 390 954 399 903 394 932 b 315 1149 388 1007 350 1129 l 310 1154 b 304 1158 308 1156 307 1158 b 292 1161 300 1158 296 1160 b 274 1164 286 1163 281 1164 b 247 1156 268 1164 256 1161 b 236 1150 240 1154 236 1150 l 215 1142 b 101 996 158 1111 135 1069 z m 258 1092 b 300 933 288 1092 300 1029 b 306 690 300 842 304 735 b 307 669 306 678 307 671 b 300 347 307 503 303 415 b 297 236 299 306 297 274 b 214 13 297 124 269 13 b 139 246 154 13 139 119 b 151 503 139 329 146 422 b 160 647 156 561 160 613 l 160 656 l 161 657 l 165 729 b 176 853 167 760 172 819 b 247 1083 183 914 211 1049 z m 383 1189 b 443 1240 400 1189 443 1210 b 296 1474 443 1256 411 1311 b 257 1481 293 1476 269 1481 b 242 1474 249 1481 244 1476 b 214 1456 238 1469 232 1463 l 133 1358 b 53 1246 67 1276 53 1258 b 97 1190 53 1224 74 1190 b 139 1247 100 1190 118 1214 b 242 1397 169 1294 213 1364 l 263 1372 b 308 1310 278 1356 296 1333 b 343 1244 321 1290 332 1268 b 383 1189 360 1211 372 1189 z "},"":{"ha":486,"x_min":0,"x_max":0,"o":"m 101 993 b 38 401 49 821 38 586 l 38 297 b 194 -60 38 113 61 -60 b 271 -36 214 -60 260 -53 b 413 378 379 44 401 246 l 413 415 l 421 507 b 429 697 426 572 429 638 b 404 879 429 757 415 821 b 390 954 399 903 394 932 b 317 1149 388 1007 350 1129 l 311 1154 b 306 1158 310 1156 308 1158 b 292 1161 301 1158 296 1160 b 274 1164 286 1163 281 1164 b 247 1156 268 1164 256 1161 b 236 1150 240 1154 236 1150 l 215 1142 b 101 996 158 1111 135 1069 z m 258 1092 b 301 933 288 1092 301 1029 b 307 690 301 842 306 735 b 308 669 307 678 308 671 b 301 347 308 503 304 415 b 297 236 300 306 297 274 b 214 13 297 124 269 13 b 139 246 154 13 139 119 b 151 503 139 329 146 422 b 160 647 156 561 160 613 l 160 656 l 161 657 l 165 729 b 176 853 167 760 172 819 b 247 1083 185 914 211 1049 z m 79 1267 b 68 1253 71 1263 68 1258 b 119 1224 68 1238 99 1224 b 125 1228 122 1224 124 1226 b 200 1322 125 1228 158 1289 b 210 1325 203 1324 207 1325 b 307 1274 233 1325 269 1299 b 413 1219 344 1247 383 1219 b 521 1371 450 1219 521 1363 b 493 1389 521 1382 506 1389 b 446 1351 478 1389 460 1368 b 406 1314 432 1333 418 1315 b 378 1331 404 1314 392 1321 b 233 1396 339 1356 274 1396 b 114 1306 190 1396 149 1346 b 78 1267 99 1288 85 1274 z "},"":{"ha":486,"x_min":0,"x_max":0,"o":"m 101 993 b 38 401 49 821 38 586 l 38 297 b 193 -60 38 113 60 -60 b 271 -36 214 -60 260 -53 b 413 378 379 44 401 246 l 413 415 l 419 507 b 428 697 425 572 428 638 b 404 879 428 757 414 821 b 390 954 399 903 394 932 b 315 1149 388 1007 350 1129 l 310 1154 b 304 1158 308 1156 307 1158 b 292 1161 300 1158 294 1160 b 274 1164 286 1163 281 1164 b 247 1156 268 1164 256 1161 b 236 1150 240 1154 236 1150 l 215 1142 b 101 996 158 1111 135 1069 z m 258 1092 b 300 933 288 1092 300 1029 b 306 690 300 842 304 735 b 307 669 306 678 307 671 b 300 347 307 503 303 415 b 296 236 299 306 296 274 b 214 13 296 124 269 13 b 139 246 154 13 139 119 b 151 503 139 329 146 422 b 160 647 156 561 160 613 l 160 656 l 161 657 l 165 729 b 176 853 167 760 172 819 b 247 1083 183 914 211 1049 z m 126 1225 b 157 1224 132 1225 147 1224 b 190 1222 168 1222 185 1222 l 196 1222 b 203 1228 199 1222 201 1225 l 207 1242 b 214 1258 211 1244 214 1250 b 211 1285 214 1267 213 1276 b 208 1306 210 1293 208 1301 b 150 1360 208 1308 175 1360 b 93 1290 129 1360 93 1314 b 126 1225 93 1265 114 1225 z m 325 1224 b 338 1221 331 1221 333 1221 b 394 1294 364 1221 394 1258 b 336 1360 394 1324 381 1360 b 281 1303 290 1360 281 1313 b 325 1222 281 1267 293 1236 z "},"":{"ha":486,"x_min":0,"x_max":0,"o":"m 388 1165 l 363 1071 b 315 1149 347 1108 332 1139 l 310 1154 b 304 1158 308 1156 307 1158 b 292 1161 300 1158 296 1160 b 274 1164 286 1163 281 1164 b 247 1156 268 1164 256 1161 b 236 1150 240 1154 236 1150 l 215 1142 b 101 996 158 1111 135 1069 b 38 401 47 821 38 589 l 38 297 b 44 151 38 244 39 196 b -17 -37 13 67 -8 0 b 40 -115 -15 -61 22 -115 b 99 -37 81 -115 90 -75 l 103 -19 b 193 -60 126 -47 154 -60 b 271 -36 214 -60 260 -53 b 413 378 379 44 401 246 l 413 415 l 419 507 b 428 697 425 572 428 638 b 408 851 428 747 417 801 b 401 886 407 861 403 875 l 433 967 b 492 1161 463 1035 492 1106 b 469 1193 492 1179 486 1193 b 388 1165 454 1193 392 1183 z m 297 236 b 214 13 297 124 269 13 b 146 126 175 13 154 58 b 307 626 193 289 247 457 b 300 346 307 460 303 413 b 297 236 299 306 297 274 z m 258 1092 b 300 933 288 1092 300 1029 l 300 871 b 154 453 257 739 203 588 l 147 435 l 150 486 b 160 647 156 550 160 611 l 160 656 l 161 657 l 165 729 b 176 853 167 760 172 819 b 247 1083 183 914 211 1049 z "},"":{"ha":531,"x_min":0,"x_max":0,"o":"m 481 911 b 482 915 481 913 482 914 b 483 928 483 919 483 924 b 450 1100 483 983 472 1064 l 450 1099 b 411 1107 446 1104 428 1107 b 358 1088 383 1107 358 1103 l 358 961 b 356 857 358 907 357 881 b 354 806 354 840 354 826 l 354 729 b 353 715 354 726 353 719 b 351 696 351 711 351 703 l 351 676 b 204 68 307 371 244 68 b 121 338 146 68 121 185 b 156 778 121 476 140 644 b 174 985 165 868 174 942 b 157 1111 174 1025 172 1078 b 99 1126 153 1118 124 1126 b 60 1106 76 1126 60 1119 b 56 1022 60 1079 58 1050 b 51 943 54 996 51 968 b 43 596 51 817 47 700 b 38 361 40 510 38 431 b 246 -31 38 114 72 -31 b 349 260 304 -31 324 96 l 367 378 b 368 350 368 368 368 358 l 372 304 b 386 176 372 286 379 238 b 411 -32 396 86 411 -21 l 481 -54 b 489 -47 485 -56 489 -53 b 475 181 488 -24 482 85 b 463 367 469 268 463 349 l 454 521 b 451 667 451 569 451 619 l 451 697 b 453 729 451 707 453 718 b 454 824 453 753 454 799 b 481 908 461 851 469 882 z m 138 1344 b 351 1236 238 1310 311 1261 b 392 1215 372 1222 383 1215 b 418 1238 410 1219 418 1221 b 254 1386 418 1263 331 1328 l 206 1424 b 199 1424 204 1425 200 1425 b 113 1381 196 1422 117 1369 b 132 1346 113 1365 125 1350 z "},"":{"ha":531,"x_min":0,"x_max":0,"o":"m 481 911 b 482 915 481 913 482 914 b 483 928 483 919 483 924 b 450 1100 483 983 472 1064 l 450 1099 b 411 1107 446 1104 428 1107 b 358 1088 383 1107 358 1103 l 358 961 b 356 857 358 907 357 881 b 354 806 354 840 354 826 l 354 729 b 353 715 354 726 353 719 b 351 696 351 711 351 703 l 351 676 b 204 68 307 371 244 68 b 121 338 146 68 121 185 b 156 778 121 476 140 644 b 174 985 165 868 174 942 b 157 1111 174 1025 172 1078 b 99 1126 153 1118 124 1126 b 60 1106 76 1126 60 1119 b 56 1022 60 1079 58 1050 b 51 943 54 996 51 968 b 43 596 51 817 47 700 b 38 361 40 510 38 431 b 246 -31 38 114 72 -31 b 349 260 304 -31 324 96 l 367 378 b 368 350 368 368 368 358 l 372 304 b 386 176 372 286 379 238 b 411 -32 396 86 411 -21 l 481 -54 b 489 -47 485 -56 489 -53 b 475 181 488 -24 482 85 b 463 367 469 268 463 349 l 454 521 b 451 667 451 569 451 619 l 451 697 b 453 729 451 707 453 718 b 454 824 453 753 454 799 b 481 908 461 851 469 882 z m 419 1378 b 372 1440 415 1400 381 1440 l 314 1425 b 158 1288 244 1356 192 1314 b 110 1240 129 1265 110 1250 b 131 1196 110 1222 114 1196 b 138 1197 132 1196 136 1197 b 146 1203 142 1197 142 1199 l 144 1203 b 414 1369 178 1228 342 1349 z "},"":{"ha":531,"x_min":0,"x_max":0,"o":"m 481 911 b 482 915 481 913 482 914 b 483 928 483 919 483 924 b 450 1100 483 983 472 1064 l 450 1099 b 411 1107 446 1104 428 1107 b 358 1088 383 1107 358 1103 l 358 961 b 356 857 358 907 357 881 b 354 806 354 840 354 826 l 354 729 b 353 715 354 726 353 719 b 351 696 351 711 351 703 l 351 676 b 204 68 307 371 244 68 b 121 338 146 68 121 185 b 156 778 121 476 140 644 b 174 985 165 868 174 942 b 157 1111 174 1025 172 1078 b 99 1126 153 1118 124 1126 b 60 1106 76 1126 60 1119 b 56 1022 60 1079 58 1050 b 51 943 54 996 51 968 b 43 596 51 817 47 700 b 38 361 40 510 38 431 b 246 -31 38 114 72 -31 b 349 260 304 -31 324 96 l 367 378 b 368 350 368 368 368 358 l 372 304 b 386 176 372 286 379 238 b 411 -32 396 86 411 -21 l 481 -54 b 489 -47 485 -56 489 -53 b 475 181 488 -24 482 85 b 463 367 469 268 463 349 l 454 521 b 451 667 451 569 451 619 l 451 697 b 453 729 451 707 453 718 b 454 824 453 753 454 799 b 481 908 461 851 469 882 z m 406 1189 b 464 1240 422 1189 464 1210 b 317 1474 464 1256 432 1311 b 279 1481 314 1476 292 1481 b 263 1472 271 1481 267 1478 l 263 1474 b 236 1456 258 1469 251 1461 l 156 1358 b 74 1246 89 1276 74 1258 b 118 1190 74 1224 97 1190 b 164 1250 122 1190 143 1218 b 264 1397 193 1296 236 1365 b 286 1369 269 1389 278 1378 b 331 1310 301 1353 317 1333 b 365 1244 343 1290 354 1268 b 406 1189 382 1211 394 1189 z "},"":{"ha":531,"x_min":0,"x_max":0,"o":"m 481 911 b 482 915 481 913 482 914 b 483 928 483 919 483 924 b 450 1100 483 983 472 1064 l 450 1099 b 411 1107 447 1104 429 1107 b 358 1088 383 1107 358 1103 l 358 961 b 356 857 358 907 357 881 b 354 806 354 840 354 826 l 354 729 b 353 715 354 726 353 719 b 351 696 351 711 351 703 l 351 676 b 204 68 307 371 244 68 b 121 338 146 68 121 185 b 156 778 121 476 140 644 b 174 985 165 868 174 942 b 157 1111 174 1025 172 1078 b 99 1126 153 1118 124 1126 b 60 1106 76 1126 60 1119 b 56 1022 60 1079 58 1050 b 51 943 54 996 51 968 b 43 596 51 817 47 700 b 38 361 40 510 38 431 b 246 -31 38 114 72 -31 b 349 260 304 -31 324 96 l 367 378 b 368 350 368 368 368 358 l 372 304 b 386 176 372 286 379 238 b 411 -32 396 86 411 -21 l 481 -54 b 489 -47 485 -56 489 -53 b 475 181 488 -24 482 85 b 463 367 469 268 463 349 l 454 521 b 451 667 451 569 451 619 l 451 697 b 453 729 451 707 453 718 b 454 824 453 753 454 799 b 481 908 461 851 469 882 z m 149 1225 b 179 1224 153 1225 169 1224 b 213 1222 192 1222 207 1222 b 218 1226 215 1222 217 1225 l 228 1243 b 236 1258 232 1246 236 1251 b 233 1285 236 1267 235 1276 b 231 1306 232 1293 231 1301 b 172 1360 231 1308 194 1360 b 115 1290 150 1360 115 1314 b 149 1225 115 1265 136 1225 z m 346 1222 b 358 1221 350 1221 354 1221 b 415 1294 385 1221 415 1258 b 357 1360 415 1324 403 1360 b 301 1303 310 1360 301 1313 b 346 1222 301 1267 314 1236 z "},"":{"ha":503,"x_min":0,"x_max":0,"o":"m 25 1135 b 214 378 29 1135 178 568 b 199 81 206 294 199 169 b 201 -6 199 46 199 17 b 288 -61 207 -39 269 -61 b 294 -56 292 -61 294 -60 l 297 7 l 297 26 b 303 100 296 49 300 78 b 304 121 304 107 304 117 l 306 167 l 307 201 b 308 243 307 213 308 232 b 311 326 310 271 311 297 l 311 369 b 381 671 326 472 353 569 l 436 874 b 492 1042 446 924 469 988 l 518 1111 b 479 1171 518 1151 503 1171 b 268 563 432 1171 314 768 b 200 815 242 667 224 732 b 132 1115 161 960 132 1068 b 83 1167 129 1154 107 1167 b 31 1151 69 1167 43 1157 b 22 1147 26 1150 22 1147 z m 406 1378 b 360 1440 403 1400 367 1440 l 301 1425 b 144 1288 231 1356 178 1314 b 96 1240 115 1265 96 1250 b 117 1196 96 1222 101 1196 b 122 1197 118 1196 118 1196 b 133 1203 126 1197 129 1199 l 132 1203 b 400 1369 167 1228 329 1349 z "},"":{"ha":458,"x_min":0,"x_max":0,"o":"m 99 144 b 115 353 99 186 108 281 b 122 418 117 374 121 397 b 244 449 168 435 213 449 b 299 400 271 449 294 435 b 314 124 308 299 314 189 b 313 92 314 111 313 101 l 313 74 b 389 -19 313 53 371 -19 b 417 64 407 -19 417 22 b 414 110 417 82 415 97 b 379 493 389 251 383 372 b 367 715 376 565 374 638 l 350 881 l 342 942 b 340 950 342 946 340 947 b 339 964 340 956 340 960 l 339 963 b 254 1140 329 1008 299 1140 b 181 1101 222 1140 188 1129 l 125 829 b -28 -29 54 479 -28 85 b 38 -107 -28 -81 22 -107 b 99 144 50 -107 93 -50 z m 271 656 l 271 657 l 275 604 b 279 558 276 590 278 561 b 138 494 276 514 200 494 b 131 499 132 494 131 496 b 179 729 131 532 153 625 b 232 949 197 801 217 881 z m 103 1357 b 313 1251 197 1322 274 1278 b 354 1229 335 1236 347 1229 b 379 1251 372 1233 379 1235 b 224 1396 379 1276 299 1338 b 171 1436 204 1410 188 1424 b 164 1436 169 1438 165 1438 b 78 1394 161 1435 82 1383 b 97 1358 78 1378 89 1363 z "},"":{"ha":458,"x_min":0,"x_max":0,"o":"m 99 144 b 115 353 99 186 108 281 b 122 418 117 374 121 397 b 244 449 168 435 213 449 b 299 400 271 449 294 435 b 314 124 308 299 314 189 b 313 92 314 111 313 101 l 313 74 b 389 -19 313 53 371 -19 b 417 64 407 -19 417 22 b 414 110 417 82 415 97 b 379 493 389 251 383 372 b 367 715 376 565 374 638 l 350 881 l 342 942 b 340 950 342 946 340 947 b 339 964 340 956 340 960 l 339 963 b 254 1140 329 1008 299 1140 b 181 1101 222 1140 188 1129 l 125 829 b -28 -29 54 479 -28 85 b 38 -107 -28 -81 22 -107 b 99 144 50 -107 93 -50 z m 271 656 l 271 657 l 275 604 b 279 558 276 590 278 561 b 138 494 276 514 200 494 b 131 499 132 494 131 496 b 179 729 131 532 153 625 b 232 949 197 801 217 881 z m 379 1392 b 335 1453 376 1414 342 1453 l 278 1439 b 122 1303 210 1372 157 1331 b 74 1254 92 1279 74 1268 b 93 1211 74 1236 78 1211 b 101 1213 96 1211 99 1211 b 110 1217 106 1213 106 1214 l 108 1217 b 374 1383 142 1242 304 1361 z "},"":{"ha":458,"x_min":0,"x_max":0,"o":"m 99 144 b 115 353 99 186 108 281 b 122 418 117 374 121 397 b 244 449 168 435 213 449 b 299 400 271 449 294 435 b 314 124 308 299 314 189 b 313 92 314 111 313 101 l 313 74 b 389 -19 313 53 371 -19 b 417 64 407 -19 417 22 b 414 110 417 82 415 97 b 379 493 389 251 383 372 b 367 715 376 565 374 638 l 350 881 l 342 942 b 340 950 342 946 340 947 b 339 964 340 956 340 960 l 339 963 b 254 1140 329 1008 299 1140 b 181 1101 222 1140 188 1129 l 125 829 b -28 -29 54 479 -28 85 b 38 -107 -28 -81 22 -107 b 99 144 50 -107 93 -50 z m 271 656 l 271 657 l 275 604 b 279 558 276 590 278 561 b 138 494 276 514 200 494 b 131 499 132 494 131 496 b 179 729 131 532 153 625 b 232 949 197 801 217 881 z m 358 1204 b 417 1254 374 1204 417 1224 b 274 1483 417 1272 386 1325 b 232 1493 269 1486 246 1493 b 217 1486 224 1493 219 1489 b 190 1468 213 1482 207 1475 l 110 1371 b 29 1260 44 1290 29 1274 b 74 1206 29 1238 54 1206 b 119 1265 78 1206 99 1232 b 218 1411 150 1314 192 1379 b 240 1383 211 1422 232 1394 b 283 1324 254 1367 271 1346 b 318 1263 300 1296 310 1279 b 358 1204 336 1228 344 1204 z "},"":{"ha":458,"x_min":0,"x_max":0,"o":"m 99 144 b 115 353 99 186 108 281 b 122 418 117 374 121 397 b 244 449 168 435 213 449 b 299 400 271 449 294 435 b 314 124 308 299 314 189 b 313 92 314 111 313 101 l 313 74 b 389 -19 313 53 371 -19 b 418 64 407 -19 418 22 b 415 110 418 82 417 97 b 379 493 389 251 383 372 b 367 715 376 565 374 638 l 350 881 l 343 942 b 342 950 343 946 342 947 b 339 964 342 956 340 960 l 339 963 b 254 1140 329 1008 299 1140 b 181 1101 222 1140 188 1129 l 125 829 b -28 -29 54 479 -28 85 b 38 -107 -28 -81 22 -107 b 99 144 50 -107 93 -50 z m 272 656 l 272 657 l 276 604 b 281 558 278 590 279 561 b 139 494 278 514 200 494 b 131 499 132 494 131 496 b 179 729 131 532 153 625 b 232 949 197 801 217 881 z m 14 1282 b 3 1268 6 1278 3 1274 b 57 1238 3 1251 35 1238 b 63 1242 60 1238 61 1240 b 136 1336 63 1242 94 1303 b 146 1339 139 1338 142 1339 b 240 1288 168 1339 204 1313 b 346 1233 279 1261 318 1233 b 453 1385 383 1233 453 1375 b 425 1403 453 1396 438 1403 b 381 1364 411 1403 396 1383 b 339 1328 365 1347 350 1329 b 311 1344 338 1328 325 1335 b 168 1410 274 1368 208 1410 b 50 1319 125 1410 83 1358 b 13 1282 35 1301 21 1288 z "},"":{"ha":458,"x_min":0,"x_max":0,"o":"m 99 144 b 115 353 99 186 108 281 b 122 418 117 374 121 397 b 244 449 168 435 213 449 b 299 400 271 449 294 435 b 314 124 308 299 314 189 b 313 92 314 111 313 101 l 313 74 b 389 -19 313 53 371 -19 b 417 64 407 -19 417 22 b 414 110 417 82 415 97 b 379 493 389 251 383 372 b 367 715 376 565 374 638 l 350 881 l 342 942 b 340 950 342 946 340 947 b 339 964 340 956 340 960 l 339 963 b 254 1140 329 1008 299 1140 b 181 1101 222 1140 188 1129 l 125 829 b -28 -29 54 479 -28 85 b 38 -107 -28 -81 22 -107 b 99 144 50 -107 93 -50 z m 271 656 l 271 657 l 275 604 b 279 558 276 590 278 561 b 138 494 276 514 200 494 b 131 499 132 494 131 496 b 179 729 131 532 153 625 b 232 949 197 801 217 881 z m 111 1239 b 144 1238 118 1239 132 1239 b 175 1236 157 1238 169 1236 l 181 1236 b 188 1242 183 1236 186 1239 l 193 1257 b 199 1274 197 1260 199 1265 b 196 1299 199 1282 197 1290 b 194 1319 194 1307 194 1314 b 133 1372 194 1322 158 1372 b 78 1304 114 1372 78 1328 b 111 1239 78 1281 99 1239 z m 308 1238 b 321 1235 314 1235 318 1235 b 376 1308 346 1235 376 1274 b 319 1372 376 1338 364 1372 b 264 1317 272 1372 264 1326 b 308 1236 264 1282 275 1250 z "},"":{"ha":458,"x_min":0,"x_max":0,"o":"m 99 144 b 115 353 99 186 108 281 b 122 418 117 374 121 397 b 244 449 168 435 213 449 b 299 400 271 449 294 435 b 314 124 308 299 314 189 b 313 92 314 111 313 101 l 313 74 b 389 -19 313 53 371 -19 b 417 64 407 -19 417 22 b 414 110 417 82 415 97 b 379 493 389 251 383 372 b 367 715 376 565 374 638 l 350 881 l 342 942 b 340 950 342 946 340 947 b 339 964 340 956 340 960 l 339 963 b 254 1140 329 1008 299 1140 b 181 1101 222 1140 188 1129 l 125 829 b -28 -29 54 479 -28 85 b 38 -107 -28 -81 22 -107 b 99 144 50 -107 93 -50 z m 271 656 l 271 657 l 275 604 b 279 558 276 590 278 561 b 138 494 276 514 200 494 b 131 499 132 494 131 496 b 179 729 131 532 153 625 b 232 949 197 801 217 881 z m 246 1486 b 88 1324 188 1486 88 1450 b 185 1196 88 1261 118 1196 b 367 1339 293 1196 367 1276 b 246 1486 367 1404 357 1476 z m 267 1433 b 294 1396 286 1433 294 1418 b 175 1246 294 1339 243 1246 b 165 1281 169 1246 165 1260 b 267 1433 165 1338 196 1433 z "},"":{"ha":453,"x_min":0,"x_max":0,"o":"m 353 1138 l 319 1138 b 79 1090 232 1138 97 1136 b 38 722 50 983 38 850 b 43 607 38 697 39 642 b 33 583 39 599 33 589 b 44 557 33 576 38 564 b 68 238 50 449 58 326 l 68 239 b 258 -62 78 129 108 -62 b 442 21 296 -62 442 -33 b 431 36 442 35 439 36 b 419 35 431 36 424 35 b 397 28 413 32 403 28 b 365 21 392 28 378 25 b 249 1 333 13 278 1 b 172 243 190 1 179 143 l 169 292 b 154 489 161 347 158 419 l 151 563 l 325 593 l 344 596 b 376 617 363 597 376 599 b 318 646 376 639 353 646 b 211 636 288 646 247 640 b 143 629 183 632 158 629 b 142 722 142 664 142 694 b 133 849 142 764 138 807 b 126 961 129 888 126 926 b 135 1039 126 988 131 1015 b 260 1058 139 1047 199 1053 b 404 1092 331 1064 404 1069 b 353 1138 404 1104 393 1136 z m 83 1281 b 293 1174 178 1244 256 1200 b 336 1151 315 1160 328 1151 b 361 1174 353 1156 361 1157 b 206 1318 361 1199 281 1260 b 153 1358 186 1332 168 1346 b 146 1360 151 1360 147 1360 b 60 1318 142 1358 60 1368 b 79 1282 60 1301 71 1285 z "},"":{"ha":453,"x_min":0,"x_max":0,"o":"m 353 1138 l 319 1138 b 79 1090 233 1138 99 1136 b 38 722 50 983 38 850 b 43 607 38 697 39 642 b 33 583 39 599 33 589 b 44 557 33 576 38 564 b 68 238 50 449 58 326 l 68 239 b 258 -62 78 129 108 -62 b 443 21 297 -62 443 -33 b 431 36 443 35 440 36 b 419 35 431 36 424 35 b 397 28 413 32 403 28 b 367 21 392 28 378 25 b 249 1 333 13 278 1 b 172 243 190 1 179 143 l 169 292 b 156 489 163 347 160 419 l 151 563 l 325 593 l 344 596 b 376 617 363 597 376 599 b 318 646 376 639 353 646 b 211 636 288 646 247 640 b 143 629 183 632 160 629 b 142 722 142 664 142 694 b 133 849 142 764 138 807 b 126 961 129 888 126 926 b 135 1039 126 988 131 1015 b 260 1058 139 1047 199 1053 b 404 1092 331 1064 404 1069 b 353 1138 404 1104 393 1136 z m 494 1417 b 449 1478 492 1438 457 1478 l 393 1464 b 238 1328 325 1397 272 1354 b 189 1279 207 1303 189 1292 b 208 1235 189 1261 193 1235 b 217 1236 211 1235 214 1235 b 225 1242 221 1236 221 1238 l 224 1242 b 489 1408 257 1267 419 1386 z "},"":{"ha":453,"x_min":0,"x_max":0,"o":"m 353 1138 l 319 1138 b 79 1090 232 1138 97 1136 b 38 722 50 983 38 850 b 43 607 38 697 39 642 b 33 583 39 599 33 589 b 44 557 33 576 38 564 b 68 238 50 449 58 326 l 68 239 b 258 -62 78 129 108 -62 b 442 21 296 -62 442 -33 b 431 36 442 35 439 36 b 419 35 431 36 424 35 b 397 28 413 32 403 28 b 365 21 392 28 378 25 b 249 1 333 13 278 1 b 172 243 190 1 179 143 l 169 292 b 154 489 161 347 158 419 l 151 563 l 325 593 l 344 596 b 376 617 361 597 376 599 b 318 646 376 639 353 646 b 211 636 288 646 247 640 b 143 629 183 632 158 629 b 142 722 142 664 142 694 b 133 849 142 764 138 807 b 126 961 129 888 126 926 b 135 1039 126 988 131 1015 b 260 1058 139 1047 199 1053 b 404 1092 331 1064 404 1069 b 353 1138 404 1104 393 1136 z m 357 1204 b 417 1254 372 1204 417 1224 b 269 1486 417 1271 383 1325 b 231 1493 267 1489 243 1493 b 217 1486 222 1493 219 1489 b 189 1468 213 1482 207 1475 l 108 1371 b 28 1260 43 1290 28 1274 b 74 1206 28 1238 50 1206 b 114 1261 76 1206 93 1228 b 217 1411 144 1308 188 1376 l 236 1386 b 283 1324 251 1368 269 1347 b 317 1258 294 1304 306 1283 b 357 1204 333 1225 346 1204 z "},"":{"ha":453,"x_min":0,"x_max":0,"o":"m 353 1138 l 319 1138 b 79 1090 232 1138 97 1136 b 38 722 50 983 38 850 b 43 607 38 697 39 642 b 33 583 39 599 33 589 b 44 557 33 576 38 564 b 68 238 50 449 58 326 l 68 239 b 258 -62 78 129 108 -62 b 442 21 296 -62 442 -33 b 431 36 442 35 439 36 b 419 35 431 36 424 35 b 397 28 413 32 403 28 b 365 21 392 28 378 25 b 249 1 333 13 278 1 b 172 243 190 1 179 143 l 169 292 b 154 489 161 347 158 419 l 151 563 l 325 593 l 344 596 b 376 617 363 597 376 599 b 318 646 376 639 353 646 b 211 636 288 646 247 640 b 143 629 183 632 158 629 b 142 722 142 664 142 694 b 133 849 142 764 138 807 b 126 961 129 888 126 926 b 135 1039 126 988 131 1015 b 260 1058 139 1047 199 1053 b 404 1092 331 1064 404 1069 b 353 1138 404 1104 393 1136 z m 110 1239 b 140 1238 115 1239 131 1238 b 174 1236 151 1236 168 1236 l 179 1236 b 186 1242 182 1236 185 1239 l 190 1256 b 197 1274 194 1258 197 1265 b 194 1299 197 1282 196 1290 b 192 1319 193 1307 192 1315 b 133 1372 192 1322 157 1372 b 78 1304 113 1372 78 1328 b 110 1239 78 1281 97 1239 z m 307 1238 b 319 1235 313 1235 315 1235 b 375 1308 346 1235 375 1274 b 318 1372 375 1338 363 1372 b 263 1317 272 1372 263 1326 b 307 1236 263 1282 275 1250 z "},"":{"ha":315,"x_min":0,"x_max":0,"o":"m 144 -46 b 172 -51 151 -49 161 -51 b 201 -42 186 -51 194 -47 b 214 -37 204 -40 210 -37 l 221 -37 b 292 -12 257 -36 292 -35 b 240 13 292 11 268 13 l 219 13 b 207 382 210 131 207 257 b 210 643 207 463 208 565 b 213 867 211 721 213 797 b 206 1099 213 953 213 1031 l 240 1099 b 268 1117 261 1099 268 1101 b 238 1149 268 1143 260 1149 b 194 1146 226 1149 213 1147 b 76 1133 168 1142 129 1136 b 64 1132 71 1132 67 1132 b 38 1108 46 1131 38 1129 b 75 1090 38 1093 43 1090 l 113 1090 l 108 943 l 108 935 b 107 922 108 931 107 926 l 107 899 b 108 875 107 890 108 882 l 108 853 b 111 758 108 821 110 790 b 113 676 113 729 113 701 l 114 497 b 124 14 118 369 122 154 b 58 -21 75 7 58 3 b 76 -54 58 -47 65 -54 b 93 -53 79 -54 86 -54 b 144 -46 104 -50 119 -47 z m 32 1357 b 244 1250 131 1324 204 1276 b 283 1229 264 1236 275 1229 b 310 1251 301 1233 310 1235 b 154 1396 310 1276 229 1338 b 101 1436 135 1410 117 1424 b 94 1438 100 1438 96 1438 b 8 1396 90 1436 8 1446 b 28 1358 8 1379 19 1363 z "},"":{"ha":315,"x_min":0,"x_max":0,"o":"m 144 -46 b 172 -51 151 -49 161 -51 b 201 -42 186 -51 194 -47 b 214 -37 204 -40 210 -37 l 221 -37 b 292 -12 257 -36 292 -35 b 240 13 292 11 268 13 l 219 13 b 207 382 210 131 207 257 b 210 643 207 463 208 565 b 213 867 211 721 213 797 b 206 1099 213 953 213 1031 l 240 1099 b 268 1117 261 1099 268 1101 b 238 1149 268 1143 260 1149 b 194 1146 226 1149 213 1147 b 76 1133 168 1142 129 1136 b 64 1132 71 1132 67 1132 b 38 1108 46 1131 38 1129 b 75 1090 38 1093 43 1090 l 113 1090 l 108 943 l 108 935 b 107 922 108 931 107 926 l 107 899 b 108 875 107 890 108 882 l 108 853 b 111 758 108 821 110 790 b 113 676 113 729 113 701 l 114 497 b 124 14 118 369 122 154 b 58 -21 75 7 58 3 b 76 -54 58 -47 65 -54 b 93 -53 79 -54 86 -54 b 144 -46 104 -50 119 -47 z m 310 1392 b 263 1453 306 1414 271 1453 l 206 1438 b 50 1301 136 1368 83 1328 b 3 1254 22 1281 3 1265 b 24 1211 3 1236 7 1211 b 31 1213 25 1211 29 1213 b 39 1217 35 1213 35 1214 l 38 1217 b 304 1383 69 1242 233 1361 z "},"":{"ha":315,"x_min":0,"x_max":0,"o":"m 144 -46 b 172 -51 151 -49 161 -51 b 201 -42 186 -51 194 -47 b 214 -37 204 -40 210 -37 l 221 -37 b 292 -12 257 -36 292 -35 b 240 13 292 11 268 13 l 219 13 b 207 382 210 131 207 257 b 210 643 207 463 208 565 b 213 867 211 721 213 797 b 206 1099 213 953 213 1031 l 240 1099 b 268 1117 261 1099 268 1101 b 238 1149 268 1143 260 1149 b 194 1146 226 1149 213 1147 b 76 1133 168 1142 129 1136 b 64 1132 71 1132 67 1132 b 38 1108 46 1131 38 1129 b 75 1090 38 1093 42 1090 l 111 1090 l 108 943 l 108 935 b 107 922 108 931 107 926 l 107 899 b 108 875 107 890 108 882 l 108 853 b 111 758 108 821 110 790 l 111 676 l 114 497 b 124 14 118 369 122 154 b 58 -21 75 7 58 3 b 76 -54 58 -47 65 -54 b 93 -53 79 -54 86 -54 b 144 -46 104 -50 119 -47 z m 288 1204 b 346 1254 304 1204 346 1224 b 200 1486 346 1271 315 1325 b 163 1493 197 1489 175 1493 b 146 1485 154 1493 150 1490 l 146 1486 b 119 1468 142 1482 135 1474 l 40 1371 b -40 1260 -26 1290 -40 1274 b 3 1206 -40 1238 -18 1206 b 47 1265 7 1206 28 1232 b 147 1411 78 1310 119 1378 b 169 1383 153 1403 161 1392 b 214 1324 183 1365 200 1347 b 249 1258 226 1304 238 1283 b 288 1204 264 1225 276 1204 z "},"":{"ha":315,"x_min":0,"x_max":0,"o":"m 144 -46 b 172 -51 151 -49 161 -51 b 201 -42 186 -51 194 -47 b 214 -37 204 -40 210 -37 l 221 -37 b 292 -12 257 -36 292 -35 b 240 13 292 11 268 13 l 219 13 b 207 382 210 131 207 257 b 210 643 207 463 208 565 b 213 867 211 721 213 797 b 206 1099 213 953 213 1031 l 240 1099 b 268 1117 261 1099 268 1101 b 238 1149 268 1143 260 1149 b 194 1146 226 1149 213 1147 b 76 1133 168 1142 129 1136 b 64 1132 71 1132 67 1132 b 38 1108 46 1131 38 1129 b 75 1090 38 1093 43 1090 l 113 1090 l 108 943 l 108 935 b 107 922 108 931 107 926 l 107 899 b 108 875 107 890 108 882 l 108 853 b 111 758 108 821 110 790 b 113 676 113 729 113 701 l 114 497 b 124 14 118 369 122 154 b 58 -21 75 7 58 3 b 76 -54 58 -47 65 -54 b 93 -53 79 -54 86 -54 b 144 -46 104 -50 119 -47 z m 42 1239 b 71 1238 44 1239 61 1238 b 106 1236 83 1236 100 1236 b 111 1240 108 1236 110 1239 l 119 1257 b 128 1274 124 1260 128 1267 b 125 1299 128 1282 126 1290 b 122 1319 124 1307 122 1315 b 64 1372 122 1322 88 1372 b 8 1304 43 1372 8 1328 b 42 1239 8 1281 29 1239 z m 238 1236 b 250 1235 242 1235 246 1235 b 306 1308 275 1235 306 1274 b 249 1372 306 1338 293 1372 b 192 1317 201 1372 192 1326 b 238 1236 192 1282 206 1250 z "},"":{"ha":568,"x_min":0,"x_max":0,"o":"m 53 1149 b 51 1018 51 1131 51 1050 b 57 736 51 942 54 835 b 61 521 60 651 61 572 l 61 475 b 47 217 61 386 54 300 b 36 -6 40 139 36 64 b 108 -67 36 -35 83 -67 b 142 167 142 -67 142 142 b 140 378 142 233 140 306 b 139 614 139 454 139 533 b 140 942 139 657 139 942 b 385 108 158 942 385 231 b 450 49 385 88 399 49 b 478 69 461 49 472 54 b 476 182 478 107 476 146 b 474 374 475 247 474 311 b 493 707 474 479 476 588 b 501 796 494 733 497 763 b 522 1075 508 857 518 940 l 472 1176 b 460 1176 469 1182 463 1182 b 421 949 435 1126 425 1007 b 419 938 421 943 419 940 b 375 451 404 811 383 617 b 153 1140 328 682 238 954 b 115 1172 142 1158 128 1172 b 56 1154 97 1172 74 1164 z m 67 1282 b 58 1268 61 1278 58 1274 b 110 1238 58 1251 90 1238 b 115 1242 113 1238 114 1240 b 189 1336 115 1242 147 1304 l 188 1336 b 200 1339 192 1338 196 1339 b 294 1288 222 1339 257 1313 b 400 1233 333 1261 372 1233 b 508 1385 439 1233 508 1375 b 479 1403 508 1396 493 1403 b 435 1364 465 1403 449 1382 b 393 1328 419 1347 406 1329 b 364 1346 390 1328 378 1338 b 224 1410 325 1369 265 1410 b 104 1319 179 1410 138 1358 b 67 1282 89 1301 75 1288 z "},"":{"ha":519,"x_min":0,"x_max":0,"o":"m 383 992 b 210 1142 343 1082 290 1142 b 14 486 78 1142 14 806 b 219 -24 14 297 24 54 b 281 -35 239 -32 261 -35 b 464 413 419 -35 464 176 b 383 992 464 650 421 908 z m 188 1033 b 224 1083 199 1061 215 1083 b 332 842 257 1083 310 932 b 365 283 353 672 365 460 b 254 35 365 225 349 35 b 208 49 236 35 221 39 l 194 57 l 196 57 b 133 281 140 97 138 201 l 132 313 l 129 349 b 125 451 126 382 125 417 b 188 1031 125 601 142 926 z m 132 1357 b 343 1251 226 1322 304 1278 b 385 1229 364 1238 376 1229 b 410 1251 401 1233 410 1235 b 254 1396 410 1276 329 1338 b 201 1436 235 1410 218 1424 b 194 1438 200 1438 196 1438 b 108 1396 190 1436 108 1446 b 128 1358 108 1379 119 1363 z "},"":{"ha":519,"x_min":0,"x_max":0,"o":"m 383 992 b 210 1142 343 1082 290 1142 b 14 486 78 1142 14 806 b 219 -24 14 297 24 54 b 281 -35 239 -32 261 -35 b 464 413 419 -35 464 176 b 383 992 464 650 421 908 z m 188 1033 b 224 1083 199 1061 215 1083 b 332 842 257 1083 310 932 b 365 283 353 672 365 460 b 254 35 365 225 349 35 b 208 49 236 35 221 39 l 194 57 l 196 57 b 133 281 140 97 138 201 l 132 313 l 129 349 b 125 451 126 382 125 417 b 188 1031 125 601 142 926 z m 411 1392 b 365 1453 408 1414 372 1453 l 307 1438 b 153 1301 238 1368 185 1328 b 104 1254 124 1281 104 1265 b 125 1211 104 1236 110 1211 b 131 1213 126 1211 126 1211 b 142 1217 135 1213 138 1214 l 140 1217 b 406 1383 174 1242 336 1361 z "},"":{"ha":519,"x_min":0,"x_max":0,"o":"m 383 992 b 210 1142 343 1082 290 1142 b 14 486 78 1142 14 806 b 219 -24 14 297 24 54 b 281 -35 239 -32 261 -35 b 464 413 419 -35 464 176 b 383 992 464 650 421 908 z m 188 1033 b 224 1083 199 1061 215 1083 b 332 842 257 1083 310 932 b 365 283 353 672 365 460 b 254 35 365 225 349 35 b 208 49 236 35 221 39 l 194 57 l 196 57 b 133 281 140 97 138 201 l 132 313 l 129 349 b 125 451 126 382 125 417 b 188 1031 125 601 142 926 z m 389 1204 b 449 1254 406 1204 449 1224 b 301 1486 449 1271 417 1325 b 264 1493 299 1489 276 1493 b 249 1486 256 1493 251 1489 b 222 1468 244 1482 239 1475 l 142 1371 b 61 1260 76 1290 61 1274 b 106 1206 61 1238 83 1206 b 147 1261 108 1206 126 1228 b 249 1411 176 1308 221 1376 l 269 1386 b 315 1324 285 1368 301 1347 b 350 1258 328 1304 339 1283 b 389 1204 365 1225 378 1204 z "},"":{"ha":519,"x_min":0,"x_max":0,"o":"m 383 992 b 210 1142 343 1082 290 1142 b 14 486 78 1142 14 806 b 219 -24 14 297 24 54 b 281 -35 239 -32 261 -35 b 464 413 419 -35 464 176 b 383 992 464 650 421 908 z m 188 1033 b 225 1083 199 1061 215 1083 b 332 842 257 1083 310 932 b 367 283 353 672 367 460 b 254 35 367 225 349 35 b 208 49 236 35 221 39 l 194 57 l 196 57 b 133 281 140 97 138 201 l 132 313 l 129 349 b 125 451 126 382 125 417 b 188 1031 125 601 142 926 z m 42 1282 b 33 1268 36 1278 33 1274 b 86 1238 33 1251 65 1238 b 90 1242 89 1238 90 1240 b 164 1336 90 1242 122 1304 l 163 1336 b 175 1339 167 1338 171 1339 b 269 1288 197 1339 232 1313 b 375 1233 308 1261 347 1233 b 483 1385 414 1233 483 1375 b 454 1403 483 1396 468 1403 b 410 1364 440 1403 424 1382 b 368 1328 394 1347 381 1329 b 339 1346 367 1328 353 1338 b 199 1410 300 1369 240 1410 b 79 1319 156 1410 113 1358 b 42 1282 64 1301 50 1288 z "},"":{"ha":519,"x_min":0,"x_max":0,"o":"m 383 992 b 210 1142 343 1082 290 1142 b 14 486 78 1142 14 806 b 219 -24 14 297 24 54 b 281 -35 239 -32 261 -35 b 464 413 419 -35 464 176 b 383 992 464 650 421 908 z m 188 1033 b 224 1083 199 1061 215 1083 b 332 842 257 1083 310 932 b 365 283 353 672 365 460 b 254 35 365 225 349 35 b 208 49 236 35 221 39 l 194 57 l 196 57 b 133 281 140 97 138 201 l 132 313 l 129 349 b 125 451 126 382 125 417 b 188 1031 125 601 142 926 z m 143 1239 b 172 1238 149 1239 163 1238 b 207 1236 183 1236 201 1236 l 213 1236 b 219 1242 215 1236 218 1239 l 224 1256 b 229 1274 226 1258 229 1265 b 226 1299 229 1282 228 1290 b 224 1319 225 1307 224 1315 b 165 1372 224 1322 190 1372 b 110 1304 146 1372 110 1328 b 143 1239 110 1281 131 1239 z m 340 1238 b 353 1235 346 1235 349 1235 b 408 1308 378 1235 408 1274 b 351 1372 408 1338 394 1372 b 294 1317 304 1372 294 1326 b 340 1236 294 1282 307 1250 z "},"":{"ha":539,"x_min":0,"x_max":0,"o":"m 39 879 b 49 863 39 868 43 867 b 56 856 51 858 56 856 l 56 799 b 79 194 56 593 56 379 b 271 -24 93 97 178 -24 b 442 128 357 -24 415 -18 b 468 636 464 254 468 461 l 468 844 b 472 958 468 869 471 918 b 476 1107 475 1010 476 1065 b 451 1174 476 1146 475 1174 b 374 1110 426 1174 374 1144 b 365 893 374 1050 371 974 b 353 638 360 806 353 715 b 356 490 353 600 354 539 b 358 307 357 429 358 365 b 269 35 358 63 310 35 b 160 521 193 35 160 217 b 164 844 160 629 161 742 b 167 1064 164 928 167 1004 b 88 1131 167 1107 164 1131 b 72 1115 79 1131 72 1128 z m 142 1357 b 353 1251 236 1322 314 1278 b 394 1229 374 1238 386 1229 b 419 1251 411 1233 419 1235 b 264 1396 419 1276 339 1338 b 211 1436 244 1410 228 1424 b 204 1436 210 1438 206 1438 b 118 1394 201 1435 122 1383 b 138 1358 118 1378 129 1363 z "},"":{"ha":539,"x_min":0,"x_max":0,"o":"m 39 879 b 49 863 39 868 43 867 b 56 856 51 858 56 856 l 56 799 b 79 194 56 593 56 379 b 271 -24 93 97 178 -24 b 442 128 357 -24 415 -18 b 468 636 464 254 468 461 l 468 844 b 472 958 468 869 471 918 b 476 1107 475 1010 476 1065 b 451 1174 476 1146 475 1174 b 374 1110 426 1174 374 1144 b 365 893 374 1050 371 974 b 353 638 360 806 353 715 b 356 490 353 600 354 539 b 358 307 357 429 358 365 b 269 35 358 63 310 35 b 160 521 193 35 160 217 b 164 844 160 629 161 742 b 167 1064 164 928 167 1004 b 88 1131 167 1107 164 1131 b 72 1115 79 1131 72 1128 z m 419 1392 b 374 1453 417 1414 381 1453 l 315 1438 b 161 1301 246 1368 193 1328 b 113 1254 132 1281 113 1265 b 133 1211 113 1236 118 1211 b 139 1213 135 1211 135 1211 b 150 1217 143 1213 146 1214 l 149 1217 b 414 1383 182 1242 344 1361 z "},"":{"ha":539,"x_min":0,"x_max":0,"o":"m 39 879 b 49 863 39 868 43 867 b 56 856 51 858 56 856 l 56 799 b 79 194 56 593 56 379 b 271 -24 93 97 178 -24 b 442 128 357 -24 415 -18 b 468 636 464 254 468 461 l 468 844 b 472 958 468 869 471 918 b 476 1107 475 1010 476 1065 b 451 1174 476 1146 475 1174 b 374 1110 426 1174 374 1144 b 365 893 374 1050 371 974 b 353 638 360 806 353 715 b 356 490 353 600 354 539 b 358 307 357 429 358 365 b 269 35 358 63 310 35 b 160 521 193 35 160 217 b 164 844 160 629 161 742 b 167 1064 164 928 167 1004 b 88 1131 167 1107 164 1131 b 72 1115 79 1131 72 1128 z m 397 1204 b 457 1254 414 1204 457 1224 b 310 1486 457 1271 425 1325 b 272 1493 307 1489 285 1493 b 257 1486 264 1493 260 1489 b 231 1468 253 1482 247 1475 l 150 1371 b 69 1260 85 1290 69 1274 b 114 1206 69 1238 92 1206 b 156 1261 117 1206 135 1228 b 257 1411 185 1308 229 1376 l 278 1386 b 324 1324 293 1368 310 1347 b 358 1258 336 1304 347 1283 b 397 1204 374 1225 386 1204 z "},"":{"ha":539,"x_min":0,"x_max":0,"o":"m 39 879 b 49 863 39 868 43 867 b 56 856 51 858 56 856 l 56 799 b 79 194 56 593 56 379 b 271 -24 93 97 178 -24 b 442 128 357 -24 415 -18 b 468 636 464 254 468 461 l 468 844 b 472 958 468 869 471 918 b 476 1107 475 1010 476 1065 b 451 1174 476 1146 475 1174 b 374 1110 426 1174 374 1144 b 365 893 374 1050 371 974 b 353 638 360 806 353 715 b 356 490 353 600 354 539 b 358 307 357 429 358 365 b 269 35 358 63 310 35 b 160 521 193 35 160 217 b 164 844 160 629 161 742 b 167 1064 164 928 167 1004 b 88 1131 167 1107 164 1131 b 72 1115 79 1131 72 1128 z m 151 1239 b 181 1238 157 1239 171 1238 b 215 1236 192 1236 210 1236 l 221 1236 b 228 1242 224 1236 226 1239 l 232 1256 b 238 1274 235 1258 238 1265 b 235 1299 238 1282 236 1290 b 233 1319 233 1307 233 1315 b 174 1372 233 1322 199 1372 b 118 1304 154 1372 118 1328 b 151 1239 118 1281 139 1239 z m 349 1238 b 361 1235 354 1235 357 1235 b 417 1308 386 1235 417 1274 b 360 1372 417 1338 403 1372 b 303 1317 313 1372 303 1326 b 349 1236 303 1282 315 1250 z "},"":{"ha":533,"x_min":0,"x_max":0,"o":"m 238 6 b 293 -32 256 -3 293 -21 b 300 -37 293 -35 296 -37 b 335 -14 308 -37 332 -17 b 336 -8 336 -12 336 -10 b 333 446 336 118 333 318 b 433 886 356 596 396 764 l 433 885 l 497 1024 l 504 1053 l 511 1078 l 515 1092 b 518 1106 515 1097 517 1101 b 521 1126 519 1110 521 1113 b 447 1147 518 1142 468 1147 b 415 1135 435 1147 422 1142 b 272 589 399 1089 314 769 l 189 908 b 158 1046 179 940 169 994 b 110 1204 142 1124 125 1204 b 26 1139 79 1204 26 1163 b 156 729 46 1053 103 878 b 242 464 193 615 229 515 l 215 21 b 238 6 215 14 226 10 z m 418 1392 b 372 1453 415 1414 381 1453 l 314 1438 b 160 1301 244 1368 192 1328 b 111 1254 131 1281 111 1265 b 132 1211 111 1236 117 1211 b 142 1214 135 1211 139 1211 l 140 1214 l 157 1225 b 413 1383 210 1264 350 1365 z "},"":{"ha":533,"x_min":0,"x_max":0,"o":"m 238 6 b 293 -32 256 -3 293 -21 b 300 -37 293 -35 296 -37 b 335 -14 308 -37 332 -17 b 336 -8 336 -12 336 -10 b 333 446 336 118 333 318 b 433 886 356 596 396 764 l 433 885 l 497 1024 l 504 1053 l 511 1078 l 515 1092 b 518 1106 515 1097 517 1101 b 521 1126 519 1110 521 1113 b 447 1147 518 1142 468 1147 b 415 1135 435 1147 422 1142 b 272 589 399 1089 314 769 l 189 908 b 158 1046 179 940 169 994 b 110 1204 142 1124 125 1204 b 26 1139 79 1204 26 1163 b 156 729 46 1053 103 878 b 242 464 193 615 229 515 l 215 21 b 238 6 215 14 226 10 z m 150 1239 b 179 1238 156 1239 171 1238 b 214 1236 190 1236 208 1236 b 219 1240 217 1236 218 1239 b 229 1254 222 1246 226 1249 b 238 1274 235 1257 238 1263 b 235 1299 238 1282 236 1290 b 232 1319 233 1307 232 1315 b 172 1372 232 1322 196 1372 b 117 1304 153 1372 117 1328 b 150 1239 117 1281 138 1239 z m 346 1236 b 360 1235 350 1235 354 1235 b 415 1308 383 1235 415 1274 b 357 1372 415 1338 401 1372 b 301 1317 311 1372 301 1326 b 346 1236 301 1282 314 1250 z "},"":{"ha":532,"x_min":0,"x_max":0,"o":"m 17 465 b 104 468 51 465 78 465 b 93 368 101 433 96 403 b 71 83 81 251 71 143 b 72 21 71 60 72 38 l 72 -17 b 111 -39 72 -39 81 -39 b 133 -35 115 -39 121 -39 b 481 700 386 135 481 399 b 224 1168 481 906 425 1121 b 90 1097 190 1168 90 1135 b 125 814 115 1025 125 926 b 113 556 125 732 121 642 b -22 557 76 557 35 557 b -40 535 -32 554 -40 544 b -32 515 -40 529 -37 522 b -6 483 -14 497 -8 489 b 15 465 0 472 4 467 z m 378 550 b 175 78 361 381 294 163 b 196 274 185 138 190 203 b 199 318 196 286 199 307 b 203 442 201 357 201 397 b 204 478 203 451 204 465 l 233 478 b 351 524 286 479 351 479 b 215 551 351 546 279 549 b 204 553 213 551 208 553 b 201 715 204 603 203 665 b 199 922 200 789 199 860 b 206 1089 199 990 200 1047 b 381 667 354 975 381 819 b 378 550 381 628 379 589 z "},"":{"ha":768,"x_min":0,"x_max":0,"o":"m 169 415 l 368 422 b 586 429 454 426 536 429 b 640 474 618 429 640 456 b 617 494 640 486 632 494 b 518 497 593 494 556 496 b 131 507 440 501 326 507 b 113 485 122 504 113 494 b 119 467 113 478 114 472 b 147 432 139 446 144 438 b 168 415 153 421 157 417 z m 318 113 b 317 89 317 104 317 96 b 347 42 317 60 325 42 b 451 150 431 42 451 68 b 389 196 451 196 425 196 b 318 113 374 196 324 142 z m 465 758 b 468 783 468 768 468 776 b 440 817 468 808 461 817 b 343 725 367 817 343 783 b 414 667 343 679 379 667 b 465 758 431 667 461 729 z "},"":{"ha":519,"x_min":0,"x_max":0,"o":"m 401 1154 b 399 1143 401 1150 399 1146 b 368 1022 390 1106 379 1065 b 210 1142 326 1097 281 1142 b 14 504 82 1142 14 818 b 57 140 14 375 15 243 b 1 -36 28 63 7 -1 b 57 -114 3 -61 39 -114 b 104 -85 78 -114 93 -104 l 133 29 b 281 -35 169 -4 229 -35 b 464 413 419 -35 464 176 b 415 879 464 582 440 761 b 447 958 425 906 438 932 b 506 1151 476 1026 506 1096 b 483 1183 506 1169 500 1183 b 401 1154 468 1183 403 1174 z m 367 283 b 254 35 367 225 349 35 b 208 49 236 35 221 39 l 194 57 l 196 57 b 157 111 178 71 164 93 b 347 693 211 299 279 499 b 367 283 358 558 367 413 z m 188 1033 b 225 1083 199 1061 215 1083 b 322 882 253 1083 297 971 b 167 444 283 758 215 574 l 129 342 l 129 349 b 125 451 126 382 125 417 b 188 1031 125 601 142 926 z "},"":{"ha":676,"x_min":0,"x_max":0,"o":"m 343 -54 b 525 -33 418 -50 475 -40 b 610 -24 561 -28 589 -25 b 658 22 640 -22 658 3 b 636 40 658 36 650 40 b 597 35 626 40 613 38 b 503 24 574 29 540 24 b 403 40 472 24 439 28 l 394 256 b 397 489 396 358 397 461 b 400 497 397 489 399 494 b 407 526 403 504 406 514 b 401 544 407 533 403 540 l 403 542 b 397 660 401 588 400 628 l 565 667 b 613 713 596 668 613 690 b 574 733 613 733 599 733 l 568 733 b 476 742 542 733 508 738 b 396 750 447 746 421 750 l 396 785 b 404 892 396 826 400 857 b 418 1042 410 926 415 972 b 635 1057 446 1044 582 1057 l 647 1057 b 660 1063 651 1053 660 1056 b 549 1139 660 1124 661 1139 b 363 1133 507 1139 447 1138 b 332 1193 360 1174 350 1193 b 235 1126 307 1193 242 1156 b 138 679 207 983 172 829 b -3 -62 72 394 8 117 b 75 -111 -3 -87 43 -111 b 164 399 96 -111 143 243 l 172 461 l 294 475 l 285 -1 b 332 -54 286 -18 318 -50 z m 293 1074 b 297 788 296 1074 297 807 b 296 679 297 763 296 708 b 294 543 294 638 294 593 l 183 535 b 293 1074 238 892 293 1074 z "},"":{"ha":700,"x_min":0,"x_max":0,"o":"m 594 1138 l 561 1138 b 322 1090 476 1138 342 1136 b 317 1072 321 1085 319 1078 b 264 1140 303 1110 286 1140 b 190 1101 232 1140 197 1129 l 133 829 b -18 -29 64 479 -18 85 b 47 -107 -18 -81 32 -107 b 108 151 56 -107 108 -49 b 125 358 108 197 118 289 b 132 418 126 379 131 397 b 254 449 178 435 222 449 b 293 435 271 449 283 443 b 307 299 297 385 303 340 b 322 74 315 221 322 151 b 397 -19 322 54 379 -19 l 399 -19 b 501 -62 424 -44 458 -62 b 686 21 539 -62 686 -33 b 674 36 686 35 679 36 l 668 36 b 640 28 660 33 650 28 b 610 21 635 28 621 25 b 492 1 576 13 521 1 b 415 243 432 1 421 143 l 411 290 b 399 481 406 342 401 413 l 394 563 l 568 593 l 586 596 b 619 617 603 597 619 601 b 560 646 619 639 596 646 b 454 636 529 646 489 640 b 386 629 426 632 403 629 b 385 722 385 664 385 694 b 376 849 385 764 381 807 b 369 961 372 888 369 926 b 378 1039 369 989 372 1014 b 503 1058 379 1047 440 1053 b 647 1092 574 1064 647 1069 b 594 1138 647 1104 636 1136 z m 281 656 b 283 624 281 646 282 632 b 285 607 285 619 285 611 b 275 583 281 600 275 590 b 288 557 275 576 281 564 l 288 542 b 147 494 288 515 190 494 b 139 499 140 494 139 496 b 189 729 139 532 163 625 b 242 949 206 801 226 881 z "},"":{"ha":824,"x_min":0,"x_max":0,"o":"m 165 469 l 378 476 b 654 485 489 481 603 485 b 710 529 689 485 710 511 b 686 549 710 540 701 549 b 567 551 661 549 614 550 b 126 561 467 556 321 561 b 108 539 117 558 108 549 b 117 519 108 535 111 528 b 143 488 135 501 140 493 b 164 469 147 476 151 471 z "},"":{"ha":1124,"x_min":0,"x_max":0,"o":"m 167 469 b 238 471 183 469 208 471 b 913 485 428 475 833 485 b 967 529 946 485 967 511 b 943 549 967 540 961 549 b 754 551 918 549 836 550 b 126 561 578 556 322 561 b 108 539 117 558 108 549 b 117 519 108 535 111 528 b 143 488 135 501 140 493 b 165 469 149 476 153 471 z "},"":{"ha":776,"x_min":0,"x_max":0,"o":"m 529 869 b 571 1025 544 900 558 967 b 592 1125 579 1068 586 1107 b 590 1093 592 1118 592 1108 b 583 947 588 1050 583 982 b 585 913 583 940 583 925 b 590 774 586 885 590 840 b 593 769 590 772 592 771 b 638 754 597 767 633 754 b 665 813 661 754 665 782 b 660 981 665 863 663 922 b 654 1129 657 1035 654 1089 b 657 1160 654 1138 656 1151 b 658 1182 658 1167 658 1178 b 594 1208 658 1197 617 1208 b 574 1204 583 1208 575 1206 b 504 967 567 1197 533 1151 b 422 1211 488 1058 457 1211 b 372 1190 407 1211 388 1199 l 364 1186 b 361 1181 363 1185 361 1183 b 353 1043 361 1143 356 1074 b 347 1007 353 1043 350 1024 b 326 821 339 957 326 868 b 388 764 326 772 342 764 b 414 778 403 764 414 769 b 413 854 413 803 413 828 b 414 1146 413 975 414 1146 b 433 1024 421 1122 426 1072 b 471 874 443 956 456 878 b 475 872 471 874 474 872 b 524 865 482 869 494 865 z m 149 1140 l 149 1093 b 144 1033 144 1075 144 1051 l 144 979 b 143 892 144 956 143 914 b 142 806 142 864 142 836 b 206 764 142 776 197 764 b 221 772 211 764 215 767 l 221 793 b 222 885 221 814 222 861 b 224 978 224 915 224 949 l 224 1076 b 225 1113 224 1088 225 1100 l 225 1144 l 251 1151 b 322 1163 275 1157 306 1163 b 338 1190 335 1163 338 1185 b 310 1210 338 1206 325 1210 b 303 1206 311 1210 307 1207 l 294 1203 b 218 1197 271 1199 244 1197 b 158 1199 197 1197 178 1199 l 115 1199 b 63 1183 83 1199 63 1196 b 92 1139 63 1176 69 1139 b 149 1140 92 1139 124 1139 z "},"":{"ha":460,"x_min":0,"x_max":0,"o":"m 119 529 b 118 522 119 526 118 525 l 118 524 b 117 497 117 514 117 507 b 160 435 117 458 131 435 b 314 583 288 435 314 472 b 225 644 314 644 276 644 b 119 531 204 644 126 569 z "},"":{"ha":857,"x_min":0,"x_max":0,"o":"m 396 1182 b 393 1119 393 1174 393 1136 b 396 999 393 1079 393 1036 b 399 943 396 982 399 961 b 101 563 165 863 101 675 b 383 167 101 364 217 206 l 374 -12 b 376 -18 374 -14 375 -17 b 408 -56 390 -32 400 -44 b 436 -79 419 -68 428 -79 b 468 44 453 -79 457 -49 l 468 154 l 503 154 b 644 168 546 154 592 158 b 713 206 676 174 693 189 b 746 232 725 217 738 228 b 750 238 747 233 750 235 l 751 261 b 743 268 751 267 749 271 b 594 236 693 246 643 236 b 468 257 551 236 508 244 b 471 569 468 363 469 483 l 489 915 b 646 874 542 913 610 888 b 679 864 661 868 672 864 b 740 896 725 864 740 876 b 703 957 740 924 728 950 b 586 971 665 964 619 971 b 490 965 556 971 521 969 l 501 1158 b 422 1194 496 1178 450 1194 b 396 1182 408 1194 397 1189 z m 199 560 b 400 890 199 654 265 819 b 401 747 401 847 401 808 b 392 288 401 640 400 493 b 199 560 288 346 204 449 z "},"":{"ha":672,"x_min":0,"x_max":0,"o":"m 131 417 b 278 421 171 417 221 418 b 289 381 281 408 286 394 b 281 285 285 353 282 317 b 107 286 229 286 175 286 b 88 264 97 283 88 274 b 94 246 88 257 89 251 l 94 247 b 121 210 113 228 117 217 b 140 193 126 199 129 194 b 226 196 163 193 199 194 b 275 197 242 196 257 197 b 272 86 274 157 272 122 b 276 -6 272 49 274 17 b 361 -61 282 -39 344 -61 b 368 -56 365 -61 368 -60 l 371 7 l 371 26 b 376 100 369 49 374 78 b 378 121 378 107 378 117 l 379 167 b 381 203 379 178 381 190 b 442 204 404 204 419 204 b 599 251 532 206 599 206 b 578 272 599 264 592 272 b 481 276 550 272 519 274 b 382 282 454 278 422 281 b 381 297 382 289 381 289 l 381 319 b 382 336 381 325 381 331 b 385 356 383 342 385 347 l 385 369 l 394 424 b 465 425 421 425 440 425 b 611 458 547 425 611 426 b 506 506 611 499 567 506 l 458 506 b 411 504 443 506 426 504 b 444 633 418 546 431 589 b 456 671 447 646 453 658 l 511 874 b 567 1042 521 924 544 988 l 592 1111 b 554 1171 592 1151 578 1171 b 343 563 506 1171 389 768 b 275 815 317 667 299 732 b 207 1115 235 960 207 1068 b 158 1167 204 1154 182 1167 b 106 1151 143 1167 117 1157 b 99 1140 101 1150 99 1140 b 263 504 100 1140 207 742 l 142 504 b 118 464 121 496 118 481 b 124 422 118 449 121 435 z "},"":{"ha":231,"x_min":0,"x_max":0,"o":"m 74 1214 b 71 1194 71 1208 71 1199 b 76 1156 72 1182 74 1169 b 88 1040 82 1129 88 1094 b 69 844 88 996 83 932 b 86 822 69 829 76 822 b 132 858 104 822 132 850 b 144 932 132 876 139 903 b 186 1181 156 982 172 1056 b 111 1225 186 1222 150 1225 b 75 1217 94 1225 82 1221 l 74 1215 z "},"":{"ha":231,"x_min":0,"x_max":0,"o":"m 181 828 b 183 851 183 831 183 844 b 176 894 183 869 179 881 b 165 1007 171 921 165 954 b 186 1203 165 1051 171 1115 b 168 1224 186 1219 179 1224 b 124 1189 151 1224 124 1197 b 111 1115 124 1171 117 1143 b 69 867 100 1065 83 992 b 142 822 69 825 106 822 b 181 828 163 822 179 826 z "},"":{"ha":401,"x_min":0,"x_max":0,"o":"m 279 1222 b 256 1179 278 1221 256 1186 b 257 1126 257 1160 257 1144 b 225 864 257 1088 251 1026 b 272 813 225 835 254 813 b 286 825 279 813 286 815 b 304 897 286 842 296 869 b 361 1164 321 951 347 1036 b 286 1224 361 1193 296 1224 z m 75 1217 l 74 1215 l 74 1214 b 71 1194 71 1208 71 1199 b 76 1156 72 1182 74 1169 b 88 1040 82 1129 88 1094 b 69 844 88 996 83 932 b 86 822 69 829 76 822 b 133 858 104 822 133 850 b 146 932 133 876 140 903 b 186 1181 157 982 172 1056 b 111 1225 186 1222 151 1225 b 75 1217 94 1225 82 1221 z "},"":{"ha":401,"x_min":0,"x_max":0,"o":"m 353 817 b 360 842 360 819 360 835 b 353 882 358 854 356 868 b 340 996 347 907 340 942 b 361 1192 340 1040 346 1104 b 344 1213 361 1208 354 1213 b 297 1178 326 1213 297 1186 b 286 1104 297 1160 290 1132 b 244 856 275 1054 258 981 b 317 811 244 814 281 811 b 356 817 339 811 354 815 z m 153 814 b 175 857 154 815 175 850 b 174 867 175 861 174 864 b 172 910 172 882 172 893 b 206 1172 172 947 179 1010 b 160 1224 206 1201 176 1224 b 144 1211 151 1224 144 1221 b 126 1136 144 1193 138 1169 b 69 872 110 1083 85 1006 b 144 811 69 843 135 811 z "},"":{"ha":272,"x_min":0,"x_max":0,"o":"m 172 499 b 154 514 171 510 163 514 b 103 481 142 514 103 496 b 75 -60 100 338 90 168 b 76 -64 75 -60 75 -62 b 110 -100 93 -81 104 -93 b 139 -126 122 -115 128 -126 b 172 378 172 -126 172 165 z m 104 651 b 138 625 107 636 131 625 b 174 656 151 625 165 633 l 203 1199 b 125 1235 197 1218 151 1235 b 93 1189 97 1235 93 1215 b 97 981 93 1133 94 1056 b 104 653 100 881 104 767 z "},"":{"ha":508,"x_min":0,"x_max":0,"o":"m 458 342 b 289 767 392 524 331 664 b 208 988 239 886 208 958 b 313 1106 208 1050 250 1106 b 432 1054 347 1106 388 1090 b 438 1053 433 1053 436 1053 b 461 1104 460 1057 461 1085 b 411 1143 461 1121 460 1143 b 290 1168 367 1161 325 1168 b 117 974 161 1168 117 1067 b 135 843 117 932 122 890 b 56 574 76 771 56 665 b 151 271 56 471 85 367 l 201 197 b 310 0 257 119 310 51 b 75 -250 310 -86 171 -221 b 50 -286 71 -251 50 -274 b 83 -306 50 -294 76 -306 b 379 -112 192 -290 344 -200 b 401 -11 393 -76 397 -43 b 399 24 401 1 400 14 b 397 31 399 26 397 28 b 476 236 446 82 476 160 b 458 342 476 272 469 308 z m 279 274 b 146 585 214 367 146 464 b 176 732 146 628 154 682 l 203 686 b 376 242 269 582 376 407 b 363 142 376 208 372 175 b 279 274 340 185 310 228 z "},"":{"ha":831,"x_min":0,"x_max":0,"o":"m 176 524 l 383 531 b 633 538 483 535 583 538 b 688 582 667 538 688 564 b 664 603 688 594 682 603 b 556 606 638 603 597 604 b 139 615 467 610 333 615 b 119 593 129 613 119 603 b 126 575 119 586 121 581 b 154 540 146 554 151 546 b 175 524 160 531 164 525 z "},"":{"ha":972,"x_min":0,"x_max":0,"o":"m 192 533 b 482 540 247 535 371 536 l 726 549 b 729 461 728 522 729 497 l 729 422 b 728 381 729 410 728 396 b 778 333 728 351 758 333 b 801 354 792 333 801 339 l 801 365 b 825 561 803 425 803 424 b 753 632 825 592 774 632 b 349 622 678 628 528 622 b 169 625 290 622 232 624 l 153 625 b 135 603 144 624 135 613 b 143 582 135 597 138 590 b 174 544 161 564 169 553 b 190 533 178 538 179 535 z "},"":{"ha":822,"x_min":0,"x_max":0,"o":"m 197 560 b 351 565 238 560 292 563 l 360 565 b 339 188 358 475 351 360 b 342 182 339 186 340 183 l 379 157 b 406 140 388 150 396 140 b 438 226 421 140 428 163 b 435 381 438 276 436 336 b 432 556 433 442 432 501 l 432 568 b 511 569 463 569 485 569 b 715 619 631 571 715 571 b 692 640 715 632 707 640 b 593 643 665 640 633 642 b 438 649 550 644 499 647 l 457 944 b 372 969 453 958 400 969 b 340 942 344 969 340 958 b 349 829 340 894 344 864 b 360 650 354 785 360 739 b 157 653 300 651 238 653 b 139 631 149 650 139 640 b 149 610 139 624 143 617 b 175 574 164 593 171 582 b 196 560 181 567 182 561 z m 175 -4 l 383 3 b 638 11 485 7 588 11 b 693 56 672 11 693 38 b 669 75 693 67 685 75 b 557 78 644 75 600 76 b 136 88 465 82 331 88 b 118 65 128 86 118 75 b 126 46 118 60 121 54 b 156 8 144 28 151 17 b 174 -4 160 1 161 -3 z "},"":{"ha":378,"x_min":0,"x_max":0,"o":"m 138 553 b 136 531 136 544 136 536 b 165 482 136 500 144 482 b 271 590 251 482 271 510 b 208 638 271 638 244 638 b 138 553 194 638 143 582 z "},"":{"ha":464,"x_min":0,"x_max":0,"o":"m 186 -189 b 194 -194 188 -193 190 -196 b 346 -79 286 -178 346 -126 b 246 -49 346 -57 289 -51 b 222 -47 239 -49 228 -47 b 290 43 271 -15 290 22 b 265 67 290 63 276 67 b 224 54 256 67 224 61 b 157 -18 224 13 186 -6 b 117 -53 138 -25 117 -36 b 203 -89 117 -74 163 -82 b 260 -103 233 -94 260 -100 b 189 -162 260 -117 229 -158 b 182 -171 185 -162 181 -167 z "},"":{"ha":461,"x_min":0,"x_max":0,"o":"m 410 -3 b 399 3 410 3 404 7 b 363 -10 386 -6 375 -10 b 125 625 243 -10 125 386 b 249 1089 125 793 151 1089 b 349 963 278 1089 336 999 b 383 950 356 956 369 950 b 403 985 399 950 403 965 b 244 1156 403 1125 299 1156 b 54 881 153 1156 78 1000 b 33 626 38 803 33 711 b 101 126 33 471 61 272 b 258 -40 115 78 192 1 b 207 -78 251 -67 226 -71 b 172 -104 188 -83 172 -89 b 246 -153 172 -124 213 -140 b 297 -176 272 -162 297 -172 b 228 -236 297 -190 268 -232 b 221 -243 224 -236 219 -240 l 225 -262 b 233 -268 226 -267 229 -269 b 383 -154 324 -250 383 -199 b 303 -111 383 -132 339 -121 b 269 -103 286 -106 274 -104 b 303 -78 275 -101 290 -86 b 314 -68 310 -72 314 -68 b 317 -69 315 -68 315 -69 l 314 -69 b 335 -74 319 -72 326 -74 b 406 -44 361 -74 386 -61 b 408 -39 407 -43 408 -40 z "},"":{"ha":449,"x_min":0,"x_max":0,"o":"m 176 -189 b 185 -194 178 -193 181 -196 b 336 -79 276 -178 336 -126 b 236 -49 336 -57 279 -51 b 207 -47 222 -47 213 -47 l 228 -32 b 258 -7 236 -24 249 -15 b 393 175 343 1 390 125 b 386 201 389 182 388 193 b 371 225 383 217 381 225 b 353 207 363 225 361 219 b 351 204 353 206 353 206 b 239 85 318 144 257 85 b 124 607 179 85 124 401 b 263 1081 124 774 161 1081 b 344 996 301 1081 326 1032 b 381 949 358 969 368 949 b 407 992 403 949 407 969 b 243 1139 407 1097 307 1139 b 94 1011 169 1139 113 1075 l 79 961 b 31 432 31 793 31 617 b 185 3 31 246 47 49 b 149 -17 174 -4 161 -11 b 107 -53 125 -28 107 -35 b 193 -89 107 -74 153 -82 b 250 -103 224 -94 250 -100 b 179 -162 250 -117 219 -158 b 172 -171 175 -162 171 -167 z "},"":{"ha":531,"x_min":0,"x_max":0,"o":"m 126 256 b 121 338 124 282 121 304 b 156 778 121 476 140 644 b 174 985 165 868 174 942 b 157 1111 174 1025 172 1078 b 99 1126 153 1118 124 1126 b 60 1106 76 1126 60 1119 b 56 1022 60 1079 58 1050 b 51 943 54 996 51 968 b 43 596 51 817 47 700 b 38 361 40 510 38 431 b 42 236 38 317 40 278 b 46 79 44 189 46 142 b 39 -104 46 56 43 -29 b 33 -214 38 -149 35 -187 b 89 -260 33 -249 67 -260 b 114 -249 101 -260 111 -254 b 126 -150 118 -224 122 -187 l 144 -6 b 246 -31 171 -21 204 -31 b 349 260 304 -31 324 96 l 367 378 b 368 350 368 368 368 358 l 372 304 b 386 176 372 286 379 238 b 411 -32 396 86 411 -21 l 481 -54 b 489 -47 485 -56 489 -53 b 475 181 488 -24 482 85 b 463 367 469 268 463 349 l 454 521 b 451 667 451 569 451 619 l 451 697 b 453 729 451 707 453 718 b 454 824 453 753 454 799 l 468 865 l 468 864 b 483 928 476 886 483 907 b 450 1100 483 983 472 1064 l 450 1099 b 411 1107 446 1104 426 1107 b 358 1088 383 1107 358 1103 l 358 961 b 356 857 358 907 357 881 b 354 806 354 840 354 826 l 354 729 b 353 715 354 726 353 719 b 351 696 351 711 351 703 l 351 676 b 204 68 307 371 244 68 b 135 163 171 68 149 104 b 126 256 133 201 129 231 z "},"":{"ha":1018,"x_min":0,"x_max":0,"o":"m 383 449 b 371 176 382 335 379 289 b 351 -122 367 108 360 18 b 353 -128 351 -124 351 -126 b 386 -165 371 -146 379 -157 b 418 -193 400 -181 404 -193 b 454 314 453 -193 454 107 l 454 451 b 482 1075 463 660 474 867 l 579 1079 b 578 871 578 1007 578 949 b 564 -74 578 700 578 464 b 628 -240 564 -133 604 -240 b 660 -110 638 -240 654 -172 b 642 238 647 -6 642 97 b 686 1085 642 422 653 675 b 840 1103 719 1092 767 1099 b 860 1122 856 1103 860 1111 b 839 1158 860 1136 846 1157 b 599 1167 804 1163 701 1167 b 368 1140 464 1167 383 1157 l 331 1099 b 179 818 240 996 207 957 b 176 789 178 810 176 801 b 251 558 176 717 213 590 z "},"":{"ha":643,"x_min":0,"x_max":0,"o":"m 93 25 b 122 -18 93 11 101 -6 b 178 -26 136 -22 160 -26 b 218 392 192 -26 214 206 b 247 390 228 390 235 390 b 608 643 440 390 608 528 b 274 893 608 761 518 893 b 214 892 254 893 235 894 l 214 903 b 153 1169 213 1011 210 1169 b 106 842 126 1169 113 1029 b 83 825 92 838 83 836 b 106 801 88 819 100 807 b 89 438 92 686 89 563 b 92 218 89 364 90 290 b 93 25 93 151 93 85 z m 544 656 b 269 478 544 588 457 518 b 251 475 263 476 256 475 b 219 517 235 475 219 482 b 208 692 219 594 213 650 b 203 761 206 719 203 742 b 214 818 203 781 206 800 b 544 656 428 807 544 733 z "},"":{"ha":668,"x_min":0,"x_max":0,"o":"m 158 1078 b 140 1115 153 1086 146 1103 b 96 1160 133 1138 124 1160 b 72 1121 76 1160 72 1140 b 74 1017 74 1103 74 1067 b 65 443 74 882 69 656 b 61 3 64 260 61 89 b 139 -72 61 -46 82 -72 b 172 351 157 -72 172 138 l 172 388 b 251 397 201 390 222 394 b 661 558 394 397 661 450 b 254 724 661 682 472 724 b 172 722 229 724 200 724 b 160 1075 171 861 169 957 z m 271 456 l 239 453 l 171 447 b 160 543 163 486 160 519 b 254 649 160 639 206 649 b 588 590 382 649 578 613 b 271 456 585 542 354 467 z "},"":{"ha":358,"x_min":0,"x_max":0,"o":"m 76 781 l 76 717 b 158 567 76 651 96 567 b 285 835 257 567 285 699 b 164 1164 285 1151 210 1164 b 76 781 83 1164 76 851 z m 226 922 b 218 760 226 864 225 810 l 218 753 l 214 718 b 176 606 207 665 201 606 b 133 751 150 606 133 719 b 183 1122 133 850 147 1122 b 226 922 213 1122 226 1003 z "},"":{"ha":619,"x_min":0,"x_max":0,"o":"m 168 818 b 164 924 168 851 167 889 b 160 1019 163 957 160 990 b 189 1104 160 1060 163 1104 b 308 963 231 1104 308 1051 b 274 826 308 919 290 872 b 242 690 258 782 242 736 b 407 367 246 563 336 451 b 497 215 454 310 497 256 b 267 -33 497 129 360 -4 b 240 -68 261 -35 240 -56 b 274 -89 240 -76 268 -89 b 567 104 383 -72 532 18 b 589 206 581 138 589 174 b 449 468 589 307 517 392 b 326 682 389 539 326 608 b 382 871 326 747 354 813 b 425 1010 406 922 425 967 b 228 1154 425 1072 379 1121 b 217 1157 225 1154 221 1156 b 175 1163 206 1160 192 1163 b 72 989 129 1163 72 1136 b 74 899 72 958 72 929 b 76 807 75 868 76 839 b 74 618 76 746 75 683 b 69 400 72 549 69 476 b 81 108 69 313 72 210 l 94 -68 b 140 -104 101 -93 122 -104 b 169 -82 150 -104 160 -93 b 183 -69 175 -75 181 -69 b 190 -62 188 -69 190 -67 l 181 231 b 168 643 171 351 168 503 z "},"G":{"ha":490,"x_min":0,"x_max":0,"o":"m 428 690 b 433 739 428 713 431 728 b 436 754 435 744 436 750 b 276 781 436 761 343 781 b 226 736 236 781 226 771 b 264 718 226 725 233 718 b 317 710 294 718 306 715 b 324 507 321 651 324 583 b 296 158 324 389 314 247 l 285 101 b 247 32 274 46 271 32 b 110 539 160 32 110 271 b 274 1075 110 806 161 1075 b 344 1014 303 1075 326 1040 b 383 978 358 996 368 978 b 407 971 393 978 400 974 b 422 965 414 967 419 965 b 436 988 431 965 436 969 b 290 1163 418 1094 394 1163 b 31 668 56 1163 31 956 b 32 543 31 629 32 586 b 33 406 33 499 33 451 b 229 -47 33 161 111 -47 b 385 31 318 -44 371 -14 b 428 690 413 128 428 565 z "}}}
